<?xml version="1.0" encoding="utf-8"?>
<!-- Generator: Adobe Illustrator 18.0.0, SVG Export Plug-In . SVG Version: 6.00 Build 0)  -->
<!DOCTYPE svg PUBLIC "-//W3C//DTD SVG 1.1//EN" "http://www.w3.org/Graphics/SVG/1.1/DTD/svg11.dtd">
<svg version="1.1" id="Слой_1" xmlns="http://www.w3.org/2000/svg" xmlns:xlink="http://www.w3.org/1999/xlink" x="0px" y="0px"
	 viewBox="1 476.7 1197.8 246.6" enable-background="new 1 476.7 1197.8 246.6" xml:space="preserve">
<path fill="none" stroke="#FFFFFF" stroke-width="3" stroke-miterlimit="10" d="M115.1,720.1c-13.4-0.2-26.7-2.8-39-7.8
	c-20.9-8.3-38.7-23.4-51.2-41.9c-12.3-18-20-39.2-21.9-60.9c-2.5-28.4,5-57.6,20.9-81.3c10.7-16,25.2-29.7,42.4-38.5
	c26.9-13.9,59.9-15.2,87.9-3.7s50.2,36,59.4,64.9c-12.8,4.5-25.7,9.2-38.5,13.7c-5.2-12.2-12.8-23.7-23.2-31.9
	c-10.3-8.2-23.9-13.2-37-12c-18.2,42.6-36.2,85.3-54.4,127.8c14,20.4,39.4,31,63.9,29.2c23.9-1.8,49.1-22.2,53.4-45.6
	c13.7,3.5,26.4,6.8,39.9,10.3c-6.2,36.9-39.4,66.8-77.3,74.9C132.2,719.1,123.7,720.2,115.1,720.1z M55.1,556
	c-2.3,4.3-4.3,8.8-6,13.7c0,0-0.3,0.8-0.3,1L55.1,556z"/>
<path fill="none" stroke="#FFFFFF" stroke-width="3" stroke-miterlimit="10" d="M115.1,706c-2.2,0-4.5,0-6.7-0.2
	c-2.3-0.2-4.5-0.3-6.5-0.7h-0.2c-1.5-0.3-3-0.5-4.5-0.8c-1.5-0.3-3.2-0.7-4.7-1.2c-1.5-0.5-3.2-0.8-4.7-1.3c-1.7-0.5-3.3-1.2-5-1.8
	h-0.2c-2.7-1-5.2-2-7.5-3.3l-0.2-0.2c-1.5-0.7-3-1.5-4.3-2.3c-1.3-0.8-2.5-1.7-3.8-2.5c-2-1.3-3.8-2.5-5.5-3.8
	c-1.7-1.2-3.5-2.7-5.3-4.2l-6-5.5c-2-1.8-4-3.8-5.8-5.8c-2-2.2-3.8-4.5-5.5-6.8c-1.5-2.3-3.2-4.7-4.5-6.8l-3.5-5.8
	c-1.5-2.5-2.8-5-4-7.5c-1-2.3-2-4.8-2.8-7.3c-4.7-12.3-7.2-25.2-7.2-38.5c0-13.5,2.3-26.9,7-39.5c2.3-6.3,5.2-12.5,8.3-18.2
	c3.2-5.7,7-11.2,11.2-16.2c8-9.8,18-17.9,29.9-23.7c4.2-2,8.3-3.7,12.7-5.2c4.3-1.5,9-2.5,13.7-3l5.3-0.7c1.2-0.2,2.5-0.2,3.8-0.2
	h3.3c11,0,20.7,1.2,28.7,3.5c8.5,2.3,16,5.7,22.4,9.5c6.2,3.8,11.8,8.7,17,14.9c3.2,3.7,5.8,7.5,8.2,11.7l5.8,10.7l-12.3,4.3
	l-5.8-9.8c-1.8-3.3-4-6.2-6.3-8.7c-2.5-2.5-5-5-7.7-7.3c-1.5-1.3-3.2-2.5-4.7-3.3c-1.7-1-3.5-2-5.2-3c-1.8-1-3.7-1.8-5.3-2.5
	c-1.7-0.8-3.5-1.5-5.3-2.2c-1.3-0.5-2.5-1-3.7-1.2c-1.3-0.3-2.7-0.7-4-0.8c-7.2-1.5-14.4-2.2-21.4-2.2c-1.5,0-3,0-4.5,0.2l-2,0.2
	L44.7,650.1l0.7,1c0.5,0.8,1,1.7,1.7,2.5c1.2,1.7,2.2,3.3,3.3,4.7c1.8,2.5,3.7,4.7,5.2,6.2l0.2,0.2c1.5,1.5,2.8,3,4.3,4.5
	c1.5,1.3,3,2.8,4.7,4.3c1.7,1.5,3.5,2.8,5.5,4.2l0.2,0.2c1.5,1.2,3.3,2.3,5.3,3.5c18.2,10.7,39.4,14.4,59.9,8.5
	c15.2-4.5,29.5-12.2,40.9-23.5c4.7-4.7,7.8-10.5,10-16.9l12.8,3.3c-1.8,5.5-4,10.8-7.3,15.5c-1.2,1.7-2.3,3.3-3.5,4.8
	c-16.4,21-43.1,31.2-69.1,32.7C118,706,116.6,706,115.1,706z M85.8,510.6c-2.7,1-5.2,2.2-7.7,3.5c-10,5.3-18.7,12.5-25.9,21
	c-7.2,8.8-12.7,18.9-16.4,30c-2,5.5-3.5,11.2-4.3,16.9s-1.3,11.5-1.3,17.4c0,10.3,1.5,20.4,4.7,29.7l2,5.8l54.4-126.5L85.8,510.6z"
	/>
<path fill="none" stroke="#FFFFFF" stroke-width="3" stroke-miterlimit="10" d="M370.6,720.2l-51.2-79.9h-19l-33.9,79.6H231V481.3
	h101.8c1.7,0,3.2,0.2,4.7,0.3l4.8,0.5c3.8,0.5,7.3,1.3,10.8,2.7c2.7,1,5.5,2.3,8.2,3.7l0.3,0.2c4.3,2.3,8.3,4.8,11.8,7.5
	c4.2,3,7.8,6.5,11.3,10.7l0.3,0.5c1.2,1.5,2.3,3,3.5,4.5c1.3,1.8,2.5,3.7,3.7,5.5c1.8,2.8,3.3,5.7,4.5,8.3c0.5,1,1,2.2,1.5,3.3
	c0.3,1,0.7,1.8,1,2.8c0.8,1.8,1.5,3.7,2.2,5.7c0.7,2,1.2,4.2,1.5,6.2c0.3,1.7,0.7,3.3,0.8,4.8l0.3,2.5c0.5,2,0.7,4.2,0.7,6.3v3.5
	c0,2,0,4.2-0.2,6.3c-0.2,2.8-0.5,5.8-1.2,8.7l-1.3,8.7l-1.7,4.8l-1.2,3.2c-0.7,2-1.3,4-2.3,5.8c-0.2,0.5-0.5,0.8-0.7,1.3l-0.3,0.8
	l-0.2,0.2c-0.5,1-1.2,2.2-1.8,3.2l0,0l-0.8,1.5l-0.2,0.3c-0.7,1.2-1.5,2.3-2.3,3.5c-1.3,2.2-2.8,4-4.3,5.7l-4.7,5.2l-4.3,4
	c-2,1.8-4.2,3.3-6.3,4.8l-5.2,3.2c0,0-1.3,0.7-1.7,0.8l55.7,87.3H370.6L370.6,720.2z M272.8,599.9l32.7-76.8h-32.7V599.9z
	 M332.7,598.7c1.2,0,2.3,0,3.3-0.2c1.3-0.2,2.7-0.5,4-0.7c1.5-0.5,2.8-1,4.2-1.7l2.3-1.3c1.3-0.8,2.7-1.7,4-2.7l0.3-0.3l4.2-4.7
	c0.8-0.8,1.2-1.5,1.5-1.8c0.8-1.5,1.7-3,2.7-4.5c0.7-1.3,1.3-2.8,1.8-4.7c0.5-2,1.2-4,1.7-5.8c0.3-1,0.5-2,0.5-3.2V566l0.3-1.7v-3.5
	c0-2.2-0.2-4.2-0.5-6.2c-0.2-1.2-0.3-2.2-0.7-3.2c-0.3-1-0.5-2-1-3l-0.8-2.2l-1-2.3l-1.8-3.3l0,0c-0.3-0.5-0.8-1.2-1.2-1.8
	c-0.5-0.8-1.2-1.7-1.7-2.5c-0.3-0.3-0.7-0.8-1.2-1.3l-4.2-4.5c-0.2-0.2-0.2-0.2-0.2-0.2c-0.7-0.3-1.3-0.8-2-1.2l-29.5,69.8
	L332.7,598.7L332.7,598.7z"/>
<path fill="none" stroke="#FFFFFF" stroke-width="3" stroke-miterlimit="10" d="M378.1,705.7l-50.9-79.4H291l-33.9,79.6h-11.8V495.6
	h87.6c0.8,0,1.8,0,2.7,0.2l5.2,0.7c2.5,0.3,5,1,7.3,1.8s4.7,1.8,6.8,3c3.7,2,7.2,4.2,10.3,6.5c3.2,2.3,6.2,5.2,9,8.3v0.2
	c1.2,1.5,2.2,2.8,3.2,4.2c5.5,7.5,9.5,16,11.5,25.2c1,4.5,1.7,9.2,1.8,13.9c0,2.3,0,4.7-0.2,7c-0.3,5.5-1.3,11-3,16.4
	c-1.3,4.3-2.8,10.8-6.2,14.2c-0.2,0.2-0.3,0.5-0.5,1l-0.2,0.2l-0.2,0.3c-6.7,13.2-20,21.9-33.7,26.4c-0.5,0.2-1,0.3-1.5,0.5
	l-3.2,0.8l51.2,80.3l-15-0.2L378.1,705.7z M258.7,669.2l20.7-48.2l2.5-5.7L327.1,509h-68.4V669.2z M296.5,612.9h36.2
	c1.8,0,3.7-0.2,5.3-0.3c1.8-0.3,3.5-0.5,5.3-1c2.8-0.8,5.5-1.8,7.8-3.2l2.7-1.5c1.5-1,3-1.8,4.5-2.8c1.2-0.8,2.3-1.8,3.3-3l4-4.5
	c1.2-1.3,2.2-2.7,3-4c1-1.5,1.8-3.2,2.8-4.8c1.2-2.2,2.3-4.7,3.2-7.5c0.7-2.2,1.2-4.3,1.8-6.5c0.5-1.8,0.8-3.8,0.8-5.8v-0.2v-0.3
	c0.2-1,0.3-2,0.3-2.8v-3.7c0-2.8-0.2-5.7-0.5-8.3c-0.3-1.7-0.5-3.2-1-4.7c-0.3-1.5-0.8-2.8-1.3-4.3l-0.8-2.5l-1.5-3.7l-1.8-3.2V534
	c-0.2-0.5-0.3-0.8-0.7-1c-0.5-0.7-0.8-1.3-1.3-2c-0.8-1.2-1.5-2.2-2.3-3.3c-0.7-1-1.5-1.8-2.5-2.8l-3.7-4c-1-1.2-2.2-2-3.3-2.8
	c-1.5-1-3.2-2-4.7-2.8c-0.7-0.3-1.3-0.8-1.8-1.2c-0.5-0.3-0.8-0.5-1.2-0.7h-0.2c-2.2-1-4-1.8-6-2.5c-0.3-0.2-0.7-0.2-0.8-0.3l-2-0.7
	L296.5,612.9z"/>
<polygon fill="none" stroke="#FFFFFF" stroke-width="3" stroke-miterlimit="10" points="435.2,719.9 435.2,614.6 468.3,594.6 
	435.2,594.6 435.2,481.4 600.1,481.4 600.1,523.2 476.8,523.2 476.8,552.9 561.2,552.9 561.2,586.7 476.8,637.8 476.8,678.2 
	602.8,678.2 602.8,719.9 "/>
<polygon fill="none" stroke="#FFFFFF" stroke-width="3" stroke-miterlimit="10" points="449.4,705.7 449.4,622.6 519.1,580.4 
	449.4,580.4 449.4,495.6 585.9,495.6 585.9,509 462.6,509 462.6,567 547,567 547,578.7 466.8,627.3 462.6,629.8 462.6,692.5 
	588.6,692.5 588.6,705.7 "/>
<path fill="none" stroke="#FFFFFF" stroke-width="3" stroke-miterlimit="10" d="M807.7,719.7l-25-57.9l-34.5,58.1h-24.9L688.9,662
	l-25,57.9h-45.6l47.9-110.6l2.7-6.2l52.7-122h28.7l54.9,127.8l47.9,110.8H807.7L807.7,719.7z M735.6,660l26.7-45.1l-26.5-62.1
	l-26.9,61.9L735.6,660z"/>
<path fill="none" stroke="#FFFFFF" stroke-width="3" stroke-miterlimit="10" d="M817,705.7l-32.4-74.9l-44.6,74.9h-8.8l-44.4-74.9
	l-32.4,74.9H640l39.2-90.8l2.7-6.2l49.1-113.3h10l51.2,119.3l39.4,90.9H817z M693,615.8l42.6,71.9l42.6-71.8l-42.4-99L693,615.8z"/>
<polygon fill="none" stroke="#FFFFFF" stroke-width="3" stroke-miterlimit="10" points="868.6,719.9 868.6,561.5 804.8,522.8 
	791.7,522.8 791.7,481.3 987.9,481.3 986.4,523 884.9,523 896,529.7 910.3,538.5 910.3,719.9 "/>
<polygon fill="none" stroke="#FFFFFF" stroke-width="3" stroke-miterlimit="10" points="882.9,705.7 882.9,553.5 808.8,508.6 
	805.8,508.6 805.8,495.5 973.2,495.5 972.7,508.8 834,508.8 888.6,541.8 896.1,546.5 896.1,705.7 "/>
<path fill="none" stroke="#FFFFFF" stroke-width="3" stroke-miterlimit="10" d="M1085.7,721.7c-8,0-16-1-23.4-2.8
	c-7.2-1.8-14.2-4.3-21.2-7.7c-13.5-6.7-25.2-15.7-35-26.9c-10-11.2-17.9-24-23.2-38c-5.5-14.2-8.3-29.5-8.3-45.4
	c0-14.5,2.7-29.2,7.8-43.4v-0.2c5.5-14.2,12.8-27,22-38c9.5-11.5,21.4-20.9,35.2-28c14.2-7.3,29.7-11,46.1-11
	c15.5,0,30.7,3.3,44.9,10.2c6.7,3.2,13,6.8,18.9,11.2c6.2,4.5,11.8,10,16.9,16.2l3.8,4.7c7.7,9.3,14.2,20.5,19,33v0.2
	c5.3,14.7,8.2,29.9,8.2,45.1c0,15-2.7,29.9-7.8,43.9c-2.5,7.2-5.8,13.9-9.5,20.2s-8.2,12.3-13,18c-9.8,11-21.5,20.2-34.7,27
	c-13.9,7.3-29.4,11.2-46.2,11.5L1085.7,721.7z M1129.2,538.2c-1-0.8-2.2-1.7-3.2-2.5c-4-2.8-8.3-5.5-12.8-7.8l-0.2-0.2
	c-8.2-4.2-17.4-6.3-27.5-6.3c-9.7,0-18.5,2-26.5,6c-8.5,4.3-16,10.2-22.5,17.4l0,0c-6.3,7.3-11.5,16-15.2,25.7
	c-1.8,4.8-3.2,9.8-4,14.7c-0.8,5-1.3,10.2-1.3,15.4c0,10.2,1.7,20,5.2,29c1.8,5,4,9.8,6.5,14.4c2.3,4.2,5,8,8,11.5l0.2,0.2
	c3.2,3.7,6.5,7,10,9.8c3.5,2.8,7.7,5.5,12.3,7.8c4,2.2,8.3,3.7,12.8,4.8c1.2,0.2,2.2,0.5,3.3,0.7L1129.2,538.2z M1122.6,667.5
	c4.3-3.2,8.3-6.8,11.8-11c6.3-7.5,11.5-16.2,15.2-25.9c2-5,3.3-10,4.3-15c1-5,1.5-10.2,1.7-15.4c0.2-4.8-0.2-9.3-1-13.9
	L1122.6,667.5z"/>
<path fill="none" stroke="#FFFFFF" stroke-width="3" stroke-miterlimit="10" d="M1085.5,707.2c-7,0-13.7-0.8-19.7-2
	c-6.2-1.7-12.5-3.8-18.4-6.7c-11.8-5.8-22.2-13.7-30.7-23.5c-9-9.8-16-21.4-20.7-33.9c-4.8-12.5-7.3-26-7.3-40.2c0-13,2.3-26,7-38.5
	c4.8-12.8,11.5-24.4,19.7-34.2s18.5-18.2,30.7-24.4c12.2-6.3,25.4-9.5,39.5-9.5c13.4,0,26.4,3,38.7,8.8c5.8,2.8,11.3,6.2,16.5,9.8
	c5.2,3.8,10,8.3,14.2,13.7l3.8,4.7c6.7,8.2,12.3,18,16.7,29.2c4.8,13.2,7.3,26.7,7.3,40.2c0,13.4-2.3,26.5-7,38.9
	c-2.3,6.3-5.2,12.5-8.5,18c-3.3,5.5-7.2,10.8-11.5,15.9c-8.5,9.7-18.9,17.9-30.5,23.9C1113.4,703.5,1100,706.9,1085.5,707.2
	L1085.5,707.2z M1052.5,514.8c-10,5.2-19,12-26.7,20.5c-7.5,8.7-13.5,18.9-17.9,30.2c-2.3,5.8-3.8,11.7-4.8,17.4
	c-1,5.8-1.5,11.7-1.5,17.7c0,12,2,23.4,6,34c2.2,5.5,4.5,10.8,7.3,16c2.7,5,5.8,9.7,9.7,14c3.7,4.5,7.8,8.5,12,11.8
	c4.3,3.5,9.2,6.5,14.7,9.3c5,2.7,10.5,4.7,16,6c4.5,1.2,9.3,1.8,14.4,2h1.7l62.1-158.5l-0.8-1c-2.8-3.7-6.3-7-10.2-9.8
	c-4.5-3.5-9.7-6.5-14.9-9.2c-10-5.3-21.5-8-34-8C1073.7,507.3,1062.7,510,1052.5,514.8z M1154.3,547.7l-57.4,145.7l4.3-0.8
	c1.5-0.3,2.8-0.7,4.2-1c4.7-1.2,9.2-3,13.5-5.2c10-5.2,18.9-12,26.2-20.7c7.5-8.7,13.3-18.7,17.7-29.9c2.2-5.8,3.8-11.7,5-17.5
	c1-5.8,1.7-11.8,1.8-17.7c0.2-5.8-0.3-11.7-1.3-17.2s-2.7-11.2-4.7-16.7c-1.7-4.5-3.7-8.8-5.8-13c-0.2-0.5-0.5-1.2-0.8-1.7
	L1154.3,547.7z"/>
</svg>
