<?xml version="1.0" encoding="utf-8"?>
<?xml-stylesheet type="text/css" href="svg.css" ?>
<svg version="1.1" id="Слой_1" xmlns="http://www.w3.org/2000/svg" xmlns:xlink="http://www.w3.org/1999/xlink" x="0px" y="0px"
	 viewBox="0 0 719.1 148.5" style="enable-background:new 0 0 719.1 148.5;" xml:space="preserve">
<style type="text/css">
	.st0{fill:none;stroke:#FFFFFF;stroke-width:3;stroke-miterlimit:10;}
</style>
<path class="st0" d="M69,146.2c-8-0.1-16-1.7-23.4-4.7c-12.5-5-23.2-14-30.7-25.1c-7.4-10.8-12-23.5-13.1-36.5
	c-1.5-17,3-34.5,12.5-48.7c6.4-9.6,15.1-17.8,25.4-23.1c16.1-8.3,35.9-9.1,52.7-2.2s30.1,21.6,35.6,38.9c-7.7,2.7-15.4,5.5-23.1,8.2
	c-3.1-7.3-7.7-14.2-13.9-19.1S76.7,26,68.8,26.7c-10.9,25.5-21.7,51.1-32.6,76.6c8.4,12.2,23.6,18.6,38.3,17.5
	c14.3-1.1,29.4-13.3,32-27.3c8.2,2.1,15.8,4.1,23.9,6.2c-3.7,22.1-23.6,40-46.3,44.9C79.2,145.6,74.1,146.3,69,146.2z M33,47.9
	c-1.4,2.6-2.6,5.3-3.6,8.2c0,0-0.2,0.5-0.2,0.6L33,47.9z"/>
<path class="st0" d="M69,137.8c-1.3,0-2.7,0-4-0.1c-1.4-0.1-2.7-0.2-3.9-0.4H61c-0.9-0.2-1.8-0.3-2.7-0.5s-1.9-0.4-2.8-0.7
	c-0.9-0.3-1.9-0.5-2.8-0.8c-1-0.3-2-0.7-3-1.1h-0.1c-1.6-0.6-3.1-1.2-4.5-2l-0.1-0.1c-0.9-0.4-1.8-0.9-2.6-1.4s-1.5-1-2.3-1.5
	c-1.2-0.8-2.3-1.5-3.3-2.3c-1-0.7-2.1-1.6-3.2-2.5l-3.6-3.3c-1.2-1.1-2.4-2.3-3.5-3.5c-1.2-1.3-2.3-2.7-3.3-4.1
	c-0.9-1.4-1.9-2.8-2.7-4.1l-2.1-3.5c-0.9-1.5-1.7-3-2.4-4.5c-0.6-1.4-1.2-2.9-1.7-4.4C11.5,89.6,10,81.9,10,73.9
	c0-8.1,1.4-16.1,4.2-23.7c1.4-3.8,3.1-7.5,5-10.9c1.9-3.4,4.2-6.7,6.7-9.7c4.8-5.9,10.8-10.7,17.9-14.2c2.5-1.2,5-2.2,7.6-3.1
	s5.4-1.5,8.2-1.8l3.2-0.4c0.7-0.1,1.5-0.1,2.3-0.1h2c6.6,0,12.4,0.7,17.2,2.1c5.1,1.4,9.6,3.4,13.4,5.7c3.7,2.3,7.1,5.2,10.2,8.9
	c1.9,2.2,3.5,4.5,4.9,7l3.5,6.4l-7.4,2.6l-3.5-5.9c-1.1-2-2.4-3.7-3.8-5.2c-1.5-1.5-3-3-4.6-4.4c-0.9-0.8-1.9-1.5-2.8-2
	c-1-0.6-2.1-1.2-3.1-1.8c-1.1-0.6-2.2-1.1-3.2-1.5c-1-0.5-2.1-0.9-3.2-1.3c-0.8-0.3-1.5-0.6-2.2-0.7c-0.8-0.2-1.6-0.4-2.4-0.5
	c-4.3-0.9-8.6-1.3-12.8-1.3c-0.9,0-1.8,0-2.7,0.1l-1.2,0.1l-36.6,86l0.4,0.6c0.3,0.5,0.6,1,1,1.5c0.7,1,1.3,2,2,2.8
	c1.1,1.5,2.2,2.8,3.1,3.7l0.1,0.1c0.9,0.9,1.7,1.8,2.6,2.7c0.9,0.8,1.8,1.7,2.8,2.6s2.1,1.7,3.3,2.5l0.1,0.1c0.9,0.7,2,1.4,3.2,2.1
	c10.9,6.4,23.6,8.6,35.9,5.1c9.1-2.7,17.7-7.3,24.5-14.1c2.8-2.8,4.7-6.3,6-10.1c0,0,7.7,2,7.7,2c-1.1,3.3-2.4,6.5-4.4,9.3
	c-0.7,1-1.4,2-2.1,2.9c-9.8,12.6-25.8,18.7-41.4,19.6C70.7,137.8,69.9,137.8,69,137.8z M51.4,20.7c-1.6,0.6-3.1,1.3-4.6,2.1
	c-6,3.2-11.2,7.5-15.5,12.6c-4.3,5.3-7.6,11.3-9.8,18c-1.2,3.3-2.1,6.7-2.6,10.1c-0.5,3.4-0.8,6.9-0.8,10.4c0,6.2,0.9,12.2,2.8,17.8
	l1.2,3.5l32.6-75.8L51.4,20.7z"/>
<path class="st0" d="M222.1,146.3l-30.7-47.9H180l-20.3,47.7h-21.3V3.1h61c1,0,1.9,0.1,2.8,0.2l2.9,0.3c2.3,0.3,4.4,0.8,6.5,1.6
	c1.6,0.6,3.3,1.4,4.9,2.2l0.2,0.1c2.6,1.4,5,2.9,7.1,4.5c2.5,1.8,4.7,3.9,6.8,6.4l0.2,0.3c0.7,0.9,1.4,1.8,2.1,2.7
	c0.8,1.1,1.5,2.2,2.2,3.3c1.1,1.7,2,3.4,2.7,5c0.3,0.6,0.6,1.3,0.9,2c0.2,0.6,0.4,1.1,0.6,1.7c0.5,1.1,0.9,2.2,1.3,3.4
	c0.4,1.2,0.7,2.5,0.9,3.7c0.2,1,0.4,2,0.5,2.9l0.2,1.5c0.3,1.2,0.4,2.5,0.4,3.8v2.1c0,1.2,0,2.5-0.1,3.8c-0.1,1.7-0.3,3.5-0.7,5.2
	L241,65l-1,2.9l-0.7,1.9c-0.4,1.2-0.8,2.4-1.4,3.5c-0.1,0.3-0.3,0.5-0.4,0.8l-0.2,0.5l-0.1,0.1c-0.3,0.6-0.7,1.3-1.1,1.9l0,0
	l-0.5,0.9l-0.1,0.2c-0.4,0.7-0.9,1.4-1.4,2.1c-0.8,1.3-1.7,2.4-2.6,3.4l-2.8,3.1l-2.6,2.4c-1.2,1.1-2.5,2-3.8,2.9l-3.1,1.9
	c0,0-0.8,0.4-1,0.5l33.4,52.3H222.1L222.1,146.3z M163.5,74.2l19.6-46h-19.6V74.2z M199.4,73.5c0.7,0,1.4,0,2-0.1
	c0.8-0.1,1.6-0.3,2.4-0.4c0.9-0.3,1.7-0.6,2.5-1l1.4-0.8c0.8-0.5,1.6-1,2.4-1.6l0.2-0.2l2.5-2.8c0.5-0.5,0.7-0.9,0.9-1.1
	c0.5-0.9,1-1.8,1.6-2.7c0.4-0.8,0.8-1.7,1.1-2.8c0.3-1.2,0.7-2.4,1-3.5c0.2-0.6,0.3-1.2,0.3-1.9v-0.7l0.2-1v-2.1
	c0-1.3-0.1-2.5-0.3-3.7c-0.1-0.7-0.2-1.3-0.4-1.9c-0.2-0.6-0.3-1.2-0.6-1.8l-0.5-1.3l-0.6-1.4l-1.1-2l0,0c-0.2-0.3-0.5-0.7-0.7-1.1
	c-0.3-0.5-0.7-1-1-1.5c-0.2-0.2-0.4-0.5-0.7-0.8l-2.5-2.7c-0.1-0.1-0.1-0.1-0.1-0.1c-0.4-0.2-0.8-0.5-1.2-0.7l-17.7,41.8L199.4,73.5
	L199.4,73.5z"/>
<path class="st0" d="M226.6,137.6L196.1,90h-21.7l-20.3,47.7H147v-126h52.5c0.5,0,1.1,0,1.6,0.1l3.1,0.4c1.5,0.2,3,0.6,4.4,1.1
	s2.8,1.1,4.1,1.8c2.2,1.2,4.3,2.5,6.2,3.9s3.7,3.1,5.4,5v0.1c0.7,0.9,1.3,1.7,1.9,2.5c3.3,4.5,5.7,9.6,6.9,15.1
	c0.6,2.7,1,5.5,1.1,8.3c0,1.4,0,2.8-0.1,4.2c-0.2,3.3-0.8,6.6-1.8,9.8c-0.8,2.6-1.7,6.5-3.7,8.5c-0.1,0.1-0.2,0.3-0.3,0.6l-0.1,0.1
	c0,0-0.1,0.2-0.1,0.2c-4,7.9-12,13.1-20.2,15.8c-0.3,0.1-0.6,0.2-0.9,0.3l-1.9,0.5l30.7,48.1l-9-0.1L226.6,137.6z M155,115.7
	l12.4-28.9l1.5-3.4L196,19.7h-41V115.7z M177.7,82h21.7c1.1,0,2.2-0.1,3.2-0.2c1.1-0.2,2.1-0.3,3.2-0.6c1.7-0.5,3.3-1.1,4.7-1.9
	l1.6-0.9c0.9-0.6,1.8-1.1,2.7-1.7c0.7-0.5,1.4-1.1,2-1.8l2.4-2.7c0.7-0.8,1.3-1.6,1.8-2.4c0.6-0.9,1.1-1.9,1.7-2.9
	c0.7-1.3,1.4-2.8,1.9-4.5c0.4-1.3,0.7-2.6,1.1-3.9c0.3-1.1,0.5-2.3,0.5-3.5v-0.1v-0.2c0.1-0.6,0.2-1.2,0.2-1.7v-2.2
	c0-1.7-0.1-3.4-0.3-5c-0.2-1-0.3-1.9-0.6-2.8c-0.2-0.9-0.5-1.7-0.8-2.6l-0.5-1.5l-0.9-2.2l-1.1-1.9v-0.1c-0.1-0.3-0.2-0.5-0.4-0.6
	c-0.3-0.4-0.5-0.8-0.8-1.2c-0.5-0.7-0.9-1.3-1.4-2c-0.4-0.6-0.9-1.1-1.5-1.7l-2.2-2.4c-0.6-0.7-1.3-1.2-2-1.7
	c-0.9-0.6-1.9-1.2-2.8-1.7c-0.4-0.2-0.8-0.5-1.1-0.7s-0.5-0.3-0.7-0.4h-0.1c-1.3-0.6-2.4-1.1-3.6-1.5c-0.2-0.1-0.4-0.1-0.5-0.2
	l-1.2-0.4L177.7,82z"/>
<polygon class="st0" points="260.8,146.1 260.8,83 280.6,71 260.8,71 260.8,3.2 359.6,3.2 359.6,28.2 285.7,28.2 285.7,46 336.3,46 
	336.3,66.3 285.7,96.9 285.7,121.1 361.2,121.1 361.2,146.1 "/>
<polygon class="st0" points="269.3,137.6 269.3,87.8 311.1,62.5 269.3,62.5 269.3,11.7 351.1,11.7 351.1,19.7 277.2,19.7 
	277.2,54.5 327.8,54.5 327.8,61.5 279.7,90.6 277.2,92.1 277.2,129.7 352.7,129.7 352.7,137.6 "/>
<path class="st0" d="M484,146l-15-34.7l-20.7,34.8h-14.9l-20.6-34.7l-15,34.7h-27.3l28.7-66.3l1.6-3.7L432.4,3h17.2l32.9,76.6
	l28.7,66.4H484L484,146z M440.8,110.2l16-27L440.9,46l-16.1,37.1L440.8,110.2z"/>
<path class="st0" d="M489.6,137.6l-19.4-44.9l-26.7,44.9h-5.3l-26.6-44.9l-19.4,44.9h-8.7L407,83.2l1.6-3.7L438,11.6h6l30.7,71.5
	l23.6,54.5H489.6z M415.3,83.7l25.5,43.1l25.5-43l-25.4-59.3L415.3,83.7z"/>
<polygon class="st0" points="520.5,146.1 520.5,51.2 482.3,28 474.4,28 474.4,3.1 592,3.1 591.1,28.1 530.3,28.1 536.9,32.1 
	545.5,37.4 545.5,146.1 "/>
<polygon class="st0" points="529.1,137.6 529.1,46.4 484.7,19.5 482.9,19.5 482.9,11.6 583.2,11.6 582.9,19.6 499.8,19.6 
	532.5,39.4 537,42.2 537,137.6 "/>
<path class="st0" d="M650.6,147.2c-4.8,0-9.6-0.6-14-1.7c-4.3-1.1-8.5-2.6-12.7-4.6c-8.1-4-15.1-9.4-21-16.1
	c-6-6.7-10.7-14.4-13.9-22.8c-3.3-8.5-5-17.7-5-27.2c0-8.7,1.6-17.5,4.7-26v-0.1c3.3-8.5,7.7-16.2,13.2-22.8
	c5.7-6.9,12.8-12.5,21.1-16.8c8.5-4.4,17.8-6.6,27.6-6.6c9.3,0,18.4,2,26.9,6.1c4,1.9,7.8,4.1,11.3,6.7c3.7,2.7,7.1,6,10.1,9.7
	l2.3,2.8c4.6,5.6,8.5,12.3,11.4,19.8v0.1c3.2,8.8,4.9,17.9,4.9,27c0,9-1.6,17.9-4.7,26.3c-1.5,4.3-3.5,8.3-5.7,12.1
	s-4.9,7.4-7.8,10.8c-5.9,6.6-12.9,12.1-20.8,16.2c-8.3,4.4-17.6,6.7-27.7,6.9L650.6,147.2z M676.7,37.2c-0.6-0.5-1.3-1-1.9-1.5
	c-2.4-1.7-5-3.3-7.7-4.7l-0.1-0.1c-4.9-2.5-10.4-3.8-16.5-3.8c-5.8,0-11.1,1.2-15.9,3.6c-5.1,2.6-9.6,6.1-13.5,10.4l0,0
	c-3.8,4.4-6.9,9.6-9.1,15.4c-1.1,2.9-1.9,5.9-2.4,8.8c-0.5,3-0.8,6.1-0.8,9.2c0,6.1,1,12,3.1,17.4c1.1,3,2.4,5.9,3.9,8.6
	c1.4,2.5,3,4.8,4.8,6.9l0.1,0.1c1.9,2.2,3.9,4.2,6,5.9c2.1,1.7,4.6,3.3,7.4,4.7c2.4,1.3,5,2.2,7.7,2.9c0.7,0.1,1.3,0.3,2,0.4
	L676.7,37.2z M672.7,114.7c2.6-1.9,5-4.1,7.1-6.6c3.8-4.5,6.9-9.7,9.1-15.5c1.2-3,2-6,2.6-9s0.9-6.1,1-9.2c0.1-2.9-0.1-5.6-0.6-8.3
	L672.7,114.7z"/>
<path class="st0" d="M650.5,138.5c-4.2,0-8.2-0.5-11.8-1.2c-3.7-1-7.5-2.3-11-4c-7.1-3.5-13.3-8.2-18.4-14.1
	c-5.4-5.9-9.6-12.8-12.4-20.3c-2.9-7.5-4.4-15.6-4.4-24.1c0-7.8,1.4-15.6,4.2-23.1c2.9-7.7,6.9-14.6,11.8-20.5s11.1-10.9,18.4-14.6
	c7.3-3.8,15.2-5.7,23.7-5.7c8,0,15.8,1.8,23.2,5.3c3.5,1.7,6.8,3.7,9.9,5.9c3.1,2.3,6,5,8.5,8.2l2.3,2.8c4,4.9,7.4,10.8,10,17.5
	c2.9,7.9,4.4,16,4.4,24.1c0,8-1.4,15.9-4.2,23.3c-1.4,3.8-3.1,7.5-5.1,10.8s-4.3,6.5-6.9,9.5c-5.1,5.8-11.3,10.7-18.3,14.3
	C667.2,136.3,659.2,138.3,650.5,138.5L650.5,138.5z M630.7,23.2c-6,3.1-11.4,7.2-16,12.3c-4.5,5.2-8.1,11.3-10.7,18.1
	c-1.4,3.5-2.3,7-2.9,10.4c-0.6,3.5-0.9,7-0.9,10.6c0,7.2,1.2,14,3.6,20.4c1.3,3.3,2.7,6.5,4.4,9.6c1.6,3,3.5,5.8,5.8,8.4
	c2.2,2.7,4.7,5.1,7.2,7.1c2.6,2.1,5.5,3.9,8.8,5.6c3,1.6,6.3,2.8,9.6,3.6c2.7,0.7,5.6,1.1,8.6,1.2h1l37.2-95l-0.5-0.6
	c-1.7-2.2-3.8-4.2-6.1-5.9c-2.7-2.1-5.8-3.9-8.9-5.5c-6-3.2-12.9-4.8-20.4-4.8C643.4,18.7,636.8,20.3,630.7,23.2z M691.7,42.9
	l-34.4,87.3l2.6-0.5c0.9-0.2,1.7-0.4,2.5-0.6c2.8-0.7,5.5-1.8,8.1-3.1c6-3.1,11.3-7.2,15.7-12.4c4.5-5.2,8-11.2,10.6-17.9
	c1.3-3.5,2.3-7,3-10.5c0.6-3.5,1-7.1,1.1-10.6c0.1-3.5-0.2-7-0.8-10.3s-1.6-6.7-2.8-10c-1-2.7-2.2-5.3-3.5-7.8
	c-0.1-0.3-0.3-0.7-0.5-1L691.7,42.9z"/>
</svg>
