<?xml version="1.0" encoding="utf-8"?>
<!-- Generator: Adobe Illustrator 21.1.0, SVG Export Plug-In . SVG Version: 6.00 Build 0)  -->
<svg version="1.1" id="Слой_1" xmlns="http://www.w3.org/2000/svg" xmlns:xlink="http://www.w3.org/1999/xlink" x="0px" y="0px"
	 viewBox="0 0 1197.4 246.3" style="enable-background:new 0 0 1197.4 246.3;" xml:space="preserve">
<g>
	<g>
		<path style="fill:none;stroke:#FFFFFF;stroke-width:4;stroke-miterlimit:10;" d="M114.1,243.2C100.8,243,122.7,243.3,114.1,243.2
			C100.8,243,122.7,243.3,114.1,243.2C100.8,243,122.7,243.3,114.1,243.2c-13.4-0.2-26.7-2.8-39-7.8c-20.9-8.3-38.7-23.4-51.2-41.9
			c-12.3-18-20-39.2-21.9-60.9C-0.5,104.2,7,75,22.9,51.3c10.7-16,25.2-29.7,42.4-38.5C85,2.6,107.9-0.6,129.8,3.1
			c21.8,3.7,42.3,14.2,57.9,29.8c11.5,11.5,20.1,25.6,25,41.1c-12.5,4.4-24.9,8.9-37.4,13.3c-0.4,0.1-0.7,0.3-1.1,0.4
			c-0.1,0-1.1-2.5-1.2-2.7c-0.6-1.3-1.2-2.5-1.8-3.8c-1.2-2.4-2.6-4.7-4.1-7c-2.9-4.6-6.3-8.8-10-12.7c-7.9-8.1-17.7-14.4-28.8-16.9
			c-3.1-0.7-9.7-1.7-12.9-1.8c0,0-15.3,33.3-22.5,50.2c-5.1,12.1-10.3,24.2-15.4,36.2c-5.2,12.3-10.4,24.6-15.6,36.8
			c-0.8,1.8-1.6,3.7-2.4,5.5c1.4,1.9,2.8,3.7,4.3,5.5c0.2,0.3,0.4,0.5,0.7,0.8c0.6,0.6,1.1,1.2,1.7,1.8c3.5,3.6,7.4,6.8,11.6,9.5
			c13.4,8.7,29.7,12.8,45.6,11.6c23.9-1.8,49.1-22.2,53.4-45.6c13.7,3.5,26.4,6.8,39.9,10.3c-6.2,36.9-39.4,66.8-77.3,74.9
			C131.2,242.2,122.7,243.3,114.1,243.2z M54.1,79.1c-2.3,4.3-4.3,8.8-6,13.7c0,0-0.3,0.8-0.3,1L54.1,79.1z"/>
		<path style="fill:none;stroke:#FFFFFF;stroke-width:4;stroke-miterlimit:10;" d="M114.1,243.2C100.8,243,122.7,243.3,114.1,243.2
			C100.8,243,122.7,243.3,114.1,243.2C100.8,243,122.7,243.3,114.1,243.2c-13.4-0.2-26.7-2.8-39-7.8c-20.9-8.3-38.7-23.4-51.2-41.9
			c-12.3-18-20-39.2-21.9-60.9C-0.5,104.2,7,75,22.9,51.3c10.7-16,25.2-29.7,42.4-38.5C85,2.6,107.9-0.6,129.8,3.1
			c21.8,3.7,42.3,14.2,57.9,29.8c11.5,11.5,20.1,25.6,25,41.1c-12.5,4.4-24.9,8.9-37.4,13.3c-0.4,0.1-0.7,0.3-1.1,0.4
			c-0.1,0-1.1-2.5-1.2-2.7c-0.6-1.3-1.2-2.5-1.8-3.8c-1.2-2.4-2.6-4.7-4.1-7c-2.9-4.6-6.3-8.8-10-12.7c-7.9-8.1-17.7-14.4-28.8-16.9
			c-3.1-0.7-9.7-1.7-12.9-1.8c0,0-15.3,33.3-22.5,50.2c-5.1,12.1-10.3,24.2-15.4,36.2c-5.2,12.3-10.4,24.6-15.6,36.8
			c-0.8,1.8-1.6,3.7-2.4,5.5c1.4,1.9,2.8,3.7,4.3,5.5c0.2,0.3,0.4,0.5,0.7,0.8c0.6,0.6,1.1,1.2,1.7,1.8c3.5,3.6,7.4,6.8,11.6,9.5
			c13.4,8.7,29.7,12.8,45.6,11.6c23.9-1.8,49.1-22.2,53.4-45.6c13.7,3.5,26.4,6.8,39.9,10.3c-6.2,36.9-39.4,66.8-77.3,74.9
			C131.2,242.2,122.7,243.3,114.1,243.2z M54.1,79.1c-2.3,4.3-4.3,8.8-6,13.7c0,0-0.3,0.8-0.3,1L54.1,79.1z"/>
	</g>
	<g>
		<path style="fill:none;stroke:#FFFFFF;stroke-width:4;stroke-miterlimit:10;" d="M114.1,228.9c-66.3-2.1-111-71.9-94.9-136.2
			C28.6,55.4,60,23.7,97.9,17s79.8,13.9,95.1,49.2l-12.2,4.3c-13.1-27.7-45.4-45-75.7-40.4c-19.5,46.6-38.9,93.2-58.4,139.8
			c-0.6,1.4-1,4.3-1,4.3c0.1,1.3,0.8,2.5,1.5,3.6c14.9,23.8,43,38.8,71.1,37.8s55.1-17.9,68.2-42.7l12.4,3.1
			c-10.9,28.2-38.8,48.3-68.8,52.2C124.6,228.8,119.3,229,114.1,228.9z M84.8,33.7c-2.7,1-5.2,2.2-7.7,3.5
			c-10,5.3-18.7,12.5-25.9,21C44,67,38.5,77.1,34.8,88.2c-8.2,22.6-6.7,47.2,1,69.8c1.8-4.1,3.6-8.3,5.3-12.4
			c4.3-9.9,8.6-19.9,12.8-29.8c5.2-12.1,10.4-24.2,15.6-36.2C74,69.1,78.6,58.5,83.1,48c2.3-5.3,4.8-11.1,7.1-16.4l0,0L84.8,33.7z"
			/>
		<path style="fill:none;stroke:#FFFFFF;stroke-width:4;stroke-miterlimit:10;" d="M114.1,228.9c-66.3-2.1-111-71.9-94.9-136.2
			C28.6,55.4,60,23.7,97.9,17s79.8,13.9,95.1,49.2l-12.2,4.3c-13.1-27.7-45.4-45-75.7-40.4c-19.5,46.6-38.9,93.2-58.4,139.8
			c-0.6,1.4-1,4.3-1,4.3c0.1,1.3,0.8,2.5,1.5,3.6c14.9,23.8,43,38.8,71.1,37.8s55.1-17.9,68.2-42.7l12.4,3.1
			c-10.9,28.2-38.8,48.3-68.8,52.2C124.6,228.8,119.3,229,114.1,228.9z M84.8,33.7c-2.7,1-5.2,2.2-7.7,3.5
			c-10,5.3-18.7,12.5-25.9,21C44,67,38.5,77.1,34.8,88.2c-8.2,22.6-6.7,47.2,1,69.8c1.8-4.1,3.6-8.3,5.3-12.4
			c4.3-9.9,8.6-19.9,12.8-29.8c5.2-12.1,10.4-24.2,15.6-36.2C74,69.1,78.6,58.5,83.1,48c2.3-5.3,4.8-11.1,7.1-16.4l0,0L84.8,33.7z"
			/>
	</g>
	<g>
		<path style="fill:none;stroke:#FFFFFF;stroke-width:4;stroke-miterlimit:10;" d="M369.6,242.8l-51.2-80h-18.1l-34.1,80h-35.7V3.8
			h101.9c1.7,0,3.2,0.2,4.7,0.3c0,0,4.8,0.5,4.8,0.5c31.8,3.3,56.8,36.9,61.6,66.6c4.8,30.2-8,62.5-33,80.3l-5.2,3.2
			c0,0-1.3,0.7-1.7,0.8l55.7,87.4H369.6L369.6,242.8z M271.5,122.6l32.7-76.8h-32.7V122.6z M331.7,121.7c14,0,24.4-10.9,28.7-23.5
			c5.2-15.2,0.7-31.9-10.4-43.3c-0.8-0.8-1.5-1.6-2.3-2.2c-0.4-0.3-0.8-0.5-1.3-0.7l-29.5,69.8L331.7,121.7z"/>
		<path style="fill:none;stroke:#FFFFFF;stroke-width:4;stroke-miterlimit:10;" d="M369.6,242.8l-51.2-80h-18.1l-34.1,80h-35.7V3.8
			h101.9c1.7,0,3.2,0.2,4.7,0.3c0,0,4.8,0.5,4.8,0.5c31.8,3.3,56.8,36.9,61.6,66.6c4.8,30.2-8,62.5-33,80.3l-5.2,3.2
			c0,0-1.3,0.7-1.7,0.8l55.7,87.4H369.6L369.6,242.8z M271.5,122.6l32.7-76.8h-32.7V122.6z M331.7,121.7c14,0,24.4-10.9,28.7-23.5
			c5.2-15.2,0.7-31.9-10.4-43.3c-0.8-0.8-1.5-1.6-2.3-2.2c-0.4-0.3-0.8-0.5-1.3-0.7l-29.5,69.8L331.7,121.7z"/>
	</g>
	<g>
		<path style="fill:none;stroke:#FFFFFF;stroke-width:4;stroke-miterlimit:10;" d="M377,228.6c0,0-7.2-11.6-10.6-16.9
			c-3.7-5.7-7.4-11.5-11.1-17.2c-2.4-3.8-4.9-7.6-7.3-11.4c-0.1-0.2-0.6-0.7-0.6-0.9c-5.3-8.2-10.5-16.4-15.8-24.6
			c-1.9-3-3.8-5.9-5.7-8.9h-35.5l-34.1,80h-11.9v-210h87.1c0.8,0,1.8,0,2.7,0.2c0,0,5.2,0.7,5.2,0.7c28.7,4.7,48.7,34,50,61.8
			c1.4,29-15.9,57.1-43.8,66.1c-0.5,0.2-1,0.3-1.5,0.5l-3.2,0.8l50.9,79.9C386.9,228.7,382,228.7,377,228.6L377,228.6z M257.5,192
			l20.7-48.2l2.5-5.7l45.2-106.3h-68.4V192z M295.5,135.8c10.1,0,20.1,0,30.2,0c4.8,0,9.4,0.1,14.1-0.9c5.1-1.1,10.1-3.1,14.5-6
			c14.1-8.9,22.4-25.9,22.7-42.3c0.1-8.2-1.4-16.5-4.7-24.1c-2.2-5-5-9.7-8.5-14c-1.3-1.6-2.8-3.2-4.3-4.6
			c-3.1-2.9-6.5-5.3-10.2-7.3c-2.3-1.2-4.7-2.2-7.2-3.1c-0.3-0.2-0.7-0.2-0.8-0.3l-2-0.7C339.3,32.7,295.5,135.8,295.5,135.8z"/>
		<path style="fill:none;stroke:#FFFFFF;stroke-width:4;stroke-miterlimit:10;" d="M377,228.6c0,0-7.2-11.6-10.6-16.9
			c-3.7-5.7-7.4-11.5-11.1-17.2c-2.4-3.8-4.9-7.6-7.3-11.4c-0.1-0.2-0.6-0.7-0.6-0.9c-5.3-8.2-10.5-16.4-15.8-24.6
			c-1.9-3-3.8-5.9-5.7-8.9h-35.5l-34.1,80h-11.9v-210h87.1c0.8,0,1.8,0,2.7,0.2c0,0,5.2,0.7,5.2,0.7c28.7,4.7,48.7,34,50,61.8
			c1.4,29-15.9,57.1-43.8,66.1c-0.5,0.2-1,0.3-1.5,0.5l-3.2,0.8l50.9,79.9C386.9,228.7,382,228.7,377,228.6L377,228.6z M257.5,192
			l20.7-48.2l2.5-5.7l45.2-106.3h-68.4V192z M295.5,135.8c10.1,0,20.1,0,30.2,0c4.8,0,9.4,0.1,14.1-0.9c5.1-1.1,10.1-3.1,14.5-6
			c14.1-8.9,22.4-25.9,22.7-42.3c0.1-8.2-1.4-16.5-4.7-24.1c-2.2-5-5-9.7-8.5-14c-1.3-1.6-2.8-3.2-4.3-4.6
			c-3.1-2.9-6.5-5.3-10.2-7.3c-2.3-1.2-4.7-2.2-7.2-3.1c-0.3-0.2-0.7-0.2-0.8-0.3l-2-0.7C339.3,32.7,295.5,135.8,295.5,135.8z"/>
	</g>
	<g>
		<polygon style="fill:none;stroke:#FFFFFF;stroke-width:4;stroke-miterlimit:10;" points="433.5,242.8 433.5,137.8 466.5,117.8 
			433.5,117.8 433.5,4.8 598.5,4.8 598.5,46.8 475.5,46.8 475.5,75.8 559.5,75.8 559.5,109.5 475.5,160.5 475.5,200.8 601.5,200.8 
			601.5,242.8 		"/>
		<polygon style="fill:none;stroke:#FFFFFF;stroke-width:4;stroke-miterlimit:10;" points="433.5,242.8 433.5,137.8 466.5,117.8 
			433.5,117.8 433.5,4.8 598.5,4.8 598.5,46.8 475.5,46.8 475.5,75.8 559.5,75.8 559.5,109.5 475.5,160.5 475.5,200.8 601.5,200.8 
			601.5,242.8 		"/>
	</g>
	<g>
		<polygon style="fill:none;stroke:#FFFFFF;stroke-width:4;stroke-miterlimit:10;" points="448.5,228.8 448.5,146.1 518.4,103.8 
			448.5,103.8 448.5,18.8 584.5,18.8 584.5,31.8 461.5,31.8 461.5,89.8 545.5,89.8 545.5,101.5 465.7,150.3 461.5,152.9 
			461.5,215.8 587.5,215.8 587.5,228.8 		"/>
		<polygon style="fill:none;stroke:#FFFFFF;stroke-width:4;stroke-miterlimit:10;" points="448.5,228.8 448.5,146.1 518.4,103.8 
			448.5,103.8 448.5,18.8 584.5,18.8 584.5,31.8 461.5,31.8 461.5,89.8 545.5,89.8 545.5,101.5 465.7,150.3 461.5,152.9 
			461.5,215.8 587.5,215.8 587.5,228.8 		"/>
	</g>
	<g>
		<path style="fill:none;stroke:#FFFFFF;stroke-width:4;stroke-miterlimit:10;" d="M806.7,242.8l-25-57.9l-34.5,58.9h-24.6
			L688,185.6l-25.1,58.2H617l48.1-111.2l2.7-6.2l53-122.6h28.4l55,128l48,111H806.7L806.7,242.8z M734.6,183.1l26.7-45.1l-26.5-62.1
			l-26.9,61.9L734.6,183.1z"/>
		<path style="fill:none;stroke:#FFFFFF;stroke-width:4;stroke-miterlimit:10;" d="M806.7,242.8l-25-57.9l-34.5,58.9h-24.6
			L688,185.6l-25.1,58.2H617l48.1-111.2l2.7-6.2l53-122.6h28.4l55,128l48,111H806.7L806.7,242.8z M734.6,183.1l26.7-45.1l-26.5-62.1
			l-26.9,61.9L734.6,183.1z"/>
	</g>
	<g>
		<path style="fill:none;stroke:#FFFFFF;stroke-width:4;stroke-miterlimit:10;" d="M816,227.8L816,227.8l-32.6-73.9l0,0l1.4,3
			l-0.7-1.7l-0.7-1.4c0,0-44.6,74.9-44.6,74.9h-8.9L685.6,154l-32.4,74.8h-14.2l39.1-90.7l2.7-6.2l49-113.1h10.3l50.9,118.6
			c0,0,39.2,90.4,39.2,90.4H816z M692,138.9l42.6,71.9l42.6-71.8l-42.4-99L692,138.9z"/>
		<path style="fill:none;stroke:#FFFFFF;stroke-width:4;stroke-miterlimit:10;" d="M816,227.8L816,227.8l-32.6-73.9l0,0l1.4,3
			l-0.7-1.7l-0.7-1.4c0,0-44.6,74.9-44.6,74.9h-8.9L685.6,154l-32.4,74.8h-14.2l39.1-90.7l2.7-6.2l49-113.1h10.3l50.9,118.6
			c0,0,39.2,90.4,39.2,90.4H816z M692,138.9l42.6,71.9l42.6-71.8l-42.4-99L692,138.9z"/>
	</g>
	<g>
		<polygon style="fill:none;stroke:#FFFFFF;stroke-width:4;stroke-miterlimit:10;" points="867.5,242.8 867.5,84.5 803.6,45.8 
			790.5,45.8 790.5,3.8 988.1,3.8 986.6,45.8 883.9,45.8 895.1,52.5 909.5,61.3 909.5,242.8 		"/>
		<polygon style="fill:none;stroke:#FFFFFF;stroke-width:4;stroke-miterlimit:10;" points="867.5,242.8 867.5,84.5 803.6,45.8 
			790.5,45.8 790.5,3.8 988.1,3.8 986.6,45.8 883.9,45.8 895.1,52.5 909.5,61.3 909.5,242.8 		"/>
	</g>
	<g>
		<polygon style="fill:none;stroke:#FFFFFF;stroke-width:4;stroke-miterlimit:10;" points="882.5,228.8 882.5,76.7 807.5,31.8 
			804.5,31.8 804.5,18.8 971.9,18.8 971.4,31.8 834.3,31.8 888.1,64.8 895.5,69.5 895.5,228.8 		"/>
		<polygon style="fill:none;stroke:#FFFFFF;stroke-width:4;stroke-miterlimit:10;" points="882.5,228.8 882.5,76.7 807.5,31.8 
			804.5,31.8 804.5,18.8 971.9,18.8 971.4,31.8 834.3,31.8 888.1,64.8 895.5,69.5 895.5,228.8 		"/>
	</g>
	<g>
		<path style="fill:none;stroke:#FFFFFF;stroke-width:4;stroke-miterlimit:10;" d="M1085,244.8c-8,0-16-1-23.4-2.8
			c-7.2-1.8-14.2-4.3-21.2-7.7c-13.5-6.7-25.2-15.7-35-26.9c-10-11.2-17.9-24-23.2-38c-8.8-22.8-10.2-47.8-5.2-71.6
			c1.1-5.3,2.5-10.5,4.2-15.6c1.6-5,3.9-9.8,6.2-14.4c4.5-9,10-17.6,16.4-25.4c9.5-11.5,21.4-20.9,35.2-28
			c18.6-9.7,40.2-12.8,60.9-9.8c20.9,3.1,41.5,12.3,57,26.9c3.1,2.9,6.1,6.1,8.8,9.5l3.8,4.7c7.7,9.3,14.2,20.5,19,33v0.2
			c6.3,17.3,8.8,35.9,7.4,54.2c-1.4,17.9-6.5,35.6-15.1,51.4c-8.7,16-20.9,29.9-35.8,40.4c-8.1,5.7-16.9,10.5-26.3,13.8
			c-10.7,3.8-22.1,5.7-33.4,5.9L1085,244.8z M1128.2,61.3c-1-0.8-2.2-1.7-3.2-2.5c-4-2.8-8.3-5.5-12.8-7.8l-0.2-0.2
			c-9.1-4.6-19.2-6.8-29.4-6.3c-9.9,0.5-19.6,3.5-28.2,8.2c-7.1,3.9-13.5,9.1-19,15.1c-13.3,15.4-20.4,35.4-20.3,55.7
			c0.1,19.5,6.6,40,19.4,54.9l0.2,0.2c3.2,3.7,6.5,7,10,9.8s7.7,5.5,12.3,7.8c4,2.2,8.3,3.7,12.8,4.8c1.2,0.2,2.2,0.5,3.3,0.7
			L1128.2,61.3z M1121.6,190.6c4.3-3.2,8.3-6.8,11.8-11c6.3-7.5,11.5-16.2,15.2-25.9c5.5-13.8,7.7-29.5,5-44.2
			c-2.4,6-4.8,12-7.1,18.1c-4.7,11.9-9.4,23.8-14.1,35.7c-3.4,8.6-6.8,17.1-10.1,25.7C1122,189.5,1121.8,190.1,1121.6,190.6z"/>
		<path style="fill:none;stroke:#FFFFFF;stroke-width:4;stroke-miterlimit:10;" d="M1085,244.8c-8,0-16-1-23.4-2.8
			c-7.2-1.8-14.2-4.3-21.2-7.7c-13.5-6.7-25.2-15.7-35-26.9c-10-11.2-17.9-24-23.2-38c-8.8-22.8-10.2-47.8-5.2-71.6
			c1.1-5.3,2.5-10.5,4.2-15.6c1.6-5,3.9-9.8,6.2-14.4c4.5-9,10-17.6,16.4-25.4c9.5-11.5,21.4-20.9,35.2-28
			c18.6-9.7,40.2-12.8,60.9-9.8c20.9,3.1,41.5,12.3,57,26.9c3.1,2.9,6.1,6.1,8.8,9.5l3.8,4.7c7.7,9.3,14.2,20.5,19,33v0.2
			c6.3,17.3,8.8,35.9,7.4,54.2c-1.4,17.9-6.5,35.6-15.1,51.4c-8.7,16-20.9,29.9-35.8,40.4c-8.1,5.7-16.9,10.5-26.3,13.8
			c-10.7,3.8-22.1,5.7-33.4,5.9L1085,244.8z M1128.2,61.3c-1-0.8-2.2-1.7-3.2-2.5c-4-2.8-8.3-5.5-12.8-7.8l-0.2-0.2
			c-9.1-4.6-19.2-6.8-29.4-6.3c-9.9,0.5-19.6,3.5-28.2,8.2c-7.1,3.9-13.5,9.1-19,15.1c-13.3,15.4-20.4,35.4-20.3,55.7
			c0.1,19.5,6.6,40,19.4,54.9l0.2,0.2c3.2,3.7,6.5,7,10,9.8s7.7,5.5,12.3,7.8c4,2.2,8.3,3.7,12.8,4.8c1.2,0.2,2.2,0.5,3.3,0.7
			L1128.2,61.3z M1121.6,190.6c4.3-3.2,8.3-6.8,11.8-11c6.3-7.5,11.5-16.2,15.2-25.9c5.5-13.8,7.7-29.5,5-44.2
			c-2.4,6-4.8,12-7.1,18.1c-4.7,11.9-9.4,23.8-14.1,35.7c-3.4,8.6-6.8,17.1-10.1,25.7C1122,189.5,1121.8,190.1,1121.6,190.6z"/>
	</g>
	<g>
		<path style="fill:none;stroke:#FFFFFF;stroke-width:4;stroke-miterlimit:10;" d="M1084.5,230.3c-7,0-13.7-0.8-19.7-2
			c-6.2-1.7-12.5-3.8-18.4-6.7c-11.8-5.8-22.2-13.7-30.7-23.5c-9-9.8-16-21.4-20.7-33.9c-7.2-18.7-9-39.3-5.5-59
			c3.4-19.7,11.9-38.5,24.8-53.7c12.9-15.3,30-26.5,49.6-31.1c18.9-4.4,38.8-2.5,56.7,5c12.9,5.4,24.9,13.4,33.5,24.4l3.8,4.7
			c6.7,8.2,12.3,18,16.7,29.2c6.3,17.1,8.3,35.7,6.1,53.7c-2.2,17.7-8.5,35-18.6,49.8c-10.5,15.3-25.1,27.8-42,35.4
			C1108.9,227.5,1096.8,230,1084.5,230.3L1084.5,230.3z M1051.5,37.9c0.7-0.4,1.4-0.7,2.1-1.1c-27.7,14-46.8,41.4-51.6,71.9
			c-3.7,23.3,1.1,48,13.8,67.9c14.1,22.2,38.3,39.2,64.8,40.2h1.7l62.1-158.5l-0.8-1c-2.8-3.7-6.3-7-10.2-9.8
			c-24.6-17.7-56.1-23.7-83.9-9c1.3-0.6,2.7-1.1,4-1.7c-1.4,0.7-2.7,1.4-4.1,2.1c1.4-0.7,2.8-1.4,4.2-2.1c-1.4,0.7-2.7,1.3-4.1,2
			C1050.3,38.5,1050.9,38.2,1051.5,37.9z M1153.3,70.8l-57.4,145.7c0,0,4.3-0.8,4.3-0.8c27.2-5.4,50.1-29,60.6-54
			c5.8-13.9,8.1-29,6.9-44C1166.5,100.8,1162.1,85.3,1153.3,70.8z"/>
		<path style="fill:none;stroke:#FFFFFF;stroke-width:4;stroke-miterlimit:10;" d="M1084.5,230.3c-7,0-13.7-0.8-19.7-2
			c-6.2-1.7-12.5-3.8-18.4-6.7c-11.8-5.8-22.2-13.7-30.7-23.5c-9-9.8-16-21.4-20.7-33.9c-7.2-18.7-9-39.3-5.5-59
			c3.4-19.7,11.9-38.5,24.8-53.7c12.9-15.3,30-26.5,49.6-31.1c18.9-4.4,38.8-2.5,56.7,5c12.9,5.4,24.9,13.4,33.5,24.4l3.8,4.7
			c6.7,8.2,12.3,18,16.7,29.2c6.3,17.1,8.3,35.7,6.1,53.7c-2.2,17.7-8.5,35-18.6,49.8c-10.5,15.3-25.1,27.8-42,35.4
			C1108.9,227.5,1096.8,230,1084.5,230.3L1084.5,230.3z M1051.5,37.9c0.7-0.4,1.4-0.7,2.1-1.1c-27.7,14-46.8,41.4-51.6,71.9
			c-3.7,23.3,1.1,48,13.8,67.9c14.1,22.2,38.3,39.2,64.8,40.2h1.7l62.1-158.5l-0.8-1c-2.8-3.7-6.3-7-10.2-9.8
			c-24.6-17.7-56.1-23.7-83.9-9c1.3-0.6,2.7-1.1,4-1.7c-1.4,0.7-2.7,1.4-4.1,2.1c1.4-0.7,2.8-1.4,4.2-2.1c-1.4,0.7-2.7,1.3-4.1,2
			C1050.3,38.5,1050.9,38.2,1051.5,37.9z M1153.3,70.8l-57.4,145.7c0,0,4.3-0.8,4.3-0.8c27.2-5.4,50.1-29,60.6-54
			c5.8-13.9,8.1-29,6.9-44C1166.5,100.8,1162.1,85.3,1153.3,70.8z"/>
	</g>
</g>
</svg>
