<?xml version="1.0" encoding="utf-8"?>
<!-- Generator: Adobe Illustrator 18.0.0, SVG Export Plug-In . SVG Version: 6.00 Build 0)  -->
<!DOCTYPE svg PUBLIC "-//W3C//DTD SVG 1.1//EN" "http://www.w3.org/Graphics/SVG/1.1/DTD/svg11.dtd">
<svg version="1.1" id="Слой_1" xmlns="http://www.w3.org/2000/svg" xmlns:xlink="http://www.w3.org/1999/xlink" x="0px" y="0px"
	 viewBox="0 0 631.4 136.8" enable-background="new 0 0 631.4 136.8" xml:space="preserve">
<path fill="none" stroke="#FFFFFF" stroke-width="1.5" stroke-miterlimit="10" d="M63.1,135.3c-1.4,0-2.8,0-4.2-0.1
	c-1.5-0.1-2.9-0.2-4.2-0.4l-0.2,0c-1-0.2-1.8-0.3-2.7-0.5c-1-0.2-2-0.4-3-0.7c-0.9-0.3-1.9-0.5-2.9-0.8c-1.2-0.3-2.3-0.8-3.4-1.2
	c-1.7-0.6-3.4-1.4-4.9-2.2c-1-0.5-2-1-2.9-1.6c-0.7-0.5-1.5-0.9-2.3-1.4l-0.1-0.1c-1.2-0.8-2.3-1.6-3.4-2.3
	c-1.1-0.8-2.3-1.7-3.4-2.7l-0.2-0.1l-3.5-3.3c-1.3-1.2-2.5-2.4-3.6-3.7c-1.3-1.4-2.5-2.9-3.6-4.5c-0.9-1.4-1.9-2.8-2.8-4.2l-2.1-3.5
	c-1-1.6-1.9-3.3-2.6-5c-0.6-1.4-1.2-2.9-1.7-4.4c-3-7.8-4.5-15.9-4.5-24.3c0-8.5,1.5-16.9,4.4-24.9c1.5-4,3.3-7.8,5.3-11.4
	c2-3.6,4.4-7,7.1-10.2c5.1-6.2,11.5-11.3,19-15.1c2.6-1.3,5.3-2.4,8-3.3c2.8-0.9,5.8-1.6,8.8-2l3.2-0.4c0.8-0.1,1.8-0.2,2.7-0.2h2
	c6.9,0,13,0.7,18.1,2.2c5.4,1.5,10.1,3.6,14.2,6c4,2.5,7.7,5.7,11,9.6c2,2.3,3.8,4.9,5.3,7.6l5.4,9.9l-13.8,4.8l-4.9-8.3
	c-1-1.8-2.1-3.3-3.4-4.6c-1.4-1.5-2.9-2.9-4.4-4.1c-0.8-0.7-1.6-1.2-2.3-1.7c-1-0.6-2-1.1-3-1.7c-1-0.5-2-1-3-1.4
	c-1-0.4-2-0.8-3-1.2l-0.2-0.1c-0.6-0.2-1.2-0.4-1.8-0.6c-0.7-0.2-1.4-0.3-2.2-0.5c-4.2-0.8-8.2-1.3-12.1-1.3c-0.6,0-1.1,0-1.6,0
	L24.5,97.9c0.1,0.2,0.2,0.4,0.4,0.5c0.7,1,1.3,1.9,1.9,2.8c1,1.3,2,2.5,2.7,3.3l0.1,0.1l0.1,0.1c0.8,0.9,1.6,1.7,2.4,2.5
	c0.8,0.8,1.7,1.7,2.7,2.5c0.9,0.8,1.9,1.5,2.9,2.2l0.1,0.1l0.1,0.1c0.8,0.6,1.8,1.2,2.8,1.8l4.2,2.4l1.9,0.9c3.3,1.5,7,2.5,10.9,2.9
	c1.8,0.2,3.6,0.3,5.5,0.3c1.6,0,3.3-0.1,5-0.4c1.8-0.3,3.7-0.7,5.6-1.3c1-0.3,2-0.6,3-0.9c0.5-0.1,1-0.3,1.5-0.6l0.3-0.2l0.3-0.1
	c2.1-0.7,4.3-1.8,6.7-3.2l0.2-0.1c1.6-0.8,3.1-1.7,4.5-2.7c1.4-0.9,2.7-1.9,3.8-3l1.9-1.6l1-1c0.2-0.2,0.4-0.5,0.6-0.7l0.1-0.1
	l0.1-0.1c0.9-1,1.7-2,2.2-2.9c0.6-0.9,1-1.9,1.4-2.9l1.7-4.9l14.3,3.7l-2,5.8c-1.1,3-2.4,5.6-4,7.8c-0.7,1-1.4,2.1-2.2,3
	c-0.8,1-1.7,2.1-2.8,3.1c-1.3,1.3-2.6,2.5-3.9,3.6c-1.4,1.2-2.9,2.3-4.5,3.3c-0.7,0.5-1.5,1-2.3,1.5c-0.8,0.5-1.5,0.9-2.3,1.4
	c-1,0.6-2.1,1.2-3.2,1.8c-1,0.5-1.9,0.9-2.8,1.3c-3.3,1.5-6.4,2.6-9.3,3.3C72.7,134.6,67.7,135.3,63.1,135.3z M42.2,20.1
	c-5.4,3-10.2,6.9-14.2,11.6c-4,4.9-7.1,10.6-9.2,16.9c-1.1,3.2-2,6.4-2.5,9.5c-0.5,3.2-0.8,6.5-0.8,9.9c0,3.9,0.4,7.7,1.2,11.4
	L42.2,20.1z"/>
<path fill="none" stroke="#FFFFFF" stroke-width="1.5" stroke-miterlimit="10" d="M63.1,130.5c-1.3,0-2.6,0-4-0.1
	c-1.3-0.1-2.6-0.2-3.8-0.4c-0.9-0.2-1.8-0.3-2.7-0.5c-0.9-0.2-1.8-0.4-2.7-0.6c-0.9-0.2-1.8-0.5-2.8-0.8c-1-0.3-2-0.7-2.9-1.1
	c-1.6-0.6-3.1-1.2-4.5-2c-0.9-0.4-1.7-0.9-2.5-1.4c-0.8-0.5-1.6-1-2.4-1.5c-1.2-0.7-2.2-1.5-3.2-2.2c-1-0.7-2-1.5-3.1-2.4l-3.5-3.3
	c-1.2-1.1-2.3-2.3-3.4-3.4c-1.2-1.2-2.2-2.6-3.1-3.9c-0.9-1.3-1.8-2.7-2.7-4.1l-2.1-3.5c-0.9-1.4-1.7-2.9-2.3-4.3
	c-0.6-1.4-1.1-2.8-1.7-4.3C7,83.4,5.6,75.8,5.6,68c0-7.9,1.4-15.8,4.1-23.2c1.4-3.7,3.1-7.3,4.9-10.7c1.9-3.4,4.1-6.5,6.6-9.4
	c4.7-5.7,10.6-10.4,17.5-13.9c2.4-1.2,4.9-2.2,7.4-3c2.5-0.8,5.2-1.4,7.9-1.8l3.2-0.4c0.7-0.1,1.4-0.1,2.1-0.1h2
	c6.5,0,12.1,0.7,16.8,2c4.9,1.4,9.3,3.3,13,5.5c3.6,2.2,6.9,5.1,9.8,8.6c1.8,2.1,3.4,4.4,4.7,6.8l2.7,4.9l-4.8,1.7l-2.9-4.9
	c-1.2-2.1-2.5-3.9-4-5.5c-1.5-1.6-3.1-3.1-4.7-4.4c-1-0.9-2-1.6-3-2.2c-1.1-0.6-2.1-1.2-3.2-1.8c-1.2-0.6-2.2-1.1-3.3-1.6
	c-1.1-0.5-2.2-0.9-3.3-1.3c-0.8-0.3-1.6-0.6-2.4-0.8c-0.8-0.2-1.6-0.4-2.5-0.5c-4.4-0.9-8.8-1.3-13-1.3c-1,0-1.9,0-2.8,0.1
	c-0.7,0-1.4,0.1-2.1,0.1L19.1,98.3c0.6,1,1.2,1.9,1.8,2.8c0.7,1,1.4,2,2,2.9c1.2,1.6,2.3,2.9,3.2,3.8c0.9,1,1.8,1.9,2.7,2.8
	c0.9,0.9,1.8,1.7,2.8,2.6c1.1,0.9,2.3,1.8,3.4,2.6c1,0.7,2.1,1.5,3.4,2.2l4.4,2.5l2,1c3.8,1.8,8,2.9,12.4,3.4c1.9,0.2,3.9,0.4,6,0.4
	c1.8,0,3.8-0.2,5.8-0.5c2-0.3,4.1-0.8,6.3-1.5c0.9-0.3,1.9-0.6,2.8-0.9c0.8-0.2,1.6-0.5,2.4-0.9l0.1,0l0.1,0c2.3-0.8,4.8-2,7.4-3.5
	c1.7-0.9,3.3-1.9,4.9-2.9c1.5-1,3-2.2,4.4-3.4l2-1.7l1.1-1.1c0.3-0.3,0.7-0.7,1-1.1c1.1-1.2,2.1-2.5,2.8-3.7
	c0.7-1.2,1.3-2.5,1.8-3.8l0.3-0.7l4.9,1.3l-0.3,0.9c-0.9,2.6-2.1,4.9-3.4,6.6c-0.6,1-1.3,1.9-2,2.8c-0.7,0.9-1.5,1.8-2.4,2.7
	c-1.2,1.2-2.4,2.3-3.6,3.3c-1.2,1-2.6,2-4,3c-0.7,0.5-1.5,1-2.2,1.4c-0.7,0.5-1.5,0.9-2.2,1.3c-0.9,0.6-1.8,1.1-2.8,1.6
	c-0.9,0.5-1.9,0.9-2.8,1.3c-3,1.3-5.8,2.3-8.5,2.9C72,129.8,67.3,130.5,63.1,130.5z M51,11.7c-3.7,0.8-7.3,2.1-10.8,3.9
	c-6.1,3.3-11.5,7.7-16,13c-4.4,5.4-7.8,11.6-10.1,18.5c-1.2,3.4-2.1,6.9-2.7,10.3c-0.6,3.4-0.8,7-0.8,10.6c0,7.7,1.4,14.9,4.1,21.6
	c0.3,0.8,0.7,1.6,1,2.4c0.1,0.3,0.2,0.5,0.3,0.8L51,11.7z"/>
<path fill="none" stroke="#FFFFFF" stroke-width="1.5" stroke-miterlimit="10" d="M200.9,135.2l-30.5-47.7h-17.5l-20.3,47.7h-12.8
	V2.4h55.9c0.7,0,1.5,0.1,2.2,0.2l2.9,0.3c1.8,0.2,3.6,0.7,5.3,1.3c1.5,0.6,3,1.2,4.4,2l0.1,0.1c2.3,1.3,4.5,2.7,6.5,4.1
	c2.1,1.6,4.1,3.4,6,5.6l0.1,0.1c0.7,0.9,1.4,1.8,2,2.6c0.7,0.9,1.4,1.9,2,2.9c0.9,1.5,1.7,3,2.4,4.4c0.3,0.6,0.6,1.2,0.8,1.8
	c0.2,0.6,0.4,1.1,0.6,1.6c0.4,1,0.8,2,1.1,3c0.3,1.1,0.6,2.2,0.8,3.3c0.2,0.8,0.3,1.6,0.4,2.4l0.2,1.7c0.2,0.9,0.3,2,0.3,3v2.1
	c0,1.2,0,2.4-0.1,3.6c-0.1,1.4-0.2,2.9-0.5,4.4l-1.1,4.9l-0.9,2.6l-0.8,2c-0.3,1-0.6,1.9-1.1,2.7c-0.2,0.4-0.4,0.8-0.6,1.2l-0.1,0.1
	l-0.1,0.1c-0.3,0.6-0.7,1.2-1.1,1.8l-0.2,0.4l-0.2,0.4c-0.4,0.7-0.9,1.4-1.3,2.1c-0.6,1-1.3,1.9-2.1,2.6l-2.6,2.9l-2.4,2.2
	c-1,0.9-2,1.7-3.2,2.4l-2.8,1.7l-0.2,0.1c-0.8,0.4-1.5,0.7-2.1,1c-0.7,0.3-1.5,0.7-2.3,1c-0.5,0.2-1,0.4-1.5,0.5l31.6,49.5H200.9z
	 M134.5,93.3l5.8-13.6l1.5-3.4L167,17.3h-32.5V93.3z M175.6,72.7c0.9,0,1.9-0.1,2.7-0.2c1-0.1,2-0.3,2.9-0.5
	c1.3-0.4,2.6-0.9,3.8-1.5l1.5-0.9c0.8-0.5,1.7-1.1,2.6-1.7c0.5-0.3,0.9-0.7,1.2-1.1l0.2-0.2l2.3-2.6c0.6-0.6,1.1-1.3,1.4-1.9
	c0.5-0.9,1.1-1.8,1.6-2.7c0.6-1.1,1.1-2.4,1.6-3.8c0.4-1.3,0.7-2.5,1-3.7c0.2-0.9,0.4-1.9,0.4-2.8l0-0.4l0.1-0.4
	c0.1-0.4,0.1-0.7,0.1-1.1v-2.2c0-1.5-0.1-3-0.3-4.5c-0.1-0.8-0.3-1.6-0.5-2.4c-0.2-0.8-0.4-1.5-0.7-2.3l-0.5-1.4l-0.8-1.9l-1.1-2
	c0,0-0.1-0.3-0.1-0.3c-0.3-0.4-0.6-0.9-0.9-1.4c-0.4-0.6-0.8-1.2-1.2-1.7c-0.3-0.4-0.7-0.9-1.2-1.4l-2.4-2.5
	c-0.4-0.4-0.8-0.8-1.3-1.1c-0.9-0.6-1.9-1.2-2.8-1.7c-0.4-0.2-0.8-0.5-1.1-0.7c0,0,0,0,0,0s-0.1,0-0.2-0.1l-0.2-0.1l-0.2-0.1
	c-0.7-0.3-1.3-0.6-1.9-0.9l-22.9,54H175.6z"/>
<path fill="none" stroke="#FFFFFF" stroke-width="1.5" stroke-miterlimit="10" d="M203.5,130.4L173,82.7h-23.4l-20.3,47.7h-4.8V7.2
	h51.1c0.5,0,1,0,1.4,0.1l3.1,0.4c1.4,0.2,2.8,0.5,4.1,1c1.3,0.5,2.7,1.1,4,1.8c2.2,1.2,4.2,2.4,6,3.8c1.8,1.3,3.6,3,5.1,4.8
	c0.7,0.9,1.3,1.7,1.9,2.5c0.6,0.8,1.2,1.7,1.8,2.6c0.8,1.3,1.5,2.7,2.1,3.9c0.2,0.5,0.5,1,0.7,1.5c0.2,0.5,0.4,1,0.6,1.5
	c0.4,0.8,0.7,1.8,1,2.7c0.3,0.9,0.5,1.9,0.7,2.8c0.2,0.6,0.3,1.3,0.4,2l0.2,1.9c0.2,0.7,0.3,1.4,0.3,2.1v2.1c0,1.2,0,2.3-0.1,3.4
	c0,1.2-0.2,2.4-0.4,3.5l-1,4.6l-0.7,2.1l-0.8,2.2c-0.2,0.7-0.4,1.4-0.7,1.9c-0.3,0.5-0.5,1-0.8,1.6c-0.2,0.4-0.4,0.8-0.7,1.2
	c-0.2,0.3-0.4,0.6-0.5,0.9l0,0.1l0,0.1c-0.4,0.7-0.8,1.3-1.3,2c-0.5,0.7-1,1.4-1.5,1.9l-2.5,2.8l-2.3,2c-0.8,0.7-1.6,1.3-2.5,1.9
	l-2.6,1.6c-0.7,0.4-1.4,0.7-2,1c-0.6,0.3-1.3,0.6-2,0.8c-0.9,0.3-1.8,0.6-2.7,0.9c-0.9,0.3-2,0.5-3.1,0.7l-1.7,0.2l2.2,3.4
	l28.4,44.4H203.5z M129.7,116.7l15.1-35.2l1.5-3.4l28-65.6h-44.6V116.7z M175.6,77.5c1.2,0,2.3-0.1,3.4-0.2c1.1-0.2,2.3-0.4,3.4-0.6
	c1.8-0.5,3.5-1.1,5-2l1.7-1c0.9-0.6,1.8-1.1,2.7-1.8c0.9-0.6,1.6-1.3,2.3-2.1l2.3-2.6c0.8-0.9,1.4-1.7,2-2.6
	c0.6-0.9,1.1-1.9,1.7-2.9c0.8-1.4,1.4-3,2-4.8c0.4-1.4,0.8-2.7,1.1-4c0.3-1.2,0.5-2.5,0.6-3.7l0-0.1l0-0.1c0.1-0.7,0.2-1.4,0.2-2
	v-2.2c0-1.8-0.1-3.5-0.4-5.2c-0.2-1-0.4-2-0.6-2.9c-0.2-0.9-0.5-1.8-0.8-2.7l-0.5-1.5l-1-2.3l-1.1-1.9l0-0.1
	c-0.1-0.3-0.3-0.7-0.5-0.9c-0.3-0.3-0.5-0.7-0.8-1.2c-0.5-0.7-0.9-1.4-1.4-2c-0.5-0.6-1-1.3-1.6-1.9l-2.2-2.4
	c-0.7-0.8-1.5-1.4-2.3-1.9c-0.9-0.6-1.9-1.2-2.8-1.7c-0.4-0.2-0.8-0.5-1.1-0.7c-0.3-0.2-0.6-0.3-1-0.5c-1.3-0.7-2.6-1.2-3.8-1.6
	c-1-0.3-2-0.6-3.1-0.7l-27.4,64.6H175.6z"/>
<polygon fill="none" stroke="#FFFFFF" stroke-width="1.5" stroke-miterlimit="10" points="223,135.2 223,80 256,60 223,60 223,2.5 
	311.7,2.5 311.7,17.3 237.8,17.3 237.8,45.2 288.4,45.2 288.4,57.5 238.6,87.7 237.8,88.2 237.8,120.4 313.3,120.4 313.3,135.2 "/>
<polygon fill="none" stroke="#FFFFFF" stroke-width="1.5" stroke-miterlimit="10" points="227.8,130.4 227.8,82.7 273.3,55.2 
	227.8,55.2 227.8,7.3 306.9,7.3 306.9,12.4 232.9,12.4 232.9,50.1 283.6,50.1 283.6,54.8 236.1,83.5 232.9,85.5 232.9,125.2 
	308.5,125.2 308.5,130.4 "/>
<path fill="none" stroke="#FFFFFF" stroke-width="1.5" stroke-miterlimit="10" d="M426.5,135.2l-17.7-40.9l-24.3,40.9h-9.1
	l-24.2-40.9l-17.7,40.9h-16.1L343,76l1.6-3.7l30.3-70h10.5L417,75.9l25.6,59.3H426.5z M380,114.3l21.7-36.6L380,27.3l-21.8,50.3
	L380,114.3z"/>
<path fill="none" stroke="#FFFFFF" stroke-width="1.5" stroke-miterlimit="10" d="M429.7,130.4l-19-44l-1.1-2.6l-27.8,46.6h-3.7
	l-27.7-46.8l-1.1,2.7l-19,44h-5.6l22.7-52.4l1.6-3.7l29-67.1h4.2L411,74.1l1.6,3.7l22.7,52.6H429.7z M380,123.8l27.1-45.7l-27-63
	L352.8,78L380,123.8z"/>
<polygon fill="none" stroke="#FFFFFF" stroke-width="1.5" stroke-miterlimit="10" points="462.8,135.2 462.8,42.5 420.9,17 
	416.7,17 416.7,2.4 523.9,2.4 523.3,17.1 449.1,17.1 471.4,30.6 477.6,34.4 477.6,135.2 "/>
<polygon fill="none" stroke="#FFFFFF" stroke-width="1.5" stroke-miterlimit="10" points="467.6,130.4 467.6,39.8 422.2,12.2 
	421.5,12.2 421.5,7.2 518.9,7.2 518.7,12.3 431.9,12.3 468.9,34.7 472.7,37.1 472.7,130.4 "/>
<path fill="none" stroke="#FFFFFF" stroke-width="1.5" stroke-miterlimit="10" d="M569,136c-9.3-0.2-17.9-2.3-25.4-6.3
	c-7.4-3.8-13.9-8.9-19.3-15.1c-2.7-3.1-5.2-6.5-7.3-10c-2.1-3.5-3.9-7.3-5.4-11.3c-2.9-7.8-4.4-16.1-4.4-24.5c0-8.5,1.6-17,4.6-25.3
	c2.8-7.1,6.3-13.3,10.6-18.5l2.3-2.8c2.7-3.4,5.8-6.4,9.1-8.8c3.2-2.4,6.8-4.5,10.5-6.3c7.8-3.7,16.1-5.6,24.7-5.6
	c9,0,17.5,2,25.3,6.1c7.7,3.9,14.3,9.2,19.5,15.5c5.1,6.2,9.3,13.4,12.4,21.4c2.9,8,4.4,16.1,4.4,24.3c0,8.9-1.6,17.4-4.7,25.3
	c-3,7.9-7.4,15.1-13,21.3c-5.4,6.1-11.9,11.1-19.4,14.8c-3.8,1.8-7.7,3.2-11.7,4.2C577.8,135.5,573.5,136,569,136L569,136z
	 M572.5,121.1c2.3-0.2,4.4-0.5,6.5-1c3.1-0.7,6-1.9,8.8-3.3c3.1-1.6,5.9-3.3,8.2-5.2c2.4-1.9,4.7-4.1,6.8-6.6
	c2.1-2.4,3.9-5.1,5.4-7.8c1.6-2.9,3-6,4.2-9.2c2.3-6,3.4-12.4,3.4-19.2c0-3.4-0.3-6.7-0.8-10c-0.5-3.2-1.5-6.5-2.7-9.8
	c-2.4-6.4-5.8-12.1-10.1-17c-4.2-4.7-9.3-8.6-15-11.5c-5.5-2.8-11.6-4.2-18.2-4.2c-6.9,0-13.3,1.5-18.8,4.4c-3,1.5-5.9,3.3-8.5,5.2
	c-1.8,1.3-3.4,2.8-4.8,4.4L572.5,121.1z M527.3,45.2c-0.7,1.4-1.3,2.9-1.8,4.4c-1.2,3.1-2.1,6.3-2.7,9.4c-0.6,3.1-0.8,6.3-0.8,9.6
	c0.1,3.4,0.4,6.7,1.1,10c0.6,3.3,1.6,6.6,2.8,9.9c2.4,6.3,5.8,12,10,16.9c4.1,4.8,9.1,8.7,14.6,11.6c1.9,1,4,1.8,6,2.4L527.3,45.2z"
	/>
<path fill="none" stroke="#FFFFFF" stroke-width="1.5" stroke-miterlimit="10" d="M569,131.2c-8.5-0.2-16.3-2.1-23.2-5.8
	c-6.9-3.6-12.9-8.3-17.9-14c-2.5-2.9-4.8-6-6.7-9.3c-1.9-3.3-3.6-6.8-5-10.5c-2.7-7.3-4.1-15-4.1-22.8c0-8,1.5-15.9,4.3-23.6
	c2.5-6.6,5.8-12.3,9.8-17.1l2.3-2.8c2.5-3.1,5.3-5.8,8.3-8c3-2.2,6.3-4.1,9.7-5.8c7.2-3.4,14.8-5.1,22.6-5.1c8.2,0,16,1.9,23.1,5.5
	c7.1,3.7,13.2,8.4,18,14.3c4.8,5.8,8.7,12.5,11.6,20.1c2.7,7.4,4.1,15,4.1,22.6c0,8.3-1.5,16.2-4.3,23.6c-2.8,7.4-6.9,14-12.1,19.9
	c-5,5.7-11,10.3-17.9,13.7c-3.5,1.7-7.1,3-10.7,3.9C577,130.8,573.1,131.2,569,131.2L569,131.2z M569.3,126.1
	c3.8,0,7.5-0.4,10.9-1.3c3.5-0.8,6.8-2.1,9.9-3.7c3.4-1.7,6.4-3.6,9-5.7c2.6-2.1,5.1-4.5,7.4-7.3c2.3-2.7,4.3-5.6,6-8.7
	c1.7-3.1,3.2-6.4,4.5-9.8c2.5-6.5,3.7-13.6,3.7-20.9c0-3.6-0.3-7.3-0.9-10.8c-0.6-3.5-1.6-7.1-2.9-10.7c-2.6-6.9-6.3-13.2-10.9-18.5
	c-4.7-5.2-10.2-9.5-16.5-12.6c-6.2-3.1-13-4.7-20.4-4.7c-7.7,0-14.8,1.7-21.1,5c-3.2,1.6-6.3,3.5-9.1,5.6c-2.8,2.1-5.3,4.5-7.3,7.3
	l-0.1,0.1L569.3,126.1z M528.1,34.1c-1.3,1.9-2.5,3.9-3.6,5.9c-1.3,2.5-2.5,5.2-3.6,7.9c-1.3,3.4-2.3,6.8-2.9,10.3
	c-0.6,3.4-0.9,7-0.8,10.6c0.1,3.6,0.5,7.3,1.1,10.8c0.7,3.5,1.7,7.1,3.1,10.7c2.6,6.9,6.3,13,10.8,18.4c4.5,5.3,10,9.6,16.1,12.7
	c2.7,1.4,5.5,2.4,8.4,3.2c2.4,0.6,5,1.1,7.5,1.3L528.1,34.1z"/>
</svg>
