<?xml version="1.0" encoding="utf-8"?>
<!-- Generator: Adobe Illustrator 18.0.0, SVG Export Plug-In . SVG Version: 6.00 Build 0)  -->
<!DOCTYPE svg PUBLIC "-//W3C//DTD SVG 1.1//EN" "http://www.w3.org/Graphics/SVG/1.1/DTD/svg11.dtd">
<svg version="1.1" id="Слой_1" xmlns="http://www.w3.org/2000/svg" xmlns:xlink="http://www.w3.org/1999/xlink" x="0px" y="0px"
	 viewBox="0 0 1200 1200" enable-background="new 0 0 1200 1200" xml:space="preserve">
<path fill="none" stroke="#FFFFFF" stroke-width="7" stroke-miterlimit="10" d="M114.9,1194.9c-2.5,0-5-0.2-7.7-0.2
	c-2.7-0.2-5.2-0.5-7.5-0.7l-0.8-0.2c-1.5-0.3-3-0.5-4.5-0.8c-2-0.3-3.8-0.8-5.8-1.3c-1.7-0.5-3.3-0.8-5-1.5
	c-2.2-0.7-4.3-1.5-6.3-2.3c-3.2-1.2-6-2.5-8.8-4c-1.8-0.8-3.8-2-5.5-3c-1.2-0.8-2.3-1.5-3.7-2.2l-0.3-0.2c-2.2-1.3-4-2.7-6-4.2
	c-2.2-1.5-4.3-3.2-6.3-5l-0.2-0.2l-6.2-5.8c-2.3-2.2-4.5-4.3-6.5-6.5c-2.5-2.7-4.7-5.5-6.7-8.5c-1.7-2.3-3.2-4.8-4.8-7.2l-3.7-6
	c-2-3.2-3.7-6.3-5-9.7c-1-2.3-2-4.8-3-7.5c-5.3-13.9-8.2-28.5-8.2-43.6s2.7-30.2,7.8-44.3c2.7-7.2,5.8-13.9,9.3-20.2
	c3.7-6.5,7.8-12.5,12.7-18.2c9.2-11.5,20.9-20.9,34.3-27.7l0.2-0.2c4.7-2.3,9.5-4.2,14.4-5.8c5.2-1.7,10.8-3,16.4-3.7l5.3-0.7
	c1.7-0.2,3.7-0.3,5.5-0.3h3.3c12.3,0,23.2,1.3,32.5,4c9.7,2.8,18.4,6.5,25.9,11c14.2,8.5,24.4,21.1,32.2,35.5
	c1,1.8,10.6,22.1,10.6,22.1l-37.7,13.5c-2.1-3.5-4.2-7-6.3-10.6c-3-5.1-6.1-10.3-9.6-14.9c-3-3.5-6.6-6.6-10.5-9.1
	c-4-2.6-8.4-4.2-12.7-6.2l-0.5-0.2c-0.7-0.3-1.3-0.5-1.8-0.7c-1-0.2-2-0.5-3.2-0.7h-0.2c-5.3-1-10.5-1.7-15.7-1.8l-54.3,127.8
	c0.3,0.5,0.7,0.8,1,1.3c1.8,2.5,3.2,3.8,3.8,4.7l0.2,0.2l0.2,0.2c1.3,1.5,2.5,2.7,3.8,3.8c1.3,1.3,2.7,2.7,4.2,4c1.2,1,2.5,2,3.8,3
	l0.3,0.2l0.5,0.3c0.7,0.5,2,1.3,3.8,2.5l6.7,3.8l2.8,1.3c4.7,2.2,9.8,3.5,15.5,4.2h0.2c2.5,0.3,5.2,0.5,8,0.5c2.2,0,4.5-0.2,7-0.7
	c2.5-0.3,5.3-1,8.2-1.8c1.8-0.7,3.5-1.2,5.3-1.7c0.3-0.2,0.7-0.2,0.8-0.3l1-0.5l1.3-0.5c8.9-3.4,18-8.6,24.8-15.3
	c6.8-6.1,9.6-16.6,12.9-25.9l41.6,11.3c-2.6,8.3-4.8,12.8-7.6,19.4c-4.1,8.6-8.2,15.6-14.5,21.9c-0.8,0.8-1.5,1.7-2.4,2.5
	c-2.3,2.3-4.7,4.5-7.2,6.5c-2.7,2.2-5.3,4.2-8.2,6.2c-1.3,0.8-2.7,1.8-4.2,2.7c-1.3,0.8-2.5,1.5-3.8,2.3c-2,1.3-4,2.3-6,3.3
	c-1.7,0.8-3.3,1.7-4.8,2.3c-6,2.7-11.7,4.7-17.2,6C132.3,1193.6,123.3,1194.9,114.9,1194.9z M55,1030.9c-2.3,4.3-4.3,8.8-6,13.7
	c0,0-0.3,0.8-0.3,1L55,1030.9z"/>
<path fill="none" stroke="#FFFFFF" stroke-width="7" stroke-miterlimit="10" d="M114.9,1180.7c-2.2,0-4.5,0-6.7-0.2
	c-2.3-0.2-4.5-0.3-6.5-0.7h-0.2c-1.5-0.3-3-0.5-4.5-0.8c-1.5-0.3-3.2-0.7-4.7-1.2c-1.5-0.5-3.2-0.8-4.7-1.3c-1.7-0.5-3.3-1.2-5-1.8
	h-0.2c-2.7-1-5.2-2-7.5-3.3l-0.2-0.2c-1.5-0.7-3-1.5-4.3-2.3c-1.3-0.8-2.5-1.7-3.8-2.5c-2-1.3-3.8-2.5-5.5-3.8
	c-1.7-1.2-3.5-2.7-5.3-4.2l-6-5.5c-2-1.8-4-3.8-5.8-5.8c-2-2.2-3.8-4.5-5.5-6.8c-1.5-2.3-3.2-4.7-4.5-6.8l-3.5-5.8
	c-1.5-2.5-2.8-5-4-7.5c-1-2.3-2-4.8-2.8-7.3c-4.7-12.3-7.2-25.2-7.2-38.4c0-13.5,2.3-26.9,7-39.4c2.3-6.3,5.2-12.5,8.3-18.2
	s7-11.2,11.2-16.2c8-9.8,18-17.9,29.9-23.7c4.2-2,8.3-3.7,12.7-5.2c4.3-1.5,9-2.5,13.7-3l5.3-0.7c1.2-0.2,2.5-0.2,3.8-0.2h3.3
	c11,0,20.7,1.2,28.7,3.5c8.5,2.3,16,5.7,22.4,9.5c6.2,3.8,11.8,8.7,17,14.9c3.2,3.7,5.8,7.5,8.2,11.7l5.8,10.7l-12.3,4.3l-5.8-9.8
	c-1.8-3.3-4-6.2-6.3-8.7c-2.5-2.5-5-5-7.7-7.3c-1.5-1.3-3.2-2.5-4.7-3.3c-1.7-1-3.5-2-5.2-3c-1.8-1-3.7-1.8-5.3-2.5
	c-1.7-0.8-3.5-1.5-5.3-2.2c-1.3-0.5-2.5-1-3.7-1.2c-1.3-0.3-2.7-0.7-4-0.8c-7.2-1.5-14.4-2.2-21.4-2.2c-1.5,0-3,0-4.5,0.2l-2,0.2
	l-61,142.9l0.7,1c0.5,0.8,1,1.7,1.7,2.5c1.2,1.7,2.2,3.3,3.3,4.7c1.8,2.5,3.7,4.7,5.2,6.2l0.2,0.2c1.5,1.5,2.8,3,4.3,4.5
	c1.5,1.3,3,2.8,4.7,4.3c1.7,1.5,3.5,2.8,5.5,4.2l0.2,0.2c1.5,1.2,3.3,2.3,5.3,3.5l7.2,4l3.3,1.7c6.2,2.8,12.8,4.7,20,5.3
	c3.2,0.3,6.5,0.7,9.8,0.7c2.8,0,6-0.3,9.3-0.8c3.2-0.5,6.7-1.3,10.2-2.3c1.7-0.5,3.3-1,4.8-1.5c1.2-0.3,2.5-0.8,3.5-1.3h0.2l0.3-0.2
	c3.7-1.3,7.7-3.2,12-5.7h0.2c2.7-1.5,5.3-3,7.8-4.7c2.5-1.7,4.8-3.5,7-5.5l3.2-2.8l1.8-1.8c4.8-4.8,7.9-10.4,10-16.9
	c4.3,1.1,8.6,2.2,12.8,3.3l-1.3,3.8c-1.7,4.5-3.7,8.5-6,11.7c-1.2,1.7-2.3,3.3-3.5,4.8c-1.2,1.5-2.7,3.2-4.2,4.7c-2,2-4,3.8-6.2,5.7
	c-2.2,1.9-4.5,3.5-6.8,5.2c-1.2,0.8-2.5,1.7-3.7,2.3c-1.2,0.8-2.5,1.5-3.7,2.2c-1.7,1-3.3,2-4.8,2.7c-1.7,0.8-3.2,1.5-4.7,2.2
	c-5.2,2.3-10,4-14.5,5C130,1179.6,122.1,1180.7,114.9,1180.7z M85.7,985.6c-2.7,1-5.2,2.2-7.7,3.5c-10,5.3-18.7,12.5-25.9,21
	c-7.2,8.8-12.7,18.9-16.4,30c-2,5.5-3.5,11.2-4.3,16.9c-0.8,5.7-1.3,11.5-1.3,17.4c0,10.3,1.5,20.4,4.7,29.7l2,5.8l54.3-126.3
	L85.7,985.6L85.7,985.6z M369.7,1194.6l-50.8-79.5h-19l-33.8,79.5h-35.4V956.3h101.6c1.7,0,3.2,0.2,4.7,0.3l4.8,0.5
	c3.8,0.5,7.3,1.3,10.8,2.7c2.7,1,5.5,2.3,8.2,3.7l0.3,0.2c4.3,2.3,8.3,4.8,11.8,7.5c4.2,3,7.8,6.5,11.3,10.7l0.3,0.5l3.5,4.5
	c1.3,1.8,2.5,3.7,3.7,5.5c1.8,2.8,3.3,5.7,4.5,8.3c0.5,1,1,2.2,1.5,3.3c0.3,1,0.7,1.8,1,2.8c0.8,1.8,1.5,3.7,2.2,5.7
	c0.7,2,1.2,4.2,1.5,6.2c0.3,1.7,0.7,3.3,0.8,4.8l0.3,2.5c0.5,2,0.7,4.2,0.7,6.3v3.5c0,2,0,4.2-0.2,6.3c-0.2,2.8-0.5,5.8-1.2,8.7
	l-1.3,8.7l-1.7,4.8l-1.2,3.2c-0.7,2-1.3,4-2.3,5.8c-0.2,0.5-0.5,0.8-0.7,1.3l-0.3,0.8l-0.2,0.2c-0.5,1-1.2,2.2-1.8,3.2l-0.8,1.5
	l-0.2,0.3c-0.7,1.2-1.5,2.3-2.3,3.5c-1.3,2.2-2.8,4-4.3,5.7l-4.7,5.2l-4.3,4c-2,1.8-4.2,3.3-6.3,4.8l-5.2,3.2l-1.7,0.8l55.6,87.2
	h-49.3L369.7,1194.6z M272.4,1074.8l32.7-76.7h-32.7V1074.8z M332.2,1073.6c1.2,0,2.3,0,3.3-0.2c1.3-0.2,2.7-0.5,4-0.7
	c1.5-0.5,2.8-1,4.2-1.7l2.3-1.3c1.3-0.8,2.7-1.7,4-2.7l0.3-0.3l4.2-4.7c0.8-0.8,1.2-1.5,1.5-1.8c0.8-1.5,1.7-3,2.7-4.5
	c0.7-1.3,1.3-2.8,1.8-4.7c0.5-2,1.2-4,1.7-5.8c0.3-1,0.5-2,0.5-3.2v-1.1l0.3-1.7v-3.5c0-2.2-0.2-4.2-0.5-6.2
	c-0.2-1.2-0.3-2.2-0.7-3.2c-0.3-1-0.5-2-1-3l-0.8-2.2l-1-2.3l-1.8-3.3c-0.3-0.5-0.8-1.2-1.2-1.8c-0.5-0.8-1.2-1.7-1.7-2.5
	c-0.3-0.3-0.7-0.8-1.2-1.3l-4.2-4.5l-0.2-0.2c-0.7-0.3-1.3-0.8-2-1.2l-29.5,69.7h14.9L332.2,1073.6z"/>
<path fill="none" stroke="#FFFFFF" stroke-width="7" stroke-miterlimit="10" d="M377.5,1180.4l-50.8-79.3h-36.1l-33.8,79.5h-11.8
	v-210h87.5c0.8,0,1.8,0,2.7,0.2l5.2,0.7c2.5,0.3,5,1,7.3,1.8c2.3,0.8,4.7,1.8,6.8,3c3.7,2,7.2,4.2,10.3,6.5c3.2,2.3,6.2,5.2,9,8.3
	v0.2c1.2,1.5,2.2,2.8,3.2,4.2c1,1.5,2.2,3,3.2,4.5c1.5,2.3,2.7,4.7,3.7,6.8c0.3,0.8,0.8,1.7,1.2,2.7l1,2.5v0.2
	c0.7,1.5,1.2,3,1.7,4.7c0.5,1.7,0.8,3.2,1.2,4.8c0.3,1.3,0.5,2.5,0.7,3.7l0.3,3.2v0.2c0.3,1.2,0.5,2.5,0.5,3.8v3.5
	c0,2,0,3.8-0.2,5.8c0,2-0.3,4.2-0.8,6.3l-1.7,7.8l-1.3,3.7l-1.3,3.7v0.2c-0.3,1.3-0.8,2.5-1.3,3.5c-0.5,0.8-0.8,1.7-1.2,2.5
	l-0.2,0.2c-0.3,0.8-0.8,1.5-1.3,2.2c-0.2,0.2-0.3,0.5-0.5,1l-0.2,0.2l-0.2,0.3c-0.7,1.2-1.5,2.3-2.2,3.5c-0.8,1.3-1.8,2.5-2.8,3.5
	l-4.3,4.8l-3.8,3.5c-1.3,1.2-2.8,2.3-4.5,3.5l-4.3,2.7h-0.2c-1.2,0.7-2.3,1.2-3.3,1.7c-1.2,0.5-2.2,1-3.5,1.5
	c-1.5,0.5-3.2,1.2-4.7,1.7l-1.5,0.5l-3.2,0.8l51.1,80.2l-14.7,0.3L377.5,1180.4z M258.3,1143.9l20.7-48.1l2.5-5.7L326.6,984h-68.3
	V1143.9z M296.1,1087.7h36.1c1.8,0,3.7-0.2,5.3-0.3c1.8-0.3,3.5-0.5,5.3-1c2.8-0.8,5.5-1.8,7.8-3.2l2.7-1.5c1.5-1,3-1.8,4.5-2.8
	c1.2-0.8,2.3-1.8,3.3-3l4-4.5c1.2-1.3,2.2-2.7,3-4c1-1.5,1.8-3.2,2.8-4.8c1.2-2.2,2.3-4.7,3.2-7.5c0.7-2.2,1.2-4.3,1.8-6.5
	c0.5-1.8,0.8-3.8,0.8-5.8v-0.5c0.2-1,0.3-2,0.3-2.8v-3.7c0-2.8-0.2-5.7-0.5-8.3c-0.3-1.7-0.5-3.2-1-4.7c-0.3-1.5-0.8-2.8-1.3-4.3
	l-0.8-2.5l-1.5-3.7l-1.8-3.2v-0.3c-0.2-0.5-0.3-0.8-0.7-1c-0.5-0.7-0.8-1.3-1.3-2c-0.8-1.2-1.5-2.2-2.3-3.3c-0.7-1-1.5-1.8-2.5-2.8
	l-3.7-4c-1-1.2-2.2-2-3.3-2.8c-1.5-1-3.2-2-4.7-2.8c-0.7-0.3-1.3-0.8-1.8-1.2c-0.5-0.3-0.8-0.5-1.2-0.7h-0.2c-2.2-1-4-1.8-6-2.5
	c-0.3-0.2-0.7-0.2-0.8-0.3l-2-0.7L296.1,1087.7z M434.5,1194.6v-105.1l33-20h-33v-113h164.7v41.6H476.1v29.7h84.3v33.8l-84.3,51
	v40.3h125.8v41.6H434.5z"/>
<path fill="none" stroke="#FFFFFF" stroke-width="7" stroke-miterlimit="10" d="M448.7,1180.4v-83l69.7-42.1h-69.7v-84.7H585V984
	H461.9v57.9h84.3v11.7l-80.2,48.5l-4.2,2.5v62.6h125.8v13.2H448.7z M806.5,1194.6l-25-58l-34.4,58h-24.9l-34.3-57.8l-25,57.8h-45.5
	l47.8-110.4l2.7-6.2l52.6-121.8h28.7l54.8,127.6l47.8,110.6L806.5,1194.6L806.5,1194.6z M734.5,1134.8l26.7-45l-26.5-62l-26.9,61.8
	L734.5,1134.8L734.5,1134.8z"/>
<path fill="none" stroke="#FFFFFF" stroke-width="7" stroke-miterlimit="10" d="M815.8,1180.4l-32.4-74.8l-44.5,74.8h-8.8
	l-44.3-74.8l-32.4,74.8H639l39.1-90.7l2.7-6.2l49-113.1h10l51.1,119.1l39.3,90.8L815.8,1180.4L815.8,1180.4z M692,1090.6l42.5,71.8
	l42.5-71.7l-42.3-98.9L692,1090.6z M867.3,1194.6v-158.2l-63.6-38.6h-13.2v-41.5h195.9l-1.5,41.6H883.6l11,6.7l14.4,8.8v181.1
	L867.3,1194.6z"/>
<path fill="none" stroke="#FFFFFF" stroke-width="7" stroke-miterlimit="10" d="M881.6,1180.4v-152l-74-44.8h-3v-13.2h167.1
	l-0.5,13.4H832.7l54.5,33l7.5,4.7v159H881.6z M1084.3,1196.1c-16.9-0.3-32.4-4.2-46.1-11.5c-13.2-6.8-24.9-16-34.6-27
	c-4.8-5.7-9.3-11.7-13-18c-3.7-6.3-7-13-9.5-20.2c-5.2-14-7.8-28.9-7.8-43.8c0-15.2,2.8-30.4,8.2-45v-0.2c4.8-12.5,11.3-23.7,19-33
	l3.8-4.7c5-6.2,10.7-11.7,16.9-16.2c5.8-4.3,12.2-8,18.9-11.2c14.2-6.8,29.4-10.2,44.8-10.2c16.4,0,31.9,3.7,46,11
	c13.9,7.2,25.7,16.5,35.1,28c9.2,11,16.5,23.9,22,37.9v0.2c5.2,14.2,7.8,28.9,7.8,43.3c0,15.9-2.8,31.2-8.3,45.3
	c-5.3,14-13.2,26.9-23.2,37.9c-9.8,11.2-21.5,20.2-34.9,26.9c-7,3.3-14,5.8-21.2,7.7c-7.3,1.8-15.4,2.8-23.4,2.8L1084.3,1196.1
	L1084.3,1196.1z M1095.9,1153.4c1.2-0.2,2.2-0.5,3.3-0.7c4.5-1.2,8.8-2.7,12.8-4.8c4.7-2.3,8.8-5,12.3-7.8c3.5-2.8,6.8-6.2,10-9.8
	l0.2-0.2c3-3.5,5.7-7.3,8-11.5c2.5-4.5,4.7-9.3,6.5-14.4c3.5-9,5.2-18.9,5.2-29c0-5.2-0.5-10.3-1.3-15.4c-0.8-4.8-2.2-9.8-4-14.7
	c-3.7-9.7-8.8-18.4-15.2-25.7c-6.5-7.2-14-13-22.5-17.4c-8-4-16.9-6-26.5-6c-10.2,0-19.4,2.2-27.5,6.3l-0.2,0.2
	c-4.5,2.3-8.8,5-12.8,7.8c-1,0.8-2.2,1.7-3.2,2.5L1095.9,1153.4z M1015.8,1061.3c-0.8,4.5-1.2,9-1,13.9c0.2,5.2,0.7,10.3,1.7,15.4
	c1,5,2.3,10,4.3,15c3.7,9.7,8.8,18.4,15.2,25.9c3.5,4.2,7.5,7.8,11.8,11L1015.8,1061.3L1015.8,1061.3z"/>
<path fill="none" stroke="#FFFFFF" stroke-width="7" stroke-miterlimit="10" d="M1084.6,1181.9c-14.5-0.3-27.9-3.7-39.8-9.8
	c-11.7-6-22-14.2-30.5-23.9c-4.3-5-8.2-10.3-11.5-15.9c-3.3-5.5-6.2-11.7-8.5-18c-4.7-12.3-7-25.5-7-38.8c0-13.5,2.5-27,7.3-40.1
	c4.3-11.2,10-21,16.7-29.2l3.8-4.7c4.2-5.3,9-9.8,14.2-13.7c5.2-3.7,10.7-7,16.5-9.8c12.3-5.8,25.4-8.8,38.6-8.8
	c14.2,0,27.4,3.2,39.4,9.5c12.2,6.2,22.5,14.5,30.7,24.4c8.2,9.8,14.9,21.4,19.7,34.1c4.7,12.5,7,25.5,7,38.4
	c0,14.2-2.5,27.7-7.3,40.1c-4.7,12.5-11.7,24-20.7,33.8c-8.5,9.8-18.9,17.7-30.7,23.5c-5.8,2.8-12.2,5-18.4,6.7
	C1098.3,1181.1,1091.6,1181.9,1084.6,1181.9z M1084.6,982.3c-12.5,0-24,2.7-33.9,8c-5.2,2.7-10.3,5.7-14.9,9.2
	c-3.8,2.8-7.3,6.2-10.2,9.8l-0.8,1l62,158.3h1.7c5-0.2,9.8-0.8,14.4-2c5.5-1.3,11-3.3,16-6c5.5-2.8,10.3-5.8,14.7-9.3
	c4.2-3.3,8.3-7.3,12-11.8c3.8-4.3,7-9,9.7-14c2.8-5.2,5.2-10.5,7.3-16c4-10.7,6-22,6-33.9c0-6-0.5-11.8-1.5-17.7
	c-1-5.7-2.5-11.5-4.8-17.4c-4.3-11.3-10.3-21.5-17.9-30.2c-7.7-8.5-16.7-15.4-26.7-20.5C1107.4,985,1096.4,982.3,1084.6,982.3
	L1084.6,982.3z M1013.3,1026.9c-0.3,0.5-0.7,1.2-0.8,1.7c-2.2,4.2-4.2,8.5-5.8,13c-2,5.5-3.7,11.2-4.7,16.7
	c-1,5.5-1.5,11.3-1.3,17.2c0.2,5.8,0.8,11.8,1.8,17.7c1.2,5.8,2.8,11.7,5,17.5c4.3,11.2,10.2,21.2,17.7,29.9
	c7.3,8.7,16.2,15.5,26.2,20.7c4.3,2.2,8.8,4,13.5,5.2c1.3,0.3,2.7,0.7,4.2,1l4.3,0.8l-57.3-145.5L1013.3,1026.9L1013.3,1026.9z"/>
</svg>
