<?xml version="1.0" encoding="utf-8"?>
<!-- Generator: Adobe Illustrator 18.0.0, SVG Export Plug-In . SVG Version: 6.00 Build 0)  -->
<!DOCTYPE svg PUBLIC "-//W3C//DTD SVG 1.1//EN" "http://www.w3.org/Graphics/SVG/1.1/DTD/svg11.dtd">
<svg version="1.1" id="Слой_1" xmlns="http://www.w3.org/2000/svg" xmlns:xlink="http://www.w3.org/1999/xlink" x="0px" y="0px"
	 width="1595.8px" height="1597.1px" viewBox="-210.9 -136.6 1595.8 1597.1" enable-background="new -210.9 -136.6 1595.8 1597.1"
	 xml:space="preserve">
<rect x="-208.2" y="-134.6" stroke="#000000" stroke-width="6" stroke-miterlimit="10" width="1592.7" height="1592.9"/>
<path fill="none" stroke="#000000" stroke-width="3" stroke-miterlimit="10" d="M-47.4,1119.6"/>
<path fill="none" stroke="#683E48" stroke-width="3.0855" stroke-miterlimit="10" d="M-87.5,363.2"/>
<path fill="none" stroke="#683E48" stroke-width="3.0855" stroke-miterlimit="10" d="M-87.5,363.2"/>
<path fill="none" stroke="#683E48" stroke-width="3.0855" stroke-miterlimit="10" d="M151.3,1172.7"/>
<path fill="none" stroke="#683E48" stroke-width="3.0855" stroke-miterlimit="10" d="M596,1238.5"/>
<path fill="none" stroke="#683E48" stroke-width="3.0855" stroke-miterlimit="10" d="M7.6,653.5"/>
<path fill="none" stroke="#683E48" stroke-width="3.0855" stroke-miterlimit="10" d="M203.4,1009.7"/>
<g>
	<g>
		<path fill="none" stroke="#7A4255" stroke-width="3.0855" stroke-miterlimit="10" d="M-149.2,608.1"/>
		<path fill="none" stroke="#7A4255" stroke-width="3.0855" stroke-miterlimit="10" d="M1319.8,600.6"/>
		<path fill="none" stroke="#7A4255" stroke-width="3.0855" stroke-miterlimit="10" d="M-87.5,363.2"/>
		<path fill="none" stroke="#7A4255" stroke-width="3.0855" stroke-miterlimit="10" d="M1270.3,363.2"/>
		<path fill="none" stroke="#7A4255" stroke-width="3.0855" stroke-miterlimit="10" d="M1270.3,363.2"/>
		<path fill="none" stroke="#7A4255" stroke-width="3.0855" stroke-miterlimit="10" d="M577.4,1116"/>
		<path fill="none" stroke="#7A4255" stroke-width="3.0855" stroke-miterlimit="10" d="M-87.5,363.2"/>
	</g>
	<path fill="none" stroke="#7A4255" stroke-width="3.0855" stroke-miterlimit="10" d="M585.3,84"/>
	<path fill="none" stroke="#7A4255" stroke-width="3.0855" stroke-miterlimit="10" d="M1270.3,363.2"/>
	<path fill="none" stroke="#7A4255" stroke-width="2.057" stroke-miterlimit="10" d="M1270.3,355.8"/>
	<path fill="none" stroke="#7A4255" stroke-width="3.0855" stroke-miterlimit="10" d="M232.6,286"/>
	<path fill="none" stroke="#7A4255" stroke-width="3.0855" stroke-miterlimit="10" d="M989.6,286"/>
	<g>
		<polygon fill="none" stroke="#7A4255" stroke-width="3.0855" stroke-miterlimit="10" points="604.4,1119.6 1087.6,1119.6 
			604.4,84 109.7,1119.6 		"/>
		<path fill="none" stroke="#7A4255" stroke-width="3.0855" stroke-miterlimit="10" d="M1324.8,286L109.7,1119.6"/>
		<polyline fill="none" stroke="#7A4255" stroke-width="3.0855" stroke-miterlimit="10" points="232.6,286 1087.6,1119.6 
			-149.2,286 		"/>
		<line fill="none" stroke="#7A4255" stroke-width="3.0855" stroke-miterlimit="10" x1="109.7" y1="1119.6" x2="989.6" y2="286"/>
		<polyline fill="none" stroke="#7A4255" stroke-width="3.0855" stroke-miterlimit="10" points="-149.2,286 604.4,84 232.6,286 		
			"/>
		<polyline fill="none" stroke="#7A4255" stroke-width="3.0855" stroke-miterlimit="10" points="989.6,286 604.4,84 1324.8,286 		
			"/>
	</g>
	<g>
		<polygon fill="none" stroke="#7A4255" stroke-width="3.0855" stroke-miterlimit="10" points="744.1,1093.7 1208.6,960.5 
			458.6,98.2 268.5,1230 		"/>
		<path fill="none" stroke="#7A4255" stroke-width="3.0855" stroke-miterlimit="10" d="M1206.8,93.8L268.5,1230"/>
		<polyline fill="none" stroke="#7A4255" stroke-width="3.0855" stroke-miterlimit="10" points="156.9,394.8 1208.6,960.5 
			-210.1,500.1 		"/>
		<line fill="none" stroke="#7A4255" stroke-width="3.0855" stroke-miterlimit="10" x1="268.5" y1="1230" x2="884.5" y2="186.2"/>
		<polyline fill="none" stroke="#7A4255" stroke-width="3.0855" stroke-miterlimit="10" points="-210.1,500.1 458.6,98.2 
			156.9,394.8 		"/>
		<polyline fill="none" stroke="#7A4255" stroke-width="3.0855" stroke-miterlimit="10" points="884.5,186.2 458.6,98.2 
			1206.8,93.8 		"/>
	</g>
	<g>
		<polygon fill="none" stroke="#7A4255" stroke-width="3.0855" stroke-miterlimit="10" points="459.8,1104.1 924.3,1237.3 
			745.2,108.6 -15.7,967.8 		"/>
		<path fill="none" stroke="#7A4255" stroke-width="3.0855" stroke-miterlimit="10" d="M1382,501.4L-15.7,967.8"/>
		<polyline fill="none" stroke="#7A4255" stroke-width="3.0855" stroke-miterlimit="10" points="332.2,200.3 924.3,1237.3 
			-34.8,95.1 		"/>
		<line fill="none" stroke="#7A4255" stroke-width="3.0855" stroke-miterlimit="10" x1="-15.7" y1="967.8" x2="1059.8" y2="409"/>
		<polyline fill="none" stroke="#7A4255" stroke-width="3.0855" stroke-miterlimit="10" points="-34.8,95.1 745.2,108.6 
			332.2,200.3 		"/>
		<polyline fill="none" stroke="#7A4255" stroke-width="3.0855" stroke-miterlimit="10" points="1059.8,409 745.2,108.6 1382,501.4 
					"/>
	</g>
	<g>
		<polygon fill="none" stroke="#7A4255" stroke-width="3.0855" stroke-miterlimit="10" points="558.9,203.4 75.7,211.8 
			576.9,1238.8 1053.5,194.7 		"/>
		<path fill="none" stroke="#7A4255" stroke-width="3.0855" stroke-miterlimit="10" d="M-146.8,1049.4l1200.3-854.7"/>
		<polyline fill="none" stroke="#7A4255" stroke-width="3.0855" stroke-miterlimit="10" points="945.1,1030.3 75.7,211.8 
			1326.9,1023.7 		"/>
		
			<line fill="none" stroke="#7A4255" stroke-width="3.0855" stroke-miterlimit="10" x1="1053.5" y1="194.7" x2="188.3" y2="1043.5"/>
		<polyline fill="none" stroke="#7A4255" stroke-width="3.0855" stroke-miterlimit="10" points="1326.9,1023.7 576.9,1238.8 
			945.1,1030.3 		"/>
		<polyline fill="none" stroke="#7A4255" stroke-width="3.0855" stroke-miterlimit="10" points="188.3,1043.5 576.9,1238.8 
			-146.8,1049.4 		"/>
	</g>
	<g>
		<polygon fill="none" stroke="#7A4255" stroke-width="3.0855" stroke-miterlimit="10" points="419.7,231.7 -42.4,373 722.4,1222.1 
			892.8,87.1 		"/>
		<path fill="none" stroke="#7A4255" stroke-width="3.0855" stroke-miterlimit="10" d="M-25.5,1239.5L892.8,87.1"/>
		<polyline fill="none" stroke="#7A4255" stroke-width="3.0855" stroke-miterlimit="10" points="1018.9,920.2 -42.4,373 
			1384.1,808.6 		"/>
		<line fill="none" stroke="#7A4255" stroke-width="3.0855" stroke-miterlimit="10" x1="892.8" y1="87.1" x2="295.1" y2="1141.5"/>
		<polyline fill="none" stroke="#7A4255" stroke-width="3.0855" stroke-miterlimit="10" points="1384.1,808.6 722.4,1222.1 
			1018.9,920.2 		"/>
		<polyline fill="none" stroke="#7A4255" stroke-width="3.0855" stroke-miterlimit="10" points="295.1,1141.5 722.4,1222.1 
			-25.5,1239.5 		"/>
	</g>
	<g>
		<polygon fill="none" stroke="#7A4255" stroke-width="3.0855" stroke-miterlimit="10" points="703.7,216.3 237,91.3 435.7,1216.6 
			1181.6,344.3 		"/>
		<path fill="none" stroke="#7A4255" stroke-width="3.0855" stroke-miterlimit="10" d="M-207.8,835.1l1389.4-490.7"/>
		<polyline fill="none" stroke="#7A4255" stroke-width="3.0855" stroke-miterlimit="10" points="847.1,1117.7 237,91.3 
			1215.9,1216.5 		"/>
		<line fill="none" stroke="#7A4255" stroke-width="3.0855" stroke-miterlimit="10" x1="1181.6" y1="344.3" x2="116" y2="921.8"/>
		<polyline fill="none" stroke="#7A4255" stroke-width="3.0855" stroke-miterlimit="10" points="1215.9,1216.5 435.7,1216.6 
			847.1,1117.7 		"/>
		<polyline fill="none" stroke="#7A4255" stroke-width="3.0855" stroke-miterlimit="10" points="116,921.8 435.7,1216.6 
			-207.8,835.1 		"/>
	</g>
	<path fill="none" stroke="#7A4255" stroke-width="3.0855" stroke-miterlimit="10" d="M216.7,252.8"/>
	<g>
		<polygon fill="none" stroke="#7A4255" stroke-width="3.0855" stroke-miterlimit="10" points="1043.4,652.5 1051.8,169.3 8,634.4 
			1034.8,1147.1 		"/>
		<path fill="none" stroke="#7A4255" stroke-width="3.0855" stroke-miterlimit="10" d="M222.5-82.3l812.3,1229.4"/>
		<polyline fill="none" stroke="#7A4255" stroke-width="3.0855" stroke-miterlimit="10" points="203.4,1009.7 1051.8,169.3 
			196.8,1391.4 		"/>
		
			<line fill="none" stroke="#7A4255" stroke-width="3.0855" stroke-miterlimit="10" x1="1034.8" y1="1147.1" x2="216.7" y2="252.8"/>
		<polyline fill="none" stroke="#7A4255" stroke-width="3.0855" stroke-miterlimit="10" points="196.8,1391.4 8,634.4 203.4,1009.7 
					"/>
		<polyline fill="none" stroke="#7A4255" stroke-width="3.0855" stroke-miterlimit="10" points="216.7,252.8 8,634.4 222.5,-82.3 		
			"/>
	</g>
	<g>
		<polygon fill="none" stroke="#7A4255" stroke-width="3.0855" stroke-miterlimit="10" points="1019.9,512.4 894.8,45.6 19.6,780.4 
			1147.9,990.2 		"/>
		<path fill="none" stroke="#7A4255" stroke-width="3.0855" stroke-miterlimit="10" d="M28.3,32.3l1119.7,957.9"/>
		<polyline fill="none" stroke="#7A4255" stroke-width="3.0855" stroke-miterlimit="10" points="311,1087.2 894.8,45.6 409.8,1456 
					"/>
		<line fill="none" stroke="#7A4255" stroke-width="3.0855" stroke-miterlimit="10" x1="1147.9" y1="990.2" x2="115" y2="356.1"/>
		<polyline fill="none" stroke="#7A4255" stroke-width="3.0855" stroke-miterlimit="10" points="409.8,1456 19.6,780.4 311,1087.2 
					"/>
		<polyline fill="none" stroke="#7A4255" stroke-width="3.0855" stroke-miterlimit="10" points="115,356.1 19.6,780.4 28.3,32.3 		
			"/>
	</g>
	<g>
		<polygon fill="none" stroke="#7A4255" stroke-width="3.0855" stroke-miterlimit="10" points="1025.4,796.8 1166.7,334.7 35.1,494 
			880.8,1269.9 		"/>
		<path fill="none" stroke="#7A4255" stroke-width="3.0855" stroke-miterlimit="10" d="M438.8-135.8l441.9,1405.7"/>
		<polyline fill="none" stroke="#7A4255" stroke-width="3.0855" stroke-miterlimit="10" points="119.5,908.6 1166.7,334.7 
			7.9,1273.8 		"/>
		<line fill="none" stroke="#7A4255" stroke-width="3.0855" stroke-miterlimit="10" x1="880.8" y1="1269.9" x2="340.8" y2="184.8"/>
		<polyline fill="none" stroke="#7A4255" stroke-width="3.0855" stroke-miterlimit="10" points="7.9,1273.8 35.1,494 119.5,908.6 		
			"/>
		<polyline fill="none" stroke="#7A4255" stroke-width="3.0855" stroke-miterlimit="10" points="340.8,184.8 35.1,494 438.8,-135.8 
					"/>
	</g>
	<g>
		<polygon fill="none" stroke="#7A4255" stroke-width="3.0855" stroke-miterlimit="10" points="126.5,682 126.5,1165.2 1162.1,682 
			126.5,187.3 		"/>
		<path fill="none" stroke="#7A4255" stroke-width="3.0855" stroke-miterlimit="10" d="M960.1,1402.4L126.5,187.3"/>
		<polyline fill="none" stroke="#7A4255" stroke-width="3.0855" stroke-miterlimit="10" points="960.1,310.2 126.5,1165.2 
			960.1,-71.6 		"/>
		<line fill="none" stroke="#7A4255" stroke-width="3.0855" stroke-miterlimit="10" x1="126.5" y1="187.3" x2="960.1" y2="1067.2"/>
		<polyline fill="none" stroke="#7A4255" stroke-width="3.0855" stroke-miterlimit="10" points="960.1,-71.6 1162.1,682 
			960.1,310.2 		"/>
		<polyline fill="none" stroke="#7A4255" stroke-width="3.0855" stroke-miterlimit="10" points="960.1,1067.2 1162.1,682 
			960.1,1402.4 		"/>
	</g>
	<g>
		<polygon fill="none" stroke="#7A4255" stroke-width="3.0855" stroke-miterlimit="10" points="152.4,821.7 285.6,1286.2 
			1147.9,536.2 16.1,346.2 		"/>
		<path fill="none" stroke="#7A4255" stroke-width="3.0855" stroke-miterlimit="10" d="M1152.3,1284.4L16.1,346.2"/>
		<polyline fill="none" stroke="#7A4255" stroke-width="3.0855" stroke-miterlimit="10" points="851.3,234.5 285.6,1286.2 
			746,-132.5 		"/>
		<line fill="none" stroke="#7A4255" stroke-width="3.0855" stroke-miterlimit="10" x1="16.1" y1="346.2" x2="1059.9" y2="962.2"/>
		<polyline fill="none" stroke="#7A4255" stroke-width="3.0855" stroke-miterlimit="10" points="746,-132.5 1147.9,536.2 
			851.3,234.5 		"/>
		<polyline fill="none" stroke="#7A4255" stroke-width="3.0855" stroke-miterlimit="10" points="1059.9,962.2 1147.9,536.2 
			1152.3,1284.4 		"/>
	</g>
	<g>
		<polygon fill="none" stroke="#7A4255" stroke-width="3.0855" stroke-miterlimit="10" points="142,537.4 8.8,1001.9 1137.5,822.9 
			278.3,61.9 		"/>
		<path fill="none" stroke="#7A4255" stroke-width="3.0855" stroke-miterlimit="10" d="M744.7,1459.6L278.3,61.9"/>
		<polyline fill="none" stroke="#7A4255" stroke-width="3.0855" stroke-miterlimit="10" points="1045.8,409.8 8.8,1001.9 1151,42.8 
					"/>
		<line fill="none" stroke="#7A4255" stroke-width="3.0855" stroke-miterlimit="10" x1="278.3" y1="61.9" x2="837.1" y2="1137.4"/>
		<polyline fill="none" stroke="#7A4255" stroke-width="3.0855" stroke-miterlimit="10" points="1151,42.8 1137.5,822.9 
			1045.8,409.8 		"/>
		<polyline fill="none" stroke="#7A4255" stroke-width="3.0855" stroke-miterlimit="10" points="837.1,1137.4 1137.5,822.9 
			744.7,1459.6 		"/>
	</g>
</g>
<g>
	<g id="XMLID_1_">
		<g>
			<path d="M1177.3,667.6c0,15-2.7,29.9-7.8,43.9c-2.5,7.2-5.8,13.8-9.5,20.2c-3.7,6.3-8.2,12.3-13,18c-9.8,11-21.5,20.2-34.7,27
				c-13.9,7.3-29.4,11.2-46.2,11.5l-0.3,0.3c-8,0-16-1-23.4-2.8c-7.2-1.8-14.2-4.3-21.2-7.7c-13.5-6.7-25.2-15.7-35-26.9
				c-10-11.2-17.9-24-23.2-38.1c-5.5-14.2-8.4-29.5-8.4-45.4c0-14.5,2.7-29.2,7.8-43.4v-0.2c5.5-14.2,12.8-27,22-38
				c9.5-11.5,21.4-20.9,35.2-28c14.2-7.3,29.7-11,46.1-11c15.5,0,30.7,3.3,44.9,10.2c6.7,3.2,13,6.8,18.9,11.2
				c6.2,4.5,11.8,10,16.8,16.2l3.8,4.7c7.7,9.3,14.2,20.5,19,33v0.2C1174.5,637.2,1177.3,652.4,1177.3,667.6z M1155.9,706.5
				c4.7-12.3,7-25.5,7-38.9c0-13.5-2.5-27-7.3-40.2c-4.3-11.2-10-21-16.7-29.2l-3.8-4.7c-4.2-5.3-9-9.9-14.2-13.7
				c-5.2-3.7-10.7-7-16.5-9.8c-12.3-5.8-25.4-8.8-38.7-8.8c-14.2,0-27.4,3.2-39.6,9.5c-12.2,6.2-22.5,14.5-30.7,24.4
				c-8.2,9.8-14.9,21.4-19.7,34.2c-4.7,12.5-7,25.5-7,38.6c0,14.2,2.5,27.7,7.3,40.2c4.7,12.5,11.7,24,20.7,33.9
				c8.5,9.9,18.9,17.7,30.7,23.5c5.8,2.8,12.2,5,18.3,6.7c6,1.2,12.7,2,19.7,2c14.5-0.3,27.9-3.7,39.9-9.9c11.7-6,22-14.2,30.5-23.9
				c4.3-5,8.2-10.3,11.5-15.8C1150.8,719,1153.6,712.8,1155.9,706.5z"/>
			<path d="M1163,667.6c0,13.4-2.3,26.5-7,38.9c-2.3,6.3-5.2,12.5-8.5,18c-3.3,5.5-7.2,10.8-11.5,15.8c-8.5,9.7-18.9,17.9-30.5,23.9
				c-12,6.2-25.4,9.5-39.9,9.9c-7,0-13.7-0.8-19.7-2c-6.2-1.7-12.5-3.8-18.3-6.7c-11.9-5.8-22.2-13.7-30.7-23.5
				c-9-9.8-16-21.4-20.7-33.9c-4.8-12.5-7.3-26-7.3-40.2c0-13,2.3-26,7-38.6c4.8-12.8,11.5-24.4,19.7-34.2
				c8.2-9.9,18.5-18.2,30.7-24.4c12.2-6.3,25.4-9.5,39.6-9.5c13.3,0,26.4,3,38.7,8.8c5.8,2.8,11.3,6.2,16.5,9.8
				c5.2,3.8,10,8.3,14.2,13.7l3.8,4.7c6.7,8.2,12.3,18,16.7,29.2C1160.5,640.6,1163,654.1,1163,667.6z M1149.6,667.4
				c0.2-5.8-0.3-11.7-1.3-17.2c-1-5.5-2.7-11.2-4.7-16.7c-1.7-4.5-3.7-8.8-5.8-13c-0.2-0.5-0.5-1.2-0.8-1.7l-2.7-4.3l-57.4,145.7
				l4.3-0.8c1.5-0.3,2.8-0.7,4.2-1c4.7-1.2,9.2-3,13.5-5.2c10-5.2,18.9-12,26.2-20.7c7.5-8.7,13.3-18.7,17.7-29.9
				c2.2-5.8,3.8-11.7,5-17.5C1148.8,679.3,1149.4,673.3,1149.6,667.4z M1125.4,602.2l-0.8-1c-2.8-3.7-6.3-7-10.2-9.8
				c-4.5-3.5-9.7-6.5-14.8-9.2c-10-5.3-21.5-8-34.1-8c-11.8,0-22.9,2.7-33,7.5c-10,5.2-19,12-26.7,20.5
				c-7.5,8.7-13.5,18.8-17.9,30.2c-2.3,5.8-3.8,11.7-4.8,17.4c-1,5.8-1.5,11.7-1.5,17.7c0,12,2,23.4,6,34c2.2,5.5,4.5,10.8,7.3,16
				c2.7,5,5.8,9.7,9.7,14c3.7,4.5,7.9,8.5,12,11.8c4.3,3.5,9.2,6.5,14.7,9.4c5,2.7,10.5,4.7,16,6c4.5,1.2,9.3,1.8,14.4,2h1.7
				L1125.4,602.2z"/>
			<path d="M1148.3,650.3c1,5.5,1.5,11.3,1.3,17.2c-0.2,5.8-0.8,11.8-1.8,17.7c-1.2,5.8-2.8,11.7-5,17.5
				c-4.3,11.2-10.2,21.2-17.7,29.9c-7.3,8.7-16.2,15.5-26.2,20.7c-4.3,2.2-8.8,4-13.5,5.2c-1.3,0.3-2.7,0.7-4.2,1l-4.3,0.8
				l57.4-145.7l2.7,4.3c0.3,0.5,0.7,1.2,0.8,1.7c2.2,4.2,4.2,8.5,5.8,13C1145.6,639.1,1147.3,644.8,1148.3,650.3z M1135.6,667.1
				c0.2-4.8-0.2-9.3-1-13.8l-32,81.1c4.3-3.2,8.3-6.8,11.8-11c6.3-7.5,11.5-16.2,15.2-25.9c2-5,3.3-10,4.3-15
				C1134.9,677.5,1135.4,672.3,1135.6,667.1z"/>
			<path d="M1124.6,601.2l0.8,1l-62.1,158.5h-1.7c-5-0.2-9.8-0.8-14.4-2c-5.5-1.3-11-3.3-16-6c-5.5-2.8-10.3-5.8-14.7-9.4
				c-4.2-3.3-8.3-7.3-12-11.8c-3.8-4.3-7-9-9.7-14c-2.8-5.2-5.2-10.5-7.3-16c-4-10.7-6-22-6-34c0-6,0.5-11.8,1.5-17.7
				c1-5.7,2.5-11.5,4.8-17.4c4.3-11.4,10.3-21.5,17.9-30.2c7.7-8.5,16.7-15.4,26.7-20.5c10.2-4.8,21.2-7.5,33-7.5
				c12.5,0,24,2.7,34.1,8c5.2,2.7,10.3,5.7,14.8,9.2C1118.2,594.2,1121.7,597.5,1124.6,601.2z M1054.3,745.5l54.9-140.5
				c-1-0.8-2.2-1.7-3.2-2.5c-4-2.8-8.3-5.5-12.8-7.8l-0.2-0.2c-8.2-4.2-17.4-6.3-27.5-6.3c-9.7,0-18.5,2-26.5,6
				c-8.5,4.3-16,10.2-22.5,17.3c-3.2,3.7-6.1,7.7-8.6,12c-2.5,4.3-4.8,8.9-6.6,13.7c-1.8,4.8-3.2,9.9-4,14.7
				c-0.8,5-1.3,10.2-1.3,15.4c0,10.2,1.7,20,5.2,29c1.8,5,4,9.8,6.5,14.3c2.3,4.2,5,8,8,11.5l0.2,0.2c3.2,3.7,6.5,7,10,9.8
				c3.5,2.8,7.7,5.5,12.3,7.8c4,2.2,8.3,3.7,12.8,4.8C1052.1,745,1053.1,745.4,1054.3,745.5z"/>
			<path d="M967.9,548.1l-1.5,41.7H864.9l11,6.7l14.3,8.8v181.4h-41.7V628.4l-63.8-38.7h-13.2v-41.5H967.9z M952.7,575.7l0.5-13.3
				H785.8v13.2h3l74.1,44.9v152.2h13.2V613.4l-7.5-4.7l-54.6-33H952.7z"/>
			<polygon points="953.2,562.3 952.7,575.7 814,575.7 868.6,608.7 876.1,613.4 876.1,772.6 862.9,772.6 862.9,620.4 788.8,575.5 
				785.8,575.5 785.8,562.3 			"/>
			<path d="M785.1,675.8L833,786.6h-45.4l-25-57.9l-34.6,58.1h-24.9l-34.4-57.9l-25,57.9h-45.6l47.9-110.6l2.7-6.2l52.7-122h28.7
				L785.1,675.8z M811.5,772.6l-39.4-91l-51.2-119.3h-10l-49.1,113.3l-2.7,6.2l-39.2,90.8h14.5l32.4-74.9l44.4,74.9h8.8l44.6-74.9
				l32.4,74.9H811.5z"/>
			<path d="M772.1,681.6l39.4,91H797l-32.4-74.9l-44.6,74.9h-8.8l-44.4-74.9l-32.4,74.9h-14.5l39.2-90.8l2.7-6.2l49.1-113.3h10
				L772.1,681.6z M758.1,682.8l-42.4-99L673,682.6l42.6,71.9L758.1,682.8z"/>
			<path d="M715.7,583.8l42.4,99l-42.5,71.8L673,682.6L715.7,583.8z M742.3,681.8l-26.5-62.1l-26.9,61.9l26.7,45.2L742.3,681.8z"/>
			<path d="M582.7,745v41.7H415.2V681.5l33-20h-33V548.3h164.9V590H456.7v29.7h84.4v33.9l-84.4,51.1V745H582.7z M568.5,772.6v-13.2
				h-126v-62.7l4.2-2.5l80.3-48.6v-11.7h-84.4v-58.1h123.3v-13.4H429.4v84.8h69.8l-69.8,42.2v83.1H568.5z"/>
			<polygon points="568.5,759.4 568.5,772.6 429.4,772.6 429.4,689.5 499.1,647.3 429.4,647.3 429.4,562.5 565.9,562.5 565.9,575.8 
				442.6,575.8 442.6,633.9 527,633.9 527,645.6 446.7,694.1 442.6,696.7 442.6,759.4 			"/>
			<path d="M344.1,699.8l55.7,87.3h-49.2l-51.2-79.9h-19l-33.9,79.6h-35.5V548.1h101.8c1.7,0,3.2,0.2,4.7,0.3l4.8,0.5
				c3.8,0.5,7.3,1.3,10.9,2.7c2.7,1,5.5,2.3,8.2,3.7l0.3,0.2c4.3,2.3,8.3,4.8,11.9,7.5c4.2,3,7.8,6.5,11.3,10.7l0.3,0.5
				c1.2,1.5,2.3,3,3.5,4.5c1.3,1.8,2.5,3.7,3.7,5.5c1.8,2.8,3.3,5.7,4.5,8.4c0.5,1,1,2.2,1.5,3.3c0.3,1,0.7,1.8,1,2.8
				c0.8,1.8,1.5,3.7,2.2,5.7c0.7,2,1.2,4.2,1.5,6.2c0.3,1.7,0.7,3.3,0.8,4.8l0.3,2.5c0.5,2,0.7,4.2,0.7,6.3v3.5c0,2,0,4.2-0.2,6.3
				c-0.2,2.8-0.5,5.8-1.2,8.7l-1.3,8.7l-1.7,4.8l-1.2,3.2c-0.7,2-1.3,4-2.3,5.8c-0.2,0.5-0.5,0.8-0.7,1.3l-0.3,0.8l-0.2,0.2
				c-0.5,1-1.2,2.2-1.8,3.2l-0.8,1.5l-0.2,0.3c-0.7,1.2-1.5,2.3-2.3,3.5c-1.3,2.2-2.8,4-4.3,5.7l-4.7,5.2l-4.3,4
				c-2,1.8-4.2,3.3-6.4,4.8l-5.2,3.2C345.8,699,344.4,699.7,344.1,699.8z M373.5,773.4l-51.2-80.3l3.2-0.8c0.5-0.2,1-0.3,1.5-0.5
				c13.7-4.5,27-13.2,33.7-26.4l0.2-0.3l0.2-0.2c0.2-0.5,0.3-0.8,0.5-1c3.3-3.3,4.8-9.8,6.2-14.2c1.7-5.3,2.7-10.9,3-16.4
				c0.2-2.3,0.2-4.7,0.2-7c-0.2-4.7-0.8-9.3-1.8-13.9c-2-9.2-6-17.7-11.5-25.2c-1-1.3-2-2.7-3.2-4.2V583c-2.8-3.2-5.8-6-9-8.4
				c-3.2-2.3-6.7-4.5-10.4-6.5c-2.2-1.2-4.5-2.2-6.8-3c-2.3-0.8-4.8-1.5-7.3-1.8l-5.2-0.7c-0.8-0.2-1.8-0.2-2.7-0.2h-87.6v210.3
				h11.8l33.9-79.6h36.2l50.9,79.4l0.3,0.7L373.5,773.4z"/>
			<path d="M322.2,693.1l51.2,80.3l-15-0.2l-0.3-0.7l-50.9-79.4H271l-33.9,79.6h-11.8V562.5h87.6c0.8,0,1.8,0,2.7,0.2l5.2,0.7
				c2.5,0.3,5,1,7.3,1.8c2.3,0.8,4.7,1.8,6.8,3c3.7,2,7.2,4.2,10.4,6.5c3.2,2.3,6.2,5.2,9,8.4v0.2c1.2,1.5,2.2,2.8,3.2,4.2
				c5.5,7.5,9.5,16,11.5,25.2c1,4.5,1.7,9.2,1.8,13.9c0,2.3,0,4.7-0.2,7c-0.3,5.5-1.3,11-3,16.4c-1.3,4.3-2.8,10.8-6.2,14.2
				c-0.2,0.2-0.3,0.5-0.5,1l-0.2,0.2l-0.2,0.3c-6.7,13.2-20,21.9-33.7,26.4c-0.5,0.2-1,0.3-1.5,0.5L322.2,693.1z M357.8,631.4v-3.7
				c0-2.8-0.2-5.7-0.5-8.3c-0.3-1.7-0.5-3.2-1-4.7c-0.3-1.5-0.8-2.8-1.3-4.3l-0.8-2.5l-1.5-3.7l-1.8-3.2v-0.2
				c-0.2-0.5-0.3-0.8-0.7-1c-0.5-0.7-0.8-1.3-1.3-2c-0.8-1.2-1.5-2.2-2.3-3.3c-0.7-1-1.5-1.8-2.5-2.8l-3.7-4c-1-1.2-2.2-2-3.3-2.8
				c-1.5-1-3.2-2-4.7-2.8c-0.7-0.3-1.3-0.8-1.8-1.2c-0.5-0.3-0.8-0.5-1.2-0.7h-0.2c-2.2-1-4-1.8-6-2.5c-0.3-0.2-0.7-0.2-0.8-0.3
				l-2-0.7l-43.7,103.1h36.2c1.8,0,3.7-0.2,5.3-0.3c1.8-0.3,3.5-0.5,5.3-1c2.8-0.8,5.5-1.8,7.8-3.2l2.7-1.5c1.5-1,3-1.8,4.5-2.8
				c1.2-0.8,2.3-1.8,3.3-3l4-4.5c1.2-1.3,2.2-2.7,3-4c1-1.5,1.8-3.2,2.8-4.8c1.2-2.2,2.3-4.7,3.2-7.5c0.7-2.2,1.2-4.3,1.8-6.5
				c0.5-1.8,0.8-3.8,0.8-5.8v-0.2v-0.3C357.6,633.2,357.8,632.2,357.8,631.4z M261.8,682.1l45.2-106.3h-68.4V736l20.7-48.2
				L261.8,682.1z"/>
			<path d="M357.8,627.7v3.7c0,0.8-0.2,1.8-0.3,2.8v0.3v0.2c0,2-0.3,4-0.8,5.8c-0.7,2.2-1.2,4.3-1.8,6.5c-0.8,2.8-2,5.3-3.2,7.5
				c-1,1.7-1.8,3.3-2.8,4.8c-0.8,1.3-1.8,2.7-3,4l-4,4.5c-1,1.2-2.2,2.2-3.3,3c-1.5,1-3,1.8-4.5,2.8l-2.7,1.5
				c-2.3,1.3-5,2.3-7.8,3.2c-1.8,0.5-3.5,0.7-5.3,1c-1.7,0.2-3.5,0.3-5.3,0.3h-36.2l43.7-103.1l2,0.7c0.2,0.2,0.5,0.2,0.8,0.3
				c2,0.7,3.8,1.5,6,2.5h0.2c0.3,0.2,0.7,0.3,1.2,0.7c0.5,0.3,1.2,0.8,1.8,1.2c1.5,0.8,3.2,1.8,4.7,2.8c1.2,0.8,2.3,1.7,3.3,2.8
				l3.7,4c1,1,1.8,1.8,2.5,2.8c0.8,1.2,1.5,2.2,2.3,3.3c0.5,0.7,0.8,1.3,1.3,2c0.3,0.2,0.5,0.5,0.7,1v0.2l1.8,3.2l1.5,3.7l0.8,2.5
				c0.5,1.5,1,2.8,1.3,4.3c0.5,1.5,0.7,3,1,4.7C357.6,622.1,357.8,624.9,357.8,627.7z M343.6,631.2v-3.5c0-2.2-0.2-4.2-0.5-6.2
				c-0.2-1.2-0.3-2.2-0.7-3.2c-0.3-1-0.5-2-1-3l-0.8-2.2l-1-2.3l-1.8-3.3c-0.3-0.5-0.8-1.2-1.2-1.8c-0.5-0.8-1.2-1.7-1.7-2.5
				c-0.3-0.3-0.7-0.8-1.2-1.3l-4.2-4.5c-0.2-0.2-0.2-0.2-0.2-0.2c-0.7-0.3-1.3-0.8-2-1.2l-29.5,69.8l14.9-0.2c1.2,0,2.3,0,3.3-0.2
				c1.3-0.2,2.7-0.5,4-0.7c1.5-0.5,2.8-1,4.2-1.7l2.3-1.3c1.3-0.8,2.7-1.7,4-2.7l0.3-0.3l4.2-4.7c0.8-0.8,1.2-1.5,1.5-1.8
				c0.8-1.5,1.7-3,2.7-4.5c0.7-1.3,1.3-2.8,1.8-4.7c0.5-2,1.2-4,1.7-5.8c0.3-1,0.5-2,0.5-3.2v-1.2L343.6,631.2z"/>
			<path d="M343.6,627.7v3.5l-0.3,1.7v1.2c0,1.2-0.2,2.2-0.5,3.2c-0.5,1.8-1.2,3.8-1.7,5.8c-0.5,1.8-1.2,3.3-1.8,4.7
				c-1,1.5-1.8,3-2.7,4.5c-0.3,0.3-0.7,1-1.5,1.8l-4.2,4.7l-0.3,0.3c-1.3,1-2.7,1.8-4,2.7l-2.3,1.3c-1.3,0.7-2.7,1.2-4.2,1.7
				c-1.3,0.2-2.7,0.5-4,0.7c-1,0.2-2.2,0.2-3.3,0.2l-14.9,0.2l29.5-69.8c0.7,0.3,1.3,0.8,2,1.2c0,0,0,0,0.2,0.2l4.2,4.5
				c0.5,0.5,0.8,1,1.2,1.3c0.5,0.8,1.2,1.7,1.7,2.5c0.3,0.7,0.8,1.3,1.2,1.8l1.8,3.3l1,2.3l0.8,2.2c0.5,1,0.7,2,1,3
				c0.3,1,0.5,2,0.7,3.2C343.4,623.6,343.6,625.6,343.6,627.7z"/>
			<path d="M307.1,575.8l-45.2,106.3l-2.5,5.7L238.6,736V575.8H307.1z M252.8,666.8l32.7-76.8h-32.7V666.8z"/>
			<polygon points="285.5,590 252.8,666.8 252.8,590 			"/>
			<path d="M157.7,699c13.7,3.5,26.4,6.9,39.9,10.4c-6.2,36.9-39.4,66.8-77.3,74.9c-8.2,1.7-16.7,2.8-25.2,2.7
				c-13.3-0.2-26.7-2.8-39-7.8c-20.9-8.3-38.7-23.4-51.2-41.9c-12.3-18-20-39.2-21.9-60.9c-2.5-28.4,5-57.6,20.9-81.3
				c10.7-16,25.2-29.7,42.4-38.5c26.9-13.9,59.9-15.2,87.9-3.7c28,11.5,50.2,36,59.4,64.9c-12.9,4.5-25.7,9.2-38.6,13.7
				c-5.2-12.2-12.9-23.7-23.2-31.9c-10.3-8.2-23.9-13.2-37.1-12c-18.2,42.5-36.2,85.3-54.4,127.8c14,20.4,39.4,31,63.9,29.2
				C128.2,742.7,153.4,722.4,157.7,699z M179.4,719.7l-12.8-3.3c-2.2,6.3-5.3,12.2-10,16.8c-11.3,11.3-25.7,19-40.9,23.5
				c-20.5,5.8-41.7,2.2-59.9-8.5c-2-1.2-3.8-2.3-5.3-3.5l-0.2-0.2c-2-1.3-3.8-2.7-5.5-4.2c-1.7-1.5-3.2-3-4.7-4.3
				c-1.5-1.5-2.8-3-4.3-4.5l-0.2-0.2c-1.5-1.5-3.3-3.7-5.2-6.2c-1.2-1.3-2.2-3-3.3-4.7c-0.7-0.8-1.2-1.7-1.7-2.5l-0.7-1l61.1-143.5
				l2-0.2c1.5-0.2,3-0.2,4.5-0.2c7,0,14.2,0.7,21.4,2.2c1.3,0.2,2.7,0.5,4,0.8c1.2,0.2,2.3,0.7,3.7,1.2c1.8,0.7,3.7,1.3,5.3,2.2
				c1.7,0.7,3.5,1.5,5.3,2.5c1.7,1,3.5,2,5.2,3c1.5,0.8,3.2,2,4.7,3.3c2.7,2.3,5.2,4.8,7.7,7.3c2.3,2.5,4.5,5.3,6.3,8.7l5.8,9.8
				l12.4-4.3l-5.8-10.7c-2.3-4.2-5-8-8.2-11.7c-5.2-6.2-10.8-11-17-14.9c-6.3-3.8-13.8-7.2-22.4-9.5c-8-2.3-17.7-3.5-28.7-3.5h-3.3
				c-1.3,0-2.7,0-3.8,0.2l-5.3,0.7c-4.7,0.5-9.3,1.5-13.7,3c-4.3,1.5-8.5,3.2-12.7,5.2c-11.8,5.8-21.9,13.8-29.9,23.7
				c-4.2,5-8,10.5-11.2,16.2c-3.2,5.7-6,11.9-8.3,18.2c-4.7,12.7-7,26-7,39.6c0,13.3,2.5,26.2,7.2,38.5c0.8,2.5,1.8,5,2.8,7.3
				c1.2,2.5,2.5,5,4,7.5l3.5,5.8c1.3,2.2,3,4.5,4.5,6.8c1.7,2.3,3.5,4.7,5.5,6.8c1.8,2,3.8,4,5.8,5.8l6,5.5c1.8,1.5,3.7,3,5.3,4.2
				c1.7,1.3,3.5,2.5,5.5,3.8c1.3,0.8,2.5,1.7,3.8,2.5c1.3,0.8,2.8,1.7,4.3,2.3l0.2,0.2c2.3,1.3,4.8,2.3,7.5,3.3h0.2
				c1.7,0.7,3.3,1.3,5,1.8c1.5,0.5,3.2,0.8,4.7,1.3c1.5,0.5,3.2,0.8,4.7,1.2s3,0.5,4.5,0.8h0.2c2,0.3,4.2,0.5,6.5,0.7
				c2.2,0.2,4.5,0.2,6.7,0.2c1.5,0,2.8,0,4.3-0.2c26-1.5,52.7-11.7,69.1-32.7c1.2-1.5,2.3-3.2,3.5-4.8
				C175.4,730.5,177.6,725.2,179.4,719.7z"/>
			<path d="M166.5,716.3l12.8,3.3c-1.8,5.5-4,10.8-7.3,15.5c-1.2,1.7-2.3,3.3-3.5,4.8c-16.4,21-43.1,31.2-69.1,32.7
				c-1.5,0.2-2.8,0.2-4.3,0.2c-2.2,0-4.5,0-6.7-0.2c-2.3-0.2-4.5-0.3-6.5-0.7h-0.2c-1.5-0.3-3-0.5-4.5-0.8s-3.2-0.7-4.7-1.2
				c-1.5-0.5-3.2-0.8-4.7-1.3c-1.7-0.5-3.3-1.2-5-1.8h-0.2c-2.7-1-5.2-2-7.5-3.3l-0.2-0.2c-1.5-0.7-3-1.5-4.3-2.3
				c-1.3-0.8-2.5-1.7-3.8-2.5c-2-1.3-3.8-2.5-5.5-3.8c-1.7-1.2-3.5-2.7-5.3-4.2l-6-5.5c-2-1.8-4-3.8-5.8-5.8c-2-2.2-3.8-4.5-5.5-6.8
				c-1.5-2.3-3.2-4.7-4.5-6.8l-3.5-5.8c-1.5-2.5-2.8-5-4-7.5c-1-2.3-2-4.8-2.8-7.3c-4.7-12.3-7.2-25.2-7.2-38.5
				c0-13.5,2.3-26.9,7-39.6c2.3-6.3,5.2-12.5,8.3-18.2c3.2-5.7,7-11.2,11.2-16.2c8-9.8,18-17.9,29.9-23.7c4.2-2,8.4-3.7,12.7-5.2
				c4.3-1.5,9-2.5,13.7-3l5.3-0.7c1.2-0.2,2.5-0.2,3.8-0.2h3.3c11,0,20.7,1.2,28.7,3.5c8.5,2.3,16,5.7,22.4,9.5
				c6.2,3.8,11.9,8.7,17,14.9c3.2,3.7,5.8,7.5,8.2,11.7l5.8,10.7l-12.4,4.3l-5.8-9.8c-1.8-3.3-4-6.2-6.3-8.7c-2.5-2.5-5-5-7.7-7.3
				c-1.5-1.3-3.2-2.5-4.7-3.3c-1.7-1-3.5-2-5.2-3c-1.8-1-3.7-1.8-5.3-2.5c-1.7-0.8-3.5-1.5-5.3-2.2c-1.3-0.5-2.5-1-3.7-1.2
				c-1.3-0.3-2.7-0.7-4-0.8c-7.2-1.5-14.3-2.2-21.4-2.2c-1.5,0-3,0-4.5,0.2l-2,0.2L24.7,717l0.7,1c0.5,0.8,1,1.7,1.7,2.5
				c1.2,1.7,2.2,3.3,3.3,4.7c1.8,2.5,3.7,4.7,5.2,6.2l0.2,0.2c1.5,1.5,2.8,3,4.3,4.5c1.5,1.3,3,2.8,4.7,4.3c1.7,1.5,3.5,2.8,5.5,4.2
				l0.2,0.2c1.5,1.2,3.3,2.3,5.3,3.5c18.2,10.7,39.4,14.3,59.9,8.5c15.2-4.5,29.5-12.2,40.9-23.5
				C161.2,728.5,164.4,722.7,166.5,716.3z M16.9,701.8l54.4-126.5l-5.5,2.2c-2.7,1-5.2,2.2-7.7,3.5c-10,5.3-18.7,12.5-25.9,21
				c-7.2,8.8-12.7,18.9-16.3,30c-2,5.5-3.5,11.2-4.3,16.8c-0.8,5.7-1.3,11.5-1.3,17.4c0,10.3,1.5,20.3,4.7,29.7L16.9,701.8z"/>
			<path d="M71.3,575.3L16.9,701.8l-2-5.8c-3.2-9.3-4.7-19.4-4.7-29.7c0-5.8,0.5-11.7,1.3-17.4c0.8-5.7,2.3-11.3,4.3-16.8
				c3.7-11.2,9.2-21.2,16.3-30c7.2-8.5,15.9-15.7,25.9-21c2.5-1.3,5-2.5,7.7-3.5L71.3,575.3z M28.7,637.6l6.3-14.7
				c-2.3,4.3-4.3,8.8-6,13.7C29,636.6,28.7,637.4,28.7,637.6z"/>
		</g>
		<g>
			<path fill="none" stroke="#FFFFFF" stroke-width="5" stroke-miterlimit="10" d="M95.1,786.9c-13.3-0.2-26.7-2.8-39-7.8
				c-20.9-8.3-38.7-23.4-51.2-41.9c-12.3-18-20-39.2-21.9-60.9c-2.5-28.4,5-57.6,20.9-81.3c10.7-16,25.2-29.7,42.4-38.5
				c26.9-13.9,59.9-15.2,87.9-3.7c28,11.5,50.2,36,59.4,64.9c-12.9,4.5-25.7,9.2-38.6,13.7c-5.2-12.2-12.9-23.7-23.2-31.9
				c-10.3-8.2-23.9-13.2-37.1-12c-18.2,42.5-36.2,85.3-54.4,127.8c14,20.4,39.4,31,63.9,29.2c23.9-1.8,49.1-22.2,53.4-45.6
				c13.7,3.5,26.4,6.9,39.9,10.4c-6.2,36.9-39.4,66.8-77.3,74.9C112.1,785.9,103.6,787.1,95.1,786.9z"/>
			<path fill="none" stroke="#FFFFFF" stroke-width="5" stroke-miterlimit="10" d="M35,622.9c-2.3,4.3-4.3,8.8-6,13.7
				c0,0-0.3,0.8-0.3,1L35,622.9z"/>
			<path fill="none" stroke="#FFFFFF" stroke-width="5" stroke-miterlimit="10" d="M95.1,772.9c-2.2,0-4.5,0-6.7-0.2
				c-2.3-0.2-4.5-0.3-6.5-0.7h-0.2c-1.5-0.3-3-0.5-4.5-0.8s-3.2-0.7-4.7-1.2c-1.5-0.5-3.2-0.8-4.7-1.3c-1.7-0.5-3.3-1.2-5-1.8h-0.2
				c-2.7-1-5.2-2-7.5-3.3l-0.2-0.2c-1.5-0.7-3-1.5-4.3-2.3c-1.3-0.8-2.5-1.7-3.8-2.5c-2-1.3-3.8-2.5-5.5-3.8
				c-1.7-1.2-3.5-2.7-5.3-4.2l-6-5.5c-2-1.8-4-3.8-5.8-5.8c-2-2.2-3.8-4.5-5.5-6.8c-1.5-2.3-3.2-4.7-4.5-6.8l-3.5-5.8
				c-1.5-2.5-2.8-5-4-7.5c-1-2.3-2-4.8-2.8-7.3c-4.7-12.3-7.2-25.2-7.2-38.5c0-13.5,2.3-26.9,7-39.6c2.3-6.3,5.2-12.5,8.3-18.2
				c3.2-5.7,7-11.2,11.2-16.2c8-9.8,18-17.9,29.9-23.7c4.2-2,8.4-3.7,12.7-5.2c4.3-1.5,9-2.5,13.7-3l5.3-0.7
				c1.2-0.2,2.5-0.2,3.8-0.2h3.3c11,0,20.7,1.2,28.7,3.5c8.5,2.3,16,5.7,22.4,9.5c6.2,3.8,11.9,8.7,17,14.9
				c3.2,3.7,5.8,7.5,8.2,11.7l5.8,10.7l-12.4,4.3l-5.8-9.8c-1.8-3.3-4-6.2-6.3-8.7c-2.5-2.5-5-5-7.7-7.3c-1.5-1.3-3.2-2.5-4.7-3.3
				c-1.7-1-3.5-2-5.2-3c-1.8-1-3.7-1.8-5.3-2.5c-1.7-0.8-3.5-1.5-5.3-2.2c-1.3-0.5-2.5-1-3.7-1.2c-1.3-0.3-2.7-0.7-4-0.8
				c-7.2-1.5-14.3-2.2-21.4-2.2c-1.5,0-3,0-4.5,0.2l-2,0.2L24.7,717l0.7,1c0.5,0.8,1,1.7,1.7,2.5c1.2,1.7,2.2,3.3,3.3,4.7
				c1.8,2.5,3.7,4.7,5.2,6.2l0.2,0.2c1.5,1.5,2.8,3,4.3,4.5c1.5,1.3,3,2.8,4.7,4.3c1.7,1.5,3.5,2.8,5.5,4.2l0.2,0.2
				c1.5,1.2,3.3,2.3,5.3,3.5c18.2,10.7,39.4,14.3,59.9,8.5c15.2-4.5,29.5-12.2,40.9-23.5c4.7-4.7,7.8-10.5,10-16.8l12.8,3.3
				c-1.8,5.5-4,10.8-7.3,15.5c-1.2,1.7-2.3,3.3-3.5,4.8c-16.4,21-43.1,31.2-69.1,32.7C98,772.9,96.6,772.9,95.1,772.9z"/>
			<path fill="none" stroke="#FFFFFF" stroke-width="5" stroke-miterlimit="10" d="M65.7,577.5c-2.7,1-5.2,2.2-7.7,3.5
				c-10,5.3-18.7,12.5-25.9,21c-7.2,8.8-12.7,18.9-16.3,30c-2,5.5-3.5,11.2-4.3,16.8c-0.8,5.7-1.3,11.5-1.3,17.4
				c0,10.3,1.5,20.3,4.7,29.7l2,5.8l54.4-126.5L65.7,577.5z"/>
			<path fill="none" stroke="#FFFFFF" stroke-width="5" stroke-miterlimit="10" d="M350.6,787.1l-51.2-79.9h-19l-33.9,79.6h-35.5
				V548.1h101.8c1.7,0,3.2,0.2,4.7,0.3l4.8,0.5c3.8,0.5,7.3,1.3,10.9,2.7c2.7,1,5.5,2.3,8.2,3.7l0.3,0.2c4.3,2.3,8.3,4.8,11.9,7.5
				c4.2,3,7.8,6.5,11.3,10.7l0.3,0.5c1.2,1.5,2.3,3,3.5,4.5c1.3,1.8,2.5,3.7,3.7,5.5c1.8,2.8,3.3,5.7,4.5,8.4c0.5,1,1,2.2,1.5,3.3
				c0.3,1,0.7,1.8,1,2.8c0.8,1.8,1.5,3.7,2.2,5.7c0.7,2,1.2,4.2,1.5,6.2c0.3,1.7,0.7,3.3,0.8,4.8l0.3,2.5c0.5,2,0.7,4.2,0.7,6.3v3.5
				c0,2,0,4.2-0.2,6.3c-0.2,2.8-0.5,5.8-1.2,8.7l-1.3,8.7l-1.7,4.8l-1.2,3.2c-0.7,2-1.3,4-2.3,5.8c-0.2,0.5-0.5,0.8-0.7,1.3
				l-0.3,0.8l-0.2,0.2c-0.5,1-1.2,2.2-1.8,3.2l-0.8,1.5l-0.2,0.3c-0.7,1.2-1.5,2.3-2.3,3.5c-1.3,2.2-2.8,4-4.3,5.7l-4.7,5.2l-4.3,4
				c-2,1.8-4.2,3.3-6.4,4.8l-5.2,3.2c0,0-1.3,0.7-1.7,0.8l55.7,87.3H350.6z"/>
			<polygon fill="none" stroke="#FFFFFF" stroke-width="5" stroke-miterlimit="10" points="252.8,666.8 285.5,590 252.8,590 			"/>
			<path fill="none" stroke="#FFFFFF" stroke-width="5" stroke-miterlimit="10" d="M312.7,665.6c1.2,0,2.3,0,3.3-0.2
				c1.3-0.2,2.7-0.5,4-0.7c1.5-0.5,2.8-1,4.2-1.7l2.3-1.3c1.3-0.8,2.7-1.7,4-2.7l0.3-0.3l4.2-4.7c0.8-0.8,1.2-1.5,1.5-1.8
				c0.8-1.5,1.7-3,2.7-4.5c0.7-1.3,1.3-2.8,1.8-4.7c0.5-2,1.2-4,1.7-5.8c0.3-1,0.5-2,0.5-3.2v-1.2l0.3-1.7v-3.5
				c0-2.2-0.2-4.2-0.5-6.2c-0.2-1.2-0.3-2.2-0.7-3.2c-0.3-1-0.5-2-1-3l-0.8-2.2l-1-2.3l-1.8-3.3c-0.3-0.5-0.8-1.2-1.2-1.8
				c-0.5-0.8-1.2-1.7-1.7-2.5c-0.3-0.3-0.7-0.8-1.2-1.3l-4.2-4.5c-0.2-0.2-0.2-0.2-0.2-0.2c-0.7-0.3-1.3-0.8-2-1.2l-29.5,69.8
				L312.7,665.6z"/>
			<path fill="none" stroke="#FFFFFF" stroke-width="5" stroke-miterlimit="10" d="M358.1,772.6l-50.9-79.4H271l-33.9,79.6h-11.8
				V562.5h87.6c0.8,0,1.8,0,2.7,0.2l5.2,0.7c2.5,0.3,5,1,7.3,1.8c2.3,0.8,4.7,1.8,6.8,3c3.7,2,7.2,4.2,10.4,6.5
				c3.2,2.3,6.2,5.2,9,8.4v0.2c1.2,1.5,2.2,2.8,3.2,4.2c5.5,7.5,9.5,16,11.5,25.2c1,4.5,1.7,9.2,1.8,13.9c0,2.3,0,4.7-0.2,7
				c-0.3,5.5-1.3,11-3,16.4c-1.3,4.3-2.8,10.8-6.2,14.2c-0.2,0.2-0.3,0.5-0.5,1l-0.2,0.2l-0.2,0.3c-6.7,13.2-20,21.9-33.7,26.4
				c-0.5,0.2-1,0.3-1.5,0.5l-3.2,0.8l51.2,80.3l-15-0.2L358.1,772.6z"/>
			<polygon fill="none" stroke="#FFFFFF" stroke-width="5" stroke-miterlimit="10" points="238.6,736 259.3,687.8 261.8,682.1 
				307.1,575.8 238.6,575.8 			"/>
			<path fill="none" stroke="#FFFFFF" stroke-width="5" stroke-miterlimit="10" d="M276.5,679.8h36.2c1.8,0,3.7-0.2,5.3-0.3
				c1.8-0.3,3.5-0.5,5.3-1c2.8-0.8,5.5-1.8,7.8-3.2l2.7-1.5c1.5-1,3-1.8,4.5-2.8c1.2-0.8,2.3-1.8,3.3-3l4-4.5c1.2-1.3,2.2-2.7,3-4
				c1-1.5,1.8-3.2,2.8-4.8c1.2-2.2,2.3-4.7,3.2-7.5c0.7-2.2,1.2-4.3,1.8-6.5c0.5-1.8,0.8-3.8,0.8-5.8v-0.2v-0.3c0.2-1,0.3-2,0.3-2.8
				v-3.7c0-2.8-0.2-5.7-0.5-8.3c-0.3-1.7-0.5-3.2-1-4.7c-0.3-1.5-0.8-2.8-1.3-4.3l-0.8-2.5l-1.5-3.7l-1.8-3.2v-0.2
				c-0.2-0.5-0.3-0.8-0.7-1c-0.5-0.7-0.8-1.3-1.3-2c-0.8-1.2-1.5-2.2-2.3-3.3c-0.7-1-1.5-1.8-2.5-2.8l-3.7-4c-1-1.2-2.2-2-3.3-2.8
				c-1.5-1-3.2-2-4.7-2.8c-0.7-0.3-1.3-0.8-1.8-1.2c-0.5-0.3-0.8-0.5-1.2-0.7h-0.2c-2.2-1-4-1.8-6-2.5c-0.3-0.2-0.7-0.2-0.8-0.3
				l-2-0.7L276.5,679.8z"/>
			<polygon fill="none" stroke="#FFFFFF" stroke-width="5" stroke-miterlimit="10" points="415.2,786.8 415.2,681.5 448.2,661.4 
				415.2,661.4 415.2,548.3 580.1,548.3 580.1,590 456.7,590 456.7,619.7 541.2,619.7 541.2,653.6 456.7,704.7 456.7,745 582.7,745 
				582.7,786.8 			"/>
			<polygon fill="none" stroke="#FFFFFF" stroke-width="5" stroke-miterlimit="10" points="429.4,772.6 429.4,689.5 499.1,647.3 
				429.4,647.3 429.4,562.5 565.9,562.5 565.9,575.8 442.6,575.8 442.6,633.9 527,633.9 527,645.6 446.7,694.1 442.6,696.7 
				442.6,759.4 568.5,759.4 568.5,772.6 			"/>
			<polygon fill="none" stroke="#FFFFFF" stroke-width="5" stroke-miterlimit="10" points="787.7,786.6 762.6,728.7 728.1,786.8 
				703.2,786.8 668.8,728.9 643.8,786.8 598.2,786.8 646.1,676.1 648.8,670 701.5,548 730.2,548 785.1,675.8 833,786.6 			"/>
			<polygon fill="none" stroke="#FFFFFF" stroke-width="5" stroke-miterlimit="10" points="715.6,726.9 742.3,681.8 715.7,619.7 
				688.9,681.6 			"/>
			<polygon fill="none" stroke="#FFFFFF" stroke-width="5" stroke-miterlimit="10" points="797,772.6 764.6,697.7 720.1,772.6 
				711.2,772.6 666.8,697.7 634.5,772.6 619.9,772.6 659.2,681.8 661.8,675.6 710.9,562.3 720.9,562.3 772.1,681.6 811.5,772.6 			
				"/>
			<polygon fill="none" stroke="#FFFFFF" stroke-width="5" stroke-miterlimit="10" points="673,682.6 715.6,754.6 758.1,682.8 
				715.7,583.8 			"/>
			<polygon fill="none" stroke="#FFFFFF" stroke-width="5" stroke-miterlimit="10" points="848.6,786.8 848.6,628.4 784.8,589.7 
				771.6,589.7 771.6,548.1 967.9,548.1 966.4,589.9 864.9,589.9 875.9,596.5 890.3,605.4 890.3,786.8 			"/>
			<polygon fill="none" stroke="#FFFFFF" stroke-width="5" stroke-miterlimit="10" points="862.9,772.6 862.9,620.4 788.8,575.5 
				785.8,575.5 785.8,562.3 953.2,562.3 952.7,575.7 814,575.7 868.6,608.7 876.1,613.4 876.1,772.6 			"/>
			<path fill="none" stroke="#FFFFFF" stroke-width="5" stroke-miterlimit="10" d="M1065.7,788.6c-8,0-16-1-23.4-2.8
				c-7.2-1.8-14.2-4.3-21.2-7.7c-13.5-6.7-25.2-15.7-35-26.9c-10-11.2-17.9-24-23.2-38.1c-5.5-14.2-8.4-29.5-8.4-45.4
				c0-14.5,2.7-29.2,7.8-43.4v-0.2c5.5-14.2,12.8-27,22-38c9.5-11.5,21.4-20.9,35.2-28c14.2-7.3,29.7-11,46.1-11
				c15.5,0,30.7,3.3,44.9,10.2c6.7,3.2,13,6.8,18.9,11.2c6.2,4.5,11.8,10,16.8,16.2l3.8,4.7c7.7,9.3,14.2,20.5,19,33v0.2
				c5.3,14.7,8.2,29.9,8.2,45.1c0,15-2.7,29.9-7.8,43.9c-2.5,7.2-5.8,13.8-9.5,20.2c-3.7,6.3-8.2,12.3-13,18
				c-9.8,11-21.5,20.2-34.7,27c-13.9,7.3-29.4,11.2-46.2,11.5L1065.7,788.6z"/>
			<path fill="none" stroke="#FFFFFF" stroke-width="5" stroke-miterlimit="10" d="M1109.2,605c-1-0.8-2.2-1.7-3.2-2.5
				c-4-2.8-8.3-5.5-12.8-7.8l-0.2-0.2c-8.2-4.2-17.4-6.3-27.5-6.3c-9.7,0-18.5,2-26.5,6c-8.5,4.3-16,10.2-22.5,17.3
				c-3.2,3.7-6.1,7.7-8.6,12c-2.5,4.3-4.8,8.9-6.6,13.7c-1.8,4.8-3.2,9.9-4,14.7c-0.8,5-1.3,10.2-1.3,15.4c0,10.2,1.7,20,5.2,29
				c1.8,5,4,9.8,6.5,14.3c2.3,4.2,5,8,8,11.5l0.2,0.2c3.2,3.7,6.5,7,10,9.8c3.5,2.8,7.7,5.5,12.3,7.8c4,2.2,8.3,3.7,12.8,4.8
				c1.2,0.2,2.2,0.5,3.3,0.7L1109.2,605z"/>
			<path fill="none" stroke="#FFFFFF" stroke-width="5" stroke-miterlimit="10" d="M1102.5,734.4c4.3-3.2,8.3-6.8,11.8-11
				c6.3-7.5,11.5-16.2,15.2-25.9c2-5,3.3-10,4.3-15c1-5,1.5-10.2,1.7-15.4c0.2-4.8-0.2-9.3-1-13.8L1102.5,734.4z"/>
			<path fill="none" stroke="#FFFFFF" stroke-width="5" stroke-miterlimit="10" d="M1065.5,774.1c-7,0-13.7-0.8-19.7-2
				c-6.2-1.7-12.5-3.8-18.3-6.7c-11.9-5.8-22.2-13.7-30.7-23.5c-9-9.8-16-21.4-20.7-33.9c-4.8-12.5-7.3-26-7.3-40.2
				c0-13,2.3-26,7-38.6c4.8-12.8,11.5-24.4,19.7-34.2c8.2-9.9,18.5-18.2,30.7-24.4c12.2-6.3,25.4-9.5,39.6-9.5
				c13.3,0,26.4,3,38.7,8.8c5.8,2.8,11.3,6.2,16.5,9.8c5.2,3.8,10,8.3,14.2,13.7l3.8,4.7c6.7,8.2,12.3,18,16.7,29.2
				c4.8,13.2,7.3,26.7,7.3,40.2c0,13.4-2.3,26.5-7,38.9c-2.3,6.3-5.2,12.5-8.5,18c-3.3,5.5-7.2,10.8-11.5,15.8
				c-8.5,9.7-18.9,17.9-30.5,23.9C1093.4,770.4,1080,773.7,1065.5,774.1z"/>
			<path fill="none" stroke="#FFFFFF" stroke-width="5" stroke-miterlimit="10" d="M1032.5,581.7c-10,5.2-19,12-26.7,20.5
				c-7.5,8.7-13.5,18.8-17.9,30.2c-2.3,5.8-3.8,11.7-4.8,17.4c-1,5.8-1.5,11.7-1.5,17.7c0,12,2,23.4,6,34c2.2,5.5,4.5,10.8,7.3,16
				c2.7,5,5.8,9.7,9.7,14c3.7,4.5,7.9,8.5,12,11.8c4.3,3.5,9.2,6.5,14.7,9.4c5,2.7,10.5,4.7,16,6c4.5,1.2,9.3,1.8,14.4,2h1.7
				l62.1-158.5l-0.8-1c-2.8-3.7-6.3-7-10.2-9.8c-4.5-3.5-9.7-6.5-14.8-9.2c-10-5.3-21.5-8-34.1-8
				C1053.7,574.2,1042.6,576.8,1032.5,581.7z"/>
			<path fill="none" stroke="#FFFFFF" stroke-width="5" stroke-miterlimit="10" d="M1134.3,614.5l-57.4,145.7l4.3-0.8
				c1.5-0.3,2.8-0.7,4.2-1c4.7-1.2,9.2-3,13.5-5.2c10-5.2,18.9-12,26.2-20.7c7.5-8.7,13.3-18.7,17.7-29.9c2.2-5.8,3.8-11.7,5-17.5
				c1-5.8,1.7-11.8,1.8-17.7c0.2-5.8-0.3-11.7-1.3-17.2c-1-5.5-2.7-11.2-4.7-16.7c-1.7-4.5-3.7-8.8-5.8-13c-0.2-0.5-0.5-1.2-0.8-1.7
				L1134.3,614.5z"/>
		</g>
	</g>
</g>
</svg>
