<svg xmlns="http://www.w3.org/2000/svg" viewBox="-1 474.9 1201.8 250.3">
  <path fill="none" stroke="#FFF" stroke-width="7" stroke-miterlimit="10" d="M115.1 720.2c-2.5 0-5-.2-7.7-.2-2.7-.2-5.2-.5-7.5-.7l-.8-.2c-1.5-.3-3-.5-4.5-.8-2-.3-3.8-.8-5.8-1.3-1.7-.5-3.3-.8-5-1.5-2.2-.7-4.3-1.5-6.3-2.3-3.2-1.2-6-2.5-8.8-4-1.8-.8-3.8-2-5.5-3-1.2-.8-2.3-1.5-3.7-2.2l-.3-.2c-2.2-1.3-4-2.7-6-4.2-2.2-1.5-4.3-3.2-6.3-5l-.2-.2-6.2-5.8c-2.3-2.2-4.5-4.3-6.5-6.5-2.5-2.7-4.7-5.5-6.7-8.5-1.7-2.3-3.2-4.8-4.8-7.2l-3.7-6c-2-3.2-3.7-6.3-5-9.7-1-2.3-2-4.8-3-7.5-5.3-13.9-8.2-28.5-8.2-43.7 0-15.2 2.7-30.2 7.8-44.4 2.7-7.2 5.8-13.9 9.3-20.2 3.7-6.5 7.8-12.5 12.7-18.2 9.2-11.5 20.9-20.9 34.4-27.7l.2-.2c4.7-2.3 9.5-4.2 14.4-5.8 5.2-1.7 10.8-3 16.4-3.7l5.3-.7c1.7-.2 3.7-.3 5.5-.3h3.3c12.3 0 23.2 1.3 32.5 4 9.7 2.8 18.4 6.5 25.9 11 14.2 8.5 24.4 21.1 32.2 35.6 1 1.8 10.6 22.1 10.6 22.1l-37.8 13.5c-2.1-3.5-4.2-7-6.3-10.6-3-5.1-5.7-10.4-9.6-14.9-3-3.5-6.6-6.6-10.5-9.1-4-2.6-8.4-4.2-12.7-6.2l-.5-.2c-.7-.3-1.3-.5-1.8-.7-1-.2-2-.5-3.2-.7h-.2c-5.3-1-10.5-1.7-15.7-1.8l-54.4 128c.3.5.7.8 1 1.3 1.8 2.5 3.2 3.8 3.8 4.7l.2.2.2.2c1.3 1.5 2.5 2.7 3.8 3.8 1.3 1.3 2.7 2.7 4.2 4 1.2 1 2.5 2 3.8 3l.3.2.5.3c.7.5 2 1.3 3.8 2.5l6.7 3.8 2.8 1.3c4.7 2.2 9.8 3.5 15.5 4.2h.2c2.5.3 5.2.5 8 .5 2.2 0 4.5-.2 7-.7 2.5-.3 5.3-1 8.2-1.8 1.8-.7 3.5-1.2 5.3-1.7.3-.2.7-.2.8-.3l1-.5 1.3-.5c8.9-3.4 18-8.6 24.8-15.3 7.3-7.1 9.6-16.6 12.9-25.9l39.9 10.4c-1.5 7.2-3.7 13.5-6.5 20.1-3.6 8.3-7.5 15.9-13.9 22.2-.8.8-1.5 1.7-2.4 2.5-2.3 2.3-4.7 4.5-7.2 6.5-2.7 2.2-5.3 4.2-8.2 6.2-1.3.8-2.7 1.8-4.2 2.7-1.3.8-2.5 1.5-3.8 2.3-2 1.3-4 2.3-6 3.3-1.7.8-3.3 1.7-4.8 2.3-6 2.7-11.7 4.7-17.2 6-9.7 2.8-18.7 4.1-27.1 4.1zM55.1 556c-2.3 4.3-4.3 8.8-6 13.7 0 0-.3.8-.3 1l6.3-14.7z"/>
  <path fill="none" stroke="#FFF" stroke-width="7" stroke-miterlimit="10" d="M115.1 706c-2.2 0-4.5 0-6.7-.2-2.3-.2-4.5-.3-6.5-.7h-.2c-1.5-.3-3-.5-4.5-.8-1.5-.3-3.2-.7-4.7-1.2s-3.2-.8-4.7-1.3c-1.7-.5-3.3-1.2-5-1.8h-.2c-2.7-1-5.2-2-7.5-3.3l-.2-.2c-1.5-.7-3-1.5-4.3-2.3-1.3-.8-2.5-1.7-3.8-2.5-2-1.3-3.8-2.5-5.5-3.8-1.7-1.2-3.5-2.7-5.3-4.2l-6-5.5c-2-1.8-4-3.8-5.8-5.8-2-2.2-3.8-4.5-5.5-6.8-1.5-2.3-3.2-4.7-4.5-6.8l-3.5-5.8c-1.5-2.5-2.8-5-4-7.5-1-2.3-2-4.8-2.8-7.3-4.7-12.3-7.2-25.2-7.2-38.5 0-13.5 2.3-26.9 7-39.5 2.3-6.3 5.2-12.5 8.3-18.2s7-11.2 11.2-16.2c8-9.8 18-17.9 29.9-23.7 4.2-2 8.3-3.7 12.7-5.2 4.3-1.5 9-2.5 13.7-3l5.3-.7c1.2-.2 2.5-.2 3.8-.2h3.3c11 0 20.7 1.2 28.7 3.5 8.5 2.3 16 5.7 22.4 9.5 6.2 3.8 11.8 8.7 17 14.9 3.2 3.7 5.8 7.5 8.2 11.7l5.8 10.7-12.3 4.3-5.8-9.8c-1.8-3.3-4-6.2-6.3-8.7-2.5-2.5-5-5-7.7-7.3-1.5-1.3-3.2-2.5-4.7-3.3-1.7-1-3.5-2-5.2-3-1.8-1-3.7-1.8-5.3-2.5-1.7-.8-3.5-1.5-5.3-2.2-1.3-.5-2.5-1-3.7-1.2-1.3-.3-2.7-.7-4-.8-7.2-1.5-14.4-2.2-21.4-2.2-1.5 0-3 0-4.5.2l-2 .2-61.1 143.1.7 1c.5.8 1 1.7 1.7 2.5 1.2 1.7 2.2 3.3 3.3 4.7 1.8 2.5 3.7 4.7 5.2 6.2l.2.2c1.5 1.5 2.8 3 4.3 4.5 1.5 1.3 3 2.8 4.7 4.3 1.7 1.5 3.5 2.8 5.5 4.2l.2.2c1.5 1.2 3.3 2.3 5.3 3.5l7.2 4 3.3 1.7c6.2 2.8 12.8 4.7 20 5.3 3.2.3 6.5.7 9.8.7 2.8 0 6-.3 9.3-.8 3.2-.5 6.7-1.3 10.2-2.3 1.7-.5 3.3-1 4.8-1.5 1.2-.3 2.5-.8 3.5-1.3h.2l.3-.2c3.7-1.3 7.7-3.2 12-5.7h.2c2.7-1.5 5.3-3 7.8-4.7s4.8-3.5 7-5.5l3.2-2.8 1.8-1.8c4.8-4.8 7.9-10.4 10-16.9 4.3 1.1 8.6 2.2 12.8 3.3l-1.3 3.8c-1.7 4.5-3.7 8.5-6 11.7-1.2 1.7-2.3 3.3-3.5 4.8s-2.7 3.2-4.2 4.7c-2 2-4 3.8-6.2 5.7s-4.5 3.5-6.8 5.2c-1.2.8-2.5 1.7-3.7 2.3-1.2.8-2.5 1.5-3.7 2.2-1.7 1-3.3 2-4.8 2.7-1.7.8-3.2 1.5-4.7 2.2-5.2 2.3-10 4-14.5 5-9.6 1.7-17.5 2.8-24.7 2.8zM85.8 510.6c-2.7 1-5.2 2.2-7.7 3.5-10 5.3-18.7 12.5-25.9 21-7.2 8.8-12.7 18.9-16.4 30-2 5.5-3.5 11.2-4.3 16.9s-1.3 11.5-1.3 17.4c0 10.3 1.5 20.4 4.7 29.7l2 5.8 54.4-126.5-5.5 2.2zm284.5 209.3l-50.9-79.6h-19l-33.9 79.6H231V481.3h101.8c1.7 0 3.2.2 4.7.3l4.8.5c3.8.5 7.3 1.3 10.8 2.7 2.7 1 5.5 2.3 8.2 3.7l.3.2c4.3 2.3 8.3 4.8 11.8 7.5 4.2 3 7.8 6.5 11.3 10.7l.3.5 3.5 4.5c1.3 1.8 2.5 3.7 3.7 5.5 1.8 2.8 3.3 5.7 4.5 8.3.5 1 1 2.2 1.5 3.3.3 1 .7 1.8 1 2.8.8 1.8 1.5 3.7 2.2 5.7.7 2 1.2 4.2 1.5 6.2.3 1.7.7 3.3.8 4.8l.3 2.5c.5 2 .7 4.2.7 6.3v3.5c0 2 0 4.2-.2 6.3-.2 2.8-.5 5.8-1.2 8.7l-1.3 8.7-1.7 4.8-1.2 3.2c-.7 2-1.3 4-2.3 5.8-.2.5-.5.8-.7 1.3l-.3.8-.2.2c-.5 1-1.2 2.2-1.8 3.2l-.8 1.5-.2.3c-.7 1.2-1.5 2.3-2.3 3.5-1.3 2.2-2.8 4-4.3 5.7l-4.7 5.2-4.3 4c-2 1.8-4.2 3.3-6.3 4.8l-5.2 3.2-1.7.8 55.7 87.3h-49.4v-.2zm-97.5-120l32.7-76.8h-32.7v76.8zm59.9-1.2c1.2 0 2.3 0 3.3-.2 1.3-.2 2.7-.5 4-.7 1.5-.5 2.8-1 4.2-1.7l2.3-1.3c1.3-.8 2.7-1.7 4-2.7l.3-.3 4.2-4.7c.8-.8 1.2-1.5 1.5-1.8.8-1.5 1.7-3 2.7-4.5.7-1.3 1.3-2.8 1.8-4.7.5-2 1.2-4 1.7-5.8.3-1 .5-2 .5-3.2V566l.3-1.7v-3.5c0-2.2-.2-4.2-.5-6.2-.2-1.2-.3-2.2-.7-3.2-.3-1-.5-2-1-3l-.8-2.2-1-2.3-1.8-3.3c-.3-.5-.8-1.2-1.2-1.8-.5-.8-1.2-1.7-1.7-2.5-.3-.3-.7-.8-1.2-1.3l-4.2-4.5-.2-.2c-.7-.3-1.3-.8-2-1.2l-29.5 69.8h14.9l.1-.2z"/>
  <path fill="none" stroke="#FFF" stroke-width="7" stroke-miterlimit="10" d="M378.1 705.7l-50.9-79.4H291l-33.9 79.6h-11.8V495.6h87.6c.8 0 1.8 0 2.7.2l5.2.7c2.5.3 5 1 7.3 1.8s4.7 1.8 6.8 3c3.7 2 7.2 4.2 10.3 6.5 3.2 2.3 6.2 5.2 9 8.3v.2c1.2 1.5 2.2 2.8 3.2 4.2 1 1.5 2.2 3 3.2 4.5 1.5 2.3 2.7 4.7 3.7 6.8.3.8.8 1.7 1.2 2.7l1 2.5v.2c.7 1.5 1.2 3 1.7 4.7.5 1.7.8 3.2 1.2 4.8.3 1.3.5 2.5.7 3.7l.3 3.2v.2c.3 1.2.5 2.5.5 3.8v3.5c0 2 0 3.8-.2 5.8 0 2-.3 4.2-.8 6.3l-1.7 7.8-1.3 3.7-1.3 3.7v.2c-.3 1.3-.8 2.5-1.3 3.5-.5.8-.8 1.7-1.2 2.5l-.2.2c-.3.8-.8 1.5-1.3 2.2-.2.2-.3.5-.5 1l-.2.2-.2.3c-.7 1.2-1.5 2.3-2.2 3.5-.8 1.3-1.8 2.5-2.8 3.5l-4.3 4.8-3.8 3.5c-1.3 1.2-2.8 2.3-4.5 3.5l-4.3 2.7h-.2c-1.2.7-2.3 1.2-3.3 1.7-1.2.5-2.2 1-3.5 1.5-1.5.5-3.2 1.2-4.7 1.7l-1.5.5-3.2.8 51.2 80.3-14.7.3-.8-1.1zm-119.4-36.5l20.7-48.2 2.5-5.7L327.1 509h-68.4v160.2zm37.8-56.3h36.2c1.8 0 3.7-.2 5.3-.3 1.8-.3 3.5-.5 5.3-1 2.8-.8 5.5-1.8 7.8-3.2l2.7-1.5c1.5-1 3-1.8 4.5-2.8 1.2-.8 2.3-1.8 3.3-3l4-4.5c1.2-1.3 2.2-2.7 3-4 1-1.5 1.8-3.2 2.8-4.8 1.2-2.2 2.3-4.7 3.2-7.5.7-2.2 1.2-4.3 1.8-6.5.5-1.8.8-3.8.8-5.8v-.5c.2-1 .3-2 .3-2.8V561c0-2.8-.2-5.7-.5-8.3-.3-1.7-.5-3.2-1-4.7-.3-1.5-.8-2.8-1.3-4.3l-.8-2.5-1.5-3.7-1.8-3.2v-.3c-.2-.5-.3-.8-.7-1-.5-.7-.8-1.3-1.3-2-.8-1.2-1.5-2.2-2.3-3.3-.7-1-1.5-1.8-2.5-2.8l-3.7-4c-1-1.2-2.2-2-3.3-2.8-1.5-1-3.2-2-4.7-2.8-.7-.3-1.3-.8-1.8-1.2-.5-.3-.8-.5-1.2-.7h-.2c-2.2-1-4-1.8-6-2.5-.3-.2-.7-.2-.8-.3l-2-.7-43.6 103zm138.7 107V614.6l33-20h-33V481.4h164.9v41.7H476.8v29.7h84.4v33.9l-84.4 51.1v40.4h126v41.7H435.2z"/>
  <path fill="none" stroke="#FFF" stroke-width="7" stroke-miterlimit="10" d="M449.4 705.7v-83.1l69.8-42.2h-69.8v-84.8h136.5V509H462.6v58H547v11.7l-80.3 48.6-4.2 2.5v62.7h126v13.2H449.4zm358.3 14.2l-25-58.1-34.5 58.1h-24.9L688.9 662l-25 57.9h-45.6l47.9-110.6 2.7-6.2 52.7-122h28.7l54.9 127.8 47.9 110.8-45.4.2zM735.6 660l26.7-45.1-26.5-62.1-26.9 61.9 26.7 45.3z"/>
  <path fill="none" stroke="#FFF" stroke-width="7" stroke-miterlimit="10" d="M817 705.7l-32.4-74.9-44.6 74.9h-8.8l-44.4-74.9-32.4 74.9H640l39.2-90.8 2.7-6.2L731 495.4h10l51.2 119.3 39.4 90.9H817zm-124-89.9l42.6 71.9 42.6-71.8-42.4-99-42.8 98.9zm175.6 104.1V561.5l-63.7-38.7h-13.2v-41.6h196.2l-1.5 41.7H884.9l11 6.7 14.4 8.8v181.4l-41.7.1z"/>
  <path fill="none" stroke="#FFF" stroke-width="7" stroke-miterlimit="10" d="M882.9 705.7V553.5l-74.1-44.9h-3v-13.2h167.4l-.5 13.4H834l54.6 33 7.5 4.7v159.2h-13.2zm203 15.7c-16.9-.3-32.4-4.2-46.2-11.5-13.2-6.8-24.9-16-34.7-27-4.8-5.7-9.3-11.7-13-18s-7-13-9.5-20.2c-5.2-14-7.8-28.9-7.8-43.9 0-15.2 2.8-30.4 8.2-45.1v-.2c4.8-12.5 11.3-23.7 19-33l3.8-4.7c5-6.2 10.7-11.7 16.9-16.2 5.8-4.3 12.2-8 18.9-11.2 14.2-6.8 29.4-10.2 44.9-10.2 16.4 0 31.9 3.7 46.1 11 13.9 7.2 25.7 16.5 35.2 28 9.2 11 16.5 23.9 22 38v.2c5.2 14.2 7.8 28.9 7.8 43.4 0 15.9-2.8 31.2-8.3 45.4-5.3 14-13.2 26.9-23.2 38-9.8 11.2-21.5 20.2-35 26.9-7 3.3-14 5.8-21.2 7.7-7.3 1.8-15.4 2.8-23.4 2.8l-.5-.2zm11.6-42.7c1.2-.2 2.2-.5 3.3-.7 4.5-1.2 8.8-2.7 12.8-4.8 4.7-2.3 8.8-5 12.3-7.8s6.8-6.2 10-9.8l.2-.2c3-3.5 5.7-7.3 8-11.5 2.5-4.5 4.7-9.3 6.5-14.4 3.5-9 5.2-18.9 5.2-29 0-5.2-.5-10.3-1.3-15.4-.8-4.8-2.2-9.8-4-14.7-3.7-9.7-8.8-18.4-15.2-25.7-6.5-7.2-14-13-22.5-17.4-8-4-16.9-6-26.5-6-10.2 0-19.4 2.2-27.5 6.3l-.2.2c-4.5 2.3-8.8 5-12.8 7.8-1 .8-2.2 1.7-3.2 2.5l54.9 140.6zm-80.2-92.3c-.8 4.5-1.2 9-1 13.9.2 5.2.7 10.3 1.7 15.4 1 5 2.3 10 4.3 15 3.7 9.7 8.8 18.4 15.2 25.9 3.5 4.2 7.5 7.8 11.8 11l-32-81.2z"/>
  <path fill="none" stroke="#FFF" stroke-width="7" stroke-miterlimit="10" d="M1086.2 707.2c-14.5-.3-27.9-3.7-39.9-9.8-11.7-6-22-14.2-30.5-23.9-4.3-5-8.2-10.3-11.5-15.9-3.3-5.5-6.2-11.7-8.5-18-4.7-12.3-7-25.5-7-38.9 0-13.5 2.5-27 7.3-40.2 4.3-11.2 10-21 16.7-29.2l3.8-4.7c4.2-5.3 9-9.8 14.2-13.7 5.2-3.7 10.7-7 16.5-9.8 12.3-5.8 25.4-8.8 38.7-8.8 14.2 0 27.4 3.2 39.5 9.5 12.2 6.2 22.5 14.5 30.7 24.4 8.2 9.8 14.9 21.4 19.7 34.2 4.7 12.5 7 25.5 7 38.5 0 14.2-2.5 27.7-7.3 40.2-4.7 12.5-11.7 24-20.7 33.9-8.5 9.8-18.9 17.7-30.7 23.5-5.8 2.8-12.2 5-18.4 6.7-5.9 1.2-12.6 2-19.6 2zm0-199.9c-12.5 0-24 2.7-34 8-5.2 2.7-10.3 5.7-14.9 9.2-3.8 2.8-7.3 6.2-10.2 9.8l-.8 1 62.1 158.5h1.7c5-.2 9.8-.8 14.4-2 5.5-1.3 11-3.3 16-6 5.5-2.8 10.3-5.8 14.7-9.3 4.2-3.3 8.3-7.3 12-11.8 3.8-4.3 7-9 9.7-14 2.8-5.2 5.2-10.5 7.3-16 4-10.7 6-22 6-34 0-6-.5-11.8-1.5-17.7-1-5.7-2.5-11.5-4.8-17.4-4.3-11.3-10.3-21.5-17.9-30.2-7.7-8.5-16.7-15.4-26.7-20.5-10.2-4.9-21.3-7.6-33.1-7.6zm-71.4 44.7c-.3.5-.7 1.2-.8 1.7-2.2 4.2-4.2 8.5-5.8 13-2 5.5-3.7 11.2-4.7 16.7s-1.5 11.3-1.3 17.2c.2 5.8.8 11.8 1.8 17.7 1.2 5.8 2.8 11.7 5 17.5 4.3 11.2 10.2 21.2 17.7 29.9 7.3 8.7 16.2 15.5 26.2 20.7 4.3 2.2 8.8 4 13.5 5.2 1.3.3 2.7.7 4.2 1l4.3.8-57.4-145.7-2.7 4.3z"/>
</svg>
