<?xml version="1.0" encoding="utf-8"?>
<!-- Generator: Adobe Illustrator 18.0.0, SVG Export Plug-In . SVG Version: 6.00 Build 0)  -->
<!DOCTYPE svg PUBLIC "-//W3C//DTD SVG 1.1//EN" "http://www.w3.org/Graphics/SVG/1.1/DTD/svg11.dtd">
<svg version="1.1" id="Слой_1" xmlns="http://www.w3.org/2000/svg" xmlns:xlink="http://www.w3.org/1999/xlink" x="0px" y="0px"
	 viewBox="-0.5 475.4 1200.8 249.3" enable-background="new -0.5 475.4 1200.8 249.3" xml:space="preserve">
<g>
	<path fill="#FFFFFF" stroke="#FFFFFF" stroke-width="3" stroke-miterlimit="10" d="M115.1,721.7c-1.2,0-2.5,0-3.8-0.1
		c-1.3,0-2.6-0.1-3.9-0.1c-1.6-0.1-3-0.2-4.4-0.4c-1.1-0.1-2.2-0.2-3.2-0.3l-0.2,0l-0.8-0.2c-0.8-0.2-1.5-0.3-2.2-0.4
		c-0.8-0.1-1.5-0.3-2.3-0.4c-1.6-0.3-3.2-0.7-4.9-1.1l-1-0.3c-0.6-0.2-1.2-0.3-1.7-0.5c-1.1-0.3-2.3-0.6-3.4-1.1
		c-1.9-0.6-4-1.4-6.4-2.4c-2.9-1.1-5.7-2.4-9-4.1c-1.8-0.8-3.8-2-5.6-3l-0.1-0.1c-1-0.7-2.1-1.4-3.5-2l-0.4-0.2
		c-2.1-1.3-3.9-2.6-6.1-4.2c-2.4-1.7-4.6-3.4-6.5-5.1l-0.2-0.2l-6.1-5.8c-2.3-2.2-4.6-4.4-6.6-6.6c-2.4-2.5-4.6-5.4-6.8-8.7
		c-0.8-1.2-1.6-2.4-2.4-3.6c-0.8-1.2-1.6-2.4-2.4-3.5l-0.1-0.1l-3.7-6c-2.1-3.4-3.8-6.6-5.1-9.9c-1-2.3-2-4.9-3-7.5
		C3.8,629.6,1,614.7,1,599.6c0-15.4,2.7-30.5,7.9-44.9c2.5-6.8,5.6-13.5,9.4-20.4c3.8-6.7,8-12.7,12.9-18.4
		c9.2-11.5,20.8-20.9,34.6-28l0.2-0.2l0.2-0.1c5.2-2.6,10.5-4.5,14.5-5.9c5.6-1.8,11.4-3.1,16.7-3.7l5.3-0.7
		c1.5-0.2,3.7-0.3,5.7-0.3h3.3c12.4,0,23.5,1.4,33,4.1c9.9,2.9,18.7,6.7,26.2,11.2c7.5,4.5,14.5,10.6,20.7,18
		c3.9,4.4,7.2,9.2,10,14.4l14.5,26.9l-41.7,14.9l-12.5-21.1c-1.1-1.9-2.4-4-4.1-5.5l-0.1-0.1c-1.6-1.7-3.3-3.3-5-4.8
		c-0.5-0.5-1.1-1-1.6-1.4c-0.7-0.7-1.5-1.3-2.2-1.5l-0.2-0.1c-0.6-0.3-1.2-0.7-1.8-1c-0.9-0.5-1.9-1.1-2.8-1.6
		c-1.5-0.8-2.9-1.5-4.4-2.1c-0.8-0.4-1.6-0.7-2.4-1c-0.6-0.2-1.2-0.5-1.9-0.8L135,525c-0.4-0.2-0.8-0.3-1.2-0.5l-0.3-0.1
		c-0.4-0.1-0.9-0.2-1.4-0.3c-0.5-0.1-1-0.2-1.6-0.3l-0.3,0c-5.3-1-10-1.6-14.4-1.8L62.1,648.3c0.2,0.2,0.4,0.4,0.5,0.7
		c1.2,1.6,2.2,2.8,2.9,3.6c0.3,0.3,0.6,0.6,0.8,0.9l0.3,0.3c1.4,1.5,2.5,2.6,3.8,3.8l0.1,0.1c1.3,1.3,2.6,2.6,4.1,3.9
		c1.1,0.9,2.4,1.9,3.6,2.8l0.4,0.2l0.5,0.3c0.6,0.4,1.7,1.1,3,2l0.8,0.5l6.6,3.8l2.8,1.3c4.4,2,9.3,3.4,15,4l0.3,0
		c2.4,0.3,5.1,0.5,7.8,0.5c2.4,0,4.6-0.2,6.7-0.6c2.4-0.3,5-0.9,8-1.8c1.6-0.6,3.2-1.1,5.2-1.6c0.2-0.1,0.4-0.1,0.5-0.2l1.3-0.7
		l1.3-0.5c2.2-0.8,5.5-2.1,9.3-4.4l0.1-0.1l0.7-0.3c2.1-1.1,4.2-2.3,6.5-3.9c1.8-1.2,3.6-2.5,5.3-4.2l2.9-2.6l1.3-1.3v-0.2l1.4-1.4
		c1-1.1,1.9-2.2,2.5-3.2l0.1-0.1c0.5-0.8,1-1.8,1.3-2.9l6-17.1l43.3,11.3l-7.1,19.9c-2,5.7-4.7,11-7.9,15.4c-1.3,2-2.7,3.9-4.1,5.6
		c-1.2,1.5-2.5,3-3.9,4.5c-0.4,0.5-0.9,0.9-1.3,1.4c-2.7,2.7-5,4.8-7.3,6.7c-2.6,2.1-5.3,4.1-8.2,6.2c-0.6,0.4-1,0.7-1.5,1
		c-0.9,0.6-1.8,1.2-2.8,1.7c-0.6,0.4-1.2,0.8-1.9,1.1c-0.6,0.4-1.2,0.7-1.9,1.2c-2,1.4-4.1,2.4-6.1,3.4c-1.7,0.9-3.4,1.7-4.9,2.4
		c-6.2,2.8-11.9,4.8-17.4,6.1C132.4,720.5,123.4,721.7,115.1,721.7z M107.7,718.6c1.2,0,2.5,0,3.8,0.1c1.2,0,2.4,0.1,3.7,0.1
		c8,0,16.8-1.2,26.8-3.8c5.4-1.3,10.9-3.2,16.9-5.9c1.4-0.6,3.1-1.5,4.7-2.3c2-1,4-2,5.9-3.3c0.7-0.4,1.3-0.8,2-1.2
		c0.6-0.4,1.2-0.7,1.9-1.2c1-0.5,1.8-1.1,2.6-1.7c0.5-0.4,1-0.7,1.6-1c2.9-2,5.5-4,8-6.1c2.2-1.8,4.5-3.8,7.1-6.4
		c0.4-0.4,0.8-0.9,1.3-1.4c1.4-1.5,2.7-2.8,3.7-4.3c1.3-1.7,2.7-3.5,4-5.4c3-4.2,5.6-9.2,7.5-14.7l6-16.8l-37.5-9.8l-5,14.4
		c-0.4,1.3-0.9,2.6-1.6,3.6c-0.7,1.3-1.8,2.5-2.8,3.7l-0.1,0.1l-0.8,0.8c-0.2,0.3-0.4,0.6-0.6,0.7l-1.5,1.5l-2.9,2.6
		c-1.8,1.8-3.8,3.2-5.7,4.5c-2.4,1.7-4.6,3-6.8,4.1l-0.6,0.3c-3.9,2.4-7.5,3.8-9.7,4.6l-1.2,0.5l-0.8,0.4c-0.3,0.2-0.6,0.3-0.8,0.4
		c0,0-0.1,0-0.2,0l-0.3,0.1c-2.1,0.6-3.6,1.1-5.2,1.6c-3.2,1-6.1,1.6-8.5,1.9c-2.2,0.5-4.6,0.7-7.2,0.7c-2.9,0-5.6-0.2-8.1-0.5
		l-0.2,0c-6-0.7-11.3-2.1-16-4.3l-3-1.4l-7.5-4.4c-1.5-0.9-2.5-1.6-3.1-2.1l-0.8-0.5c-1.3-1-2.7-2-3.9-3.1c-1.6-1.4-2.9-2.7-4.2-4.1
		c-1.3-1.1-2.5-2.4-3.9-3.9l-0.4-0.4c-0.2-0.2-0.4-0.5-0.7-0.8c-0.7-0.8-1.8-2.1-3.1-3.9c-0.2-0.3-0.3-0.4-0.5-0.6
		c-0.2-0.2-0.4-0.5-0.6-0.8l-0.5-0.7L113.8,519l1,0c4.8,0.2,10,0.8,15.8,1.8l0.2,0c0.7,0.1,1.4,0.3,2,0.4c0.4,0.1,0.8,0.2,1.3,0.3
		l0.2,0.1l0.3,0.1c0.4,0.1,1,0.3,1.6,0.6l0.5,0.2c0.6,0.3,1.2,0.5,1.8,0.7c0.9,0.3,1.8,0.7,2.6,1.1c1.4,0.6,3,1.3,4.6,2.2
		c1,0.5,2,1.1,3,1.7c0.5,0.3,1.1,0.6,1.6,1c1,0.4,2.2,1.2,3.1,2.1c0.5,0.4,1,0.9,1.5,1.4c1.7,1.5,3.5,3.1,5.2,5
		c1.9,1.8,3.4,4.1,4.6,6.2l11.2,18.9l36.1-12.8L199.1,526c-2.7-5-5.9-9.7-9.6-13.9c-6-7.2-12.8-13-20-17.4
		c-7.3-4.4-15.9-8-25.5-10.9c-9.2-2.6-20-3.9-32.1-3.9h-3.3c-1.9,0-4,0.2-5.4,0.3l-5.3,0.7c-5.1,0.6-10.7,1.9-16.1,3.6
		c-3.9,1.3-9,3.2-13.9,5.6l-0.2,0.2l-0.2,0.1c-13.5,6.8-24.9,16-33.9,27.3c-4.8,5.6-8.9,11.5-12.5,18c-3.7,6.8-6.8,13.3-9.2,20
		C6.6,569.8,4,584.6,4,599.6c0,14.8,2.7,29.3,8.1,43.2c1,2.6,2,5.1,3,7.5c1.3,3.2,2.9,6.2,4.9,9.5l3.7,6c0.8,1.2,1.6,2.4,2.4,3.6
		c0.8,1.2,1.6,2.4,2.4,3.5c2.1,3.2,4.3,5.9,6.5,8.4c2,2.1,4.1,4.3,6.4,6.4l6.4,6c1.7,1.6,3.8,3.2,6.1,4.8c2.2,1.6,3.9,2.9,5.9,4.1
		l0.3,0.1c1.5,0.8,2.7,1.5,3.8,2.3c1.7,1,3.6,2.1,5.3,2.9c3.2,1.7,5.9,2.9,8.7,4c2.4,1,4.4,1.7,6.3,2.3l0.1,0c1,0.4,2.1,0.7,3.2,1
		c0.6,0.2,1.1,0.3,1.7,0.5l1,0.2c1.6,0.4,3.1,0.8,4.7,1.1c0.8,0.2,1.5,0.3,2.2,0.4c0.8,0.1,1.6,0.3,2.3,0.4l0.7,0.1
		c1,0.1,2.1,0.2,3.2,0.3c1.4,0.1,2.8,0.3,4.2,0.4C107.6,718.6,107.6,718.6,107.7,718.6z M47.2,578v-7.3c0-0.2,0-0.5,0.4-1.6
		c1.6-4.7,3.6-9.3,6.1-13.8l2.7,1.3L47.2,578z"/>
</g>
<g>
	<path fill="#FFFFFF" stroke="#FFFFFF" stroke-width="3" stroke-miterlimit="10" d="M422.6,721.7h-52.9l-0.9-1.4l-50.2-78.5h-17.2
		l-33.9,79.6h-38V479.8h103.3c1.8,0,3.3,0.2,4.8,0.3l4.8,0.5c4.1,0.5,7.7,1.4,11.2,2.8c2.3,0.9,5,2.1,8.3,3.7l0.3,0.2
		c4.6,2.5,8.7,5.1,12.1,7.7c4.1,3,7.9,6.5,11.6,10.9l0.1,0.1l0.3,0.5l3.5,4.5c1.4,1.9,2.6,3.8,3.8,5.6c1.8,2.8,3.3,5.6,4.6,8.5
		c0.5,1,1,2.2,1.5,3.3l0,0.1c0.2,0.5,0.3,0.9,0.5,1.4c0.2,0.4,0.3,0.9,0.5,1.4c0.9,2.1,1.6,4.1,2.2,5.7c0.6,1.9,1.2,4.1,1.6,6.4
		c0.3,1.6,0.7,3.4,0.8,4.9l0.3,2.4c0.5,1.9,0.7,4.1,0.7,6.6v3.5c0,2,0,4.2-0.2,6.5c-0.2,3.4-0.6,6.3-1.2,8.8l-1.4,8.9l-1.7,4.8
		l-1.2,3.2c-0.6,2-1.3,4-2.4,5.9c-0.1,0.3-0.3,0.6-0.4,0.8c-0.1,0.1-0.2,0.3-0.2,0.4l-0.5,1.2l-0.2,0.2c-0.5,1-1.2,2.1-1.8,3.1
		l-0.9,1.7c-0.7,1.3-1.6,2.5-2.4,3.7c-1.2,1.9-2.6,3.7-4.5,5.8l-4.8,5.3l-4.3,4c-2.1,1.9-4.3,3.5-6.5,5l-5.5,3.4L422.6,721.7z
		 M371.3,718.7h45.8L362,632.4l3.1-1.6l5.1-3.1c2-1.4,4.2-2.9,6.1-4.7l4.3-4l4.6-5.1c1.8-2,3.1-3.7,4.2-5.5l0.1-0.1
		c0.8-1.2,1.6-2.3,2.3-3.4l0.1-0.3l0.9-1.7c0.6-0.9,1.2-2,1.7-3l0.1-0.2l0.1-0.1l0.2-0.5c0.1-0.3,0.3-0.6,0.4-0.9
		c0.1-0.1,0.2-0.3,0.2-0.4l0.1-0.2c0.9-1.7,1.6-3.6,2.2-5.6l1.2-3.2l1.6-4.7l1.3-8.7c0.6-2.4,0.9-5.2,1.1-8.4
		c0.2-2.1,0.2-4.2,0.2-6.3v-3.5c0-2.3-0.2-4.3-0.6-6l0-0.2l-0.3-2.5c-0.2-1.5-0.5-3.1-0.8-4.7c-0.4-2.2-0.9-4.2-1.5-6
		c-0.8-2.3-1.4-4-2.1-5.5l-0.1-0.1c-0.2-0.5-0.3-0.9-0.5-1.4c-0.2-0.5-0.3-0.9-0.5-1.4c-0.5-1.1-1-2.3-1.4-3.2
		c-1.2-2.8-2.7-5.6-4.4-8.2c-1.1-1.8-2.3-3.6-3.6-5.4l-3.8-5c-3.5-4.1-7.1-7.5-11-10.4c-3.3-2.5-7.2-5-11.7-7.4l-0.3-0.1
		c-3.3-1.6-5.8-2.8-8-3.6c-3.3-1.3-6.7-2.1-10.5-2.6l-4.8-0.5c-1.5-0.2-2.9-0.3-4.5-0.3H232.5v235.6h33.1l33.9-79.6h20.8
		L371.3,718.7z M115.1,707.5c-2.1,0-4.6,0-6.8-0.2c-2.4-0.2-4.5-0.3-6.5-0.7l-0.4,0c-0.7-0.2-1.5-0.3-2.2-0.4
		c-0.8-0.1-1.5-0.3-2.3-0.4l-0.7-0.2c-1.4-0.3-2.8-0.6-4.1-1.1c-0.7-0.2-1.4-0.4-2.2-0.6c-0.8-0.2-1.6-0.4-2.4-0.7
		c-1.6-0.5-3.2-1.1-4.8-1.8h-0.2l-0.3-0.1c-2.4-0.9-5.2-2-7.7-3.4l-0.3-0.2c-1.4-0.6-2.8-1.4-4.3-2.3c-0.7-0.4-1.3-0.9-2-1.3
		c-0.6-0.4-1.2-0.8-1.9-1.2l-1-0.7c-1.6-1.1-3.2-2.1-4.6-3.3c-1.6-1.1-3.5-2.7-5.4-4.2l-6.1-5.6c-2-1.9-4.1-3.9-5.9-5.9
		c-1.9-2-3.7-4.3-5.6-7c-0.7-1.1-1.4-2.1-2-3c-0.9-1.4-1.8-2.6-2.5-3.9l-3.5-5.9c-1.5-2.5-2.9-5.1-4.1-7.6c-1.2-2.8-2.2-5.3-2.9-7.5
		c-4.8-12.7-7.3-25.8-7.3-39c0-13.8,2.4-27.3,7.1-40.1c2.4-6.4,5.2-12.6,8.4-18.4c3.2-5.7,7-11.2,11.3-16.4
		c8.2-10.1,18.4-18.2,30.4-24.1c4-1.9,8.2-3.6,12.9-5.2c4.4-1.5,9.1-2.6,14-3.1l5.3-0.7c1.2-0.2,2.7-0.2,4-0.2h3.3
		c11.2,0,21,1.2,29.1,3.6c8.2,2.2,15.8,5.5,22.7,9.7c6.6,4.1,12.3,9.1,17.4,15.2c3.2,3.7,5.9,7.6,8.3,11.9l6.7,12.2l-15.2,5.3
		l-6.5-10.9c-1.7-3-3.7-5.8-6.1-8.4c-2.4-2.4-4.9-4.9-7.6-7.2c-1.4-1.2-2.9-2.3-4.4-3.2c-0.9-0.5-1.7-1-2.6-1.5
		c-0.9-0.5-1.8-1-2.6-1.5c-1.6-0.9-3.3-1.7-5.1-2.4L146,514c-1.6-0.8-3.3-1.4-5.2-2.1l-0.7-0.3c-1-0.4-1.9-0.7-2.7-0.8l-0.2,0
		c-1.3-0.3-2.6-0.6-3.8-0.8l-0.1,0c-6.8-1.4-13.9-2.1-21.1-2.1c-1.5,0-2.9,0-4.3,0.2l-1.1,0.1L46.4,650l0.2,0.3
		c0.5,0.9,1,1.6,1.6,2.4c0.4,0.6,0.8,1.1,1.1,1.6c0.7,1.1,1.5,2.2,2.2,3l0.1,0.1c1.7,2.4,3.5,4.5,5,6l0.2,0.2
		c0.8,0.8,1.5,1.5,2.2,2.3c0.7,0.7,1.4,1.5,2.1,2.2c0.7,0.6,1.5,1.4,2.3,2.1c0.7,0.7,1.5,1.4,2.3,2.1c1.4,1.3,3.1,2.5,5.3,4l0.3,0.3
		c1.3,1,3,2.1,5.1,3.3l7.2,4l3.3,1.6c6.1,2.8,12.7,4.6,19.5,5.2c3.4,0.4,6.5,0.7,9.7,0.7c2.5,0,5.5-0.3,9.1-0.8
		c2.9-0.5,6.3-1.2,10-2.3c1.7-0.5,3.3-1,4.8-1.5c1.2-0.3,2.4-0.8,3.3-1.3l0.3-0.2l0.3-0.1c3.8-1.4,7.8-3.3,11.8-5.6l0.3-0.2h0.2
		c2.5-1.4,5.1-2.9,7.4-4.4c2.4-1.6,4.7-3.4,6.8-5.4l3.2-2.9l1.8-1.8c0.5-0.5,0.9-0.9,1.4-1.5l0.3-0.3c1.5-1.6,2.9-3.5,4.1-5.4
		c1.2-1.9,2.1-3.8,2.7-5.6l1.6-4.7l15.8,4.1l-1.9,5.4c-1.8,4.9-3.9,8.9-6.2,12.1c-1.1,1.6-2.3,3.3-3.5,4.9c-1.2,1.5-2.7,3.2-4.3,4.8
		c-2,2-4,3.9-6.3,5.8c-2.2,1.9-4.6,3.6-6.9,5.2c-1.1,0.8-2.4,1.6-3.7,2.4c-0.9,0.6-1.9,1.2-2.8,1.7c-0.3,0.2-0.6,0.3-0.9,0.5
		c-1.7,1-3.4,2-5,2.7c-1.7,0.8-3.2,1.5-4.7,2.2c-5.2,2.4-10.2,4.1-14.8,5.1C130.5,706.3,122.5,707.5,115.1,707.5z M102,703.7l0.3,0
		c1.9,0.3,4,0.5,6.4,0.7c2.1,0.2,4.4,0.2,6.6,0.2c7.1,0,15-1.2,24.6-3c4.3-1,9.1-2.6,14.2-4.9c1.5-0.6,3-1.3,4.6-2.1
		c1.5-0.7,3.1-1.7,4.7-2.6c0.3-0.2,0.7-0.4,1-0.6c0.9-0.5,1.8-1,2.6-1.5l0.1-0.1c1.2-0.7,2.5-1.5,3.5-2.3c2.3-1.6,4.6-3.3,6.7-5.1
		c2.2-1.8,4.1-3.7,6.1-5.6c1.5-1.5,3-3.1,4-4.5c1.1-1.5,2.3-3.2,3.5-4.8c2.2-3,4.1-6.8,5.8-11.3l0.8-2.3l-9.9-2.6l-0.7,2
		c-0.6,2.1-1.6,4.2-3,6.3c-1.3,2-2.9,4.1-4.5,5.9l-0.1,0.1c-0.5,0.7-1.1,1.2-1.6,1.7l-1.8,1.8l-3.2,2.9c-2.2,2-4.6,3.9-7.2,5.6
		c-2.6,1.7-5.3,3.2-7.9,4.7l-0.3,0.2h-0.2c-4,2.3-8,4.1-11.8,5.6l-0.6,0.3h-0.2c-1,0.5-2.3,0.9-3.4,1.3c-1.4,0.5-3.1,1-4.7,1.5
		l-0.1,0c-3.8,1.1-7.3,1.9-10.4,2.4c-3.8,0.6-7,0.9-9.6,0.9c-3.3,0-6.6-0.3-10-0.7c-7.1-0.7-14-2.5-20.5-5.5l-3.4-1.7l-7.2-4
		c-2.3-1.4-4.1-2.5-5.5-3.6l-0.2-0.2c-2.3-1.6-4-2.9-5.6-4.2c-0.8-0.7-1.6-1.5-2.4-2.2c-0.8-0.7-1.5-1.5-2.3-2.1
		c-0.8-0.8-1.5-1.6-2.3-2.3c-0.7-0.7-1.4-1.5-2.1-2.2l-0.2-0.2c-1.6-1.6-3.5-3.8-5.3-6.3c-0.9-1-1.6-2.1-2.4-3.3
		c-0.3-0.5-0.7-1-1-1.5c-0.7-0.8-1.2-1.7-1.7-2.6l-1.1-1.6l61.7-145.1l2.9-0.2c1.5-0.2,3.1-0.2,4.6-0.2c7.4,0,14.6,0.7,21.6,2.2
		c1.4,0.2,2.7,0.5,4,0.8c1.1,0.2,2.2,0.6,3.3,1l0.6,0.2c1.8,0.7,3.7,1.3,5.4,2.2c1.9,0.8,3.7,1.6,5.4,2.6c0.9,0.5,1.7,1,2.6,1.5
		c0.9,0.5,1.8,1,2.6,1.5c1.6,0.9,3.4,2.2,4.9,3.5c2.7,2.4,5.2,4.9,7.7,7.4c2.7,2.9,4.9,5.8,6.6,9l5.2,8.7l9.5-3.3l-5-9.1
		c-2.3-4.1-4.9-7.9-8-11.4c-4.9-5.9-10.4-10.6-16.7-14.6c-6.6-4-14-7.2-22-9.3c-7.9-2.3-17.4-3.5-28.3-3.5h-3.3
		c-1.3,0-2.6,0-3.6,0.2l-5.4,0.7c-4.7,0.5-9.2,1.5-13.4,2.9c-4.5,1.6-8.6,3.2-12.5,5.1c-11.5,5.7-21.4,13.5-29.4,23.3
		c-4.3,5.1-8,10.5-11,16c-3.2,5.7-5.9,11.7-8.2,18c-4.6,12.5-6.9,25.6-6.9,39c0,12.8,2.4,25.6,7.1,38c0.7,2.2,1.7,4.6,2.8,7.3
		c1.1,2.4,2.4,4.9,3.9,7.3l3.5,5.8c0.7,1.2,1.6,2.4,2.5,3.8c0.7,1,1.4,2,2,3c1.8,2.5,3.5,4.7,5.3,6.6c1.8,2,3.8,4,5.8,5.8l6,5.5
		c1.7,1.4,3.6,2.9,5.2,4c1.4,1.1,2.9,2.1,4.5,3.2l1,0.7c0.6,0.4,1.3,0.8,1.9,1.3c0.6,0.4,1.2,0.8,1.9,1.2c1.4,0.9,2.9,1.7,4.2,2.2
		l0.3,0.1l0.2,0.2c2,1.1,4.1,2,6.9,3h0.2l0.3,0.1c1.6,0.7,3.3,1.3,4.9,1.8c0.8,0.2,1.5,0.4,2.3,0.7c0.8,0.2,1.6,0.4,2.4,0.7
		c1.2,0.4,2.5,0.7,3.8,1l0.7,0.2c0.7,0.2,1.4,0.3,2.2,0.4C100.5,703.4,101.2,703.6,102,703.7z M36.7,639.1l-3.3-9.5
		c-3.2-9.3-4.8-19.5-4.8-30.2c0-5.6,0.5-11.5,1.4-17.6c0.8-5.6,2.3-11.4,4.4-17.1c3.7-11.1,9.2-21.4,16.6-30.5
		c7.5-8.9,16.3-16.1,26.3-21.4c2.7-1.4,5.3-2.6,7.9-3.6l8.8-3.5L36.7,639.1z M88.5,511.2l-2.2,0.8c-2.5,0.9-4.9,2-7.5,3.4
		c-9.6,5.1-18.2,12.1-25.4,20.7c-7.1,8.8-12.5,18.7-16.1,29.5c-2.1,5.6-3.5,11.2-4.3,16.6c-0.9,6-1.3,11.7-1.3,17.1
		c0,10.4,1.5,20.2,4.6,29.2l0.7,2.2L88.5,511.2z M271.3,607.3v-85.6h36.5L271.3,607.3z M274.3,524.7v67.9l28.9-67.9H274.3z
		 M334.2,600.4h-18.6l31-73.3l1.4,0.7c0.4,0.2,0.8,0.4,1.1,0.7c0.3,0.2,0.6,0.4,0.9,0.5l0.2,0.1l0.3,0.3l4.2,4.5
		c0.3,0.3,0.5,0.6,0.8,0.9c0.1,0.2,0.2,0.3,0.4,0.4l0.2,0.3c0.2,0.4,0.5,0.8,0.8,1.2c0.3,0.4,0.6,0.9,0.9,1.3l0.1,0.1
		c0.2,0.4,0.5,0.9,0.8,1.3l0.3,0.5l1.9,3.5l1,2.3l0.8,2.2c0.4,0.8,0.6,1.5,0.8,2.2c0.1,0.3,0.2,0.6,0.3,0.9c0.4,1.2,0.6,2.3,0.7,3.4
		c0.3,2.1,0.5,4.2,0.5,6.4l0,3.8l-0.3,1.5v1c0,1.3-0.2,2.5-0.6,3.6c-0.2,0.7-0.4,1.5-0.7,2.3c-0.3,1.1-0.7,2.3-1,3.4
		c-0.6,2.1-1.3,3.8-1.9,5l-0.1,0.2c-1,1.5-1.8,2.9-2.6,4.4l-0.1,0.2l-0.1,0.1c-0.1,0.1-0.2,0.2-0.3,0.3c-0.3,0.4-0.6,0.9-1.2,1.5
		l-4.7,5.1c-1.4,1-2.8,1.9-4.1,2.7l-2.4,1.4c-1.6,0.8-3.2,1.4-4.4,1.8l-0.3,0.1c-0.6,0.1-1.3,0.2-1.9,0.3c-0.7,0.1-1.4,0.3-2.1,0.3
		c-0.6,0.1-1.3,0.1-2,0.2L334.2,600.4z M320.2,597.4h11.1l0-0.2h1.5c1.1,0,2.2,0,3.1-0.1c0.7-0.1,1.3-0.2,2-0.3
		c0.6-0.1,1.3-0.2,1.9-0.3c1.6-0.5,2.8-1,3.8-1.5l2.3-1.3c1.2-0.8,2.5-1.6,3.8-2.5l0.3-0.3l4.1-4.6c0.5-0.5,0.8-0.9,1-1.2
		c0.1-0.2,0.3-0.4,0.4-0.5c0.8-1.4,1.6-2.9,2.6-4.4c0.5-1.1,1.2-2.5,1.7-4.3c0.3-1.2,0.7-2.4,1-3.5c0.2-0.8,0.5-1.6,0.7-2.3
		c0.3-1,0.4-1.8,0.4-2.8l0-1.5l0.3-1.5v-3.4c0-2-0.2-4-0.5-5.9c-0.1-1-0.3-2-0.6-2.9c-0.1-0.4-0.2-0.7-0.3-1.1
		c-0.2-0.6-0.3-1.2-0.6-1.7l-0.1-0.1l-0.8-2.2l-1-2.2l-2-3.5c-0.3-0.4-0.7-1-1-1.6c-0.2-0.4-0.5-0.7-0.8-1.1
		c-0.3-0.4-0.6-0.8-0.8-1.2c-0.1-0.2-0.3-0.3-0.4-0.5c-0.2-0.2-0.4-0.5-0.6-0.7l-4.2-4.5c-0.1-0.1-0.3-0.1-0.4-0.2L320.2,597.4z"/>
</g>
<g>
	<path fill="#FFFFFF" stroke="#FFFFFF" stroke-width="3" stroke-miterlimit="10" d="M604.3,721.4H433.7V613.8l29.2-17.7h-29.2V479.9
		h167.9v44.7H478.3v26.7h84.4v36.2l-84.4,51.1v38h126V721.4z M436.7,718.4h164.5v-38.7h-126V637l84.4-51.1v-31.5h-84.4v-32.7h123.3
		v-38.7H436.7v110.1h36.9l-36.9,22.4V718.4z M396.2,707.9h-18.6l-1-1.7l-50.2-78.4H292l-33.9,79.6h-14.3V494.1h89.1
		c0.9,0,1.9,0,2.9,0.2l5.1,0.7c2.4,0.3,5,1,7.7,1.9c2.6,0.9,4.9,2,7,3.1c3.9,2.1,7.5,4.4,10.5,6.6c3.1,2.3,6.2,5.2,9.2,8.6l0.4,0.4
		v0.2c1,1.3,2,2.6,2.9,3.8c0.5,0.8,1.1,1.5,1.6,2.3c0.6,0.8,1.1,1.5,1.6,2.3c1.7,2.6,2.9,5.1,3.8,7c0.2,0.4,0.3,0.7,0.5,1
		c0.3,0.5,0.5,1.1,0.8,1.8l1.1,2.7v0.1c0.7,1.6,1.2,3.2,1.6,4.6c0.5,1.8,0.9,3.5,1.2,5c0.3,1.3,0.5,2.6,0.7,3.8l0.3,3.3
		c0.3,1.2,0.5,2.6,0.5,4v3.5c0,2,0,3.9-0.2,5.9c0,1.9-0.3,4.1-0.9,6.6l-1.7,8l-2.6,7.4c-0.3,1.2-0.8,2.5-1.4,3.8l-0.1,0.1
		c-0.4,0.7-0.7,1.5-1.1,2.3l-0.1,0.3l-0.2,0.2c-0.4,0.9-0.9,1.6-1.4,2.2l-0.1,0.1c0,0-0.1,0.1-0.2,0.4l-0.1,0.3l-0.3,0.4
		c-0.4,0.7-0.8,1.3-1.2,1.9c-0.4,0.6-0.7,1.1-1,1.7c-0.8,1.3-1.8,2.6-3.1,3.8l-4.4,4.9l-3.8,3.5c-1.4,1.2-3,2.4-4.7,3.6l-4.8,2.9
		h-0.2c-0.7,0.4-1.4,0.7-2.1,1c-0.3,0.2-0.7,0.3-1,0.5c-0.5,0.2-0.8,0.4-1.2,0.5c-0.8,0.3-1.5,0.7-2.5,1c-0.8,0.3-1.6,0.6-2.3,0.8
		c-0.8,0.3-1.6,0.6-2.4,0.8l-1.5,0.5l-1.3,0.3L396.2,707.9z M379.4,704.9h11.4l-50.9-79.7l5.2-1.4l1.4-0.5c0.7-0.2,1.5-0.5,2.3-0.8
		c0.8-0.3,1.6-0.6,2.4-0.8c0.8-0.3,1.5-0.6,2.2-0.9c0.4-0.2,0.8-0.3,1.1-0.5c0.3-0.1,0.6-0.3,1-0.5c0.7-0.3,1.5-0.7,2.2-1.1l0.3-0.2
		h0.1l4-2.4c1.5-1.1,3-2.2,4.3-3.4l3.8-3.4l4.3-4.8c1.1-1.1,2-2.2,2.7-3.3c0.3-0.6,0.7-1.2,1.1-1.8c0.4-0.6,0.7-1.1,1-1.7l0.3-0.6
		c0.2-0.5,0.4-0.9,0.6-1.1c0.4-0.6,0.8-1.1,1.1-1.8l0.1-0.3l0.2-0.2c0.3-0.8,0.6-1.6,1.1-2.4c0.5-1.1,0.9-2,1.2-3v-0.2l2.7-7.5
		l1.6-7.7c0.5-2.3,0.8-4.3,0.8-6l0-0.1c0.2-1.9,0.2-3.8,0.2-5.7v-3.5c0-1.2-0.2-2.4-0.4-3.4l-0.1-0.2v-0.3l-0.3-3.1
		c-0.2-1.1-0.3-2.2-0.6-3.5c-0.3-1.7-0.7-3.2-1.1-4.8c-0.4-1.4-0.9-2.9-1.6-4.5l-0.1-0.3v-0.2l-0.9-2.2c-0.2-0.6-0.4-1.1-0.7-1.6
		c-0.2-0.4-0.4-0.7-0.5-1.1c-0.8-1.8-2-4.2-3.5-6.6c-0.5-0.7-1-1.5-1.5-2.2c-0.6-0.8-1.1-1.5-1.6-2.3c-0.9-1.3-1.9-2.6-3.1-4.1
		l-0.3-0.4v-0.1c-2.8-3.1-5.6-5.6-8.4-7.7c-2.9-2.2-6.4-4.3-10.2-6.4c-2-1.1-4.2-2-6.6-2.9c-2.4-0.9-4.8-1.5-7-1.8l-5.3-0.7
		c-0.7-0.1-1.6-0.1-2.4-0.1h-86.1v207.3h9.4l33.9-79.6h38L379.4,704.9z M257.2,676.5v-169h72.2l-46.1,108.4l-2.5,5.7L257.2,676.5z
		 M260.2,510.5v151.4l17.8-41.5l2.5-5.7l44.3-104.2H260.2z M332.7,614.4h-38.5l45.1-106.5l3.7,1.3c0.2,0,0.3,0.1,0.5,0.2
		c1.9,0.6,3.6,1.4,5.8,2.4h0.2l0.3,0.2c0.4,0.2,0.8,0.4,1.3,0.8l0.4,0.3c0.4,0.3,0.9,0.6,1.3,0.8c1.7,0.9,3.4,2,4.8,2.9
		c1.3,0.9,2.5,1.8,3.6,3.1l3.6,4c1,1,1.9,1.9,2.6,3c0.4,0.6,0.8,1.1,1.2,1.6c0.4,0.5,0.7,1.1,1.2,1.6c0.3,0.3,0.5,0.7,0.7,1.1
		c0.1,0.2,0.3,0.5,0.4,0.7c0.7,0.5,0.9,1.2,1,1.6l0.1,0.2l1.7,3l1.5,3.7l1.2,3.5c0.4,1.2,0.8,2.3,1.1,3.5c0.4,1.1,0.6,2.2,0.8,3.4
		c0.1,0.5,0.2,0.9,0.3,1.4l0,0.1c0.3,2.7,0.5,5.6,0.5,8.5v3.7c0,0.9-0.2,2-0.3,3v0.4c0,2-0.3,4.1-0.9,6.2c-0.3,1.1-0.6,2.2-0.9,3.2
		c-0.3,1.1-0.6,2.2-0.9,3.3c-0.7,2.5-1.8,5-3.3,7.8c-0.4,0.7-0.8,1.3-1.1,2c-0.6,1-1.1,2-1.8,3c-0.8,1.4-1.9,2.8-3.1,4.2l-4,4.5
		c-1,1.1-2.2,2.2-3.6,3.2c-0.8,0.5-1.6,1-2.3,1.5c-0.7,0.4-1.5,0.9-2.2,1.4l-0.1,0.1l-2.7,1.5c-2.2,1.3-4.9,2.3-8.2,3.3
		c-1.4,0.4-2.6,0.6-3.8,0.8c-0.5,0.1-1.1,0.2-1.6,0.3l-0.1,0C336.6,614.3,334.7,614.4,332.7,614.4z M298.8,611.4h33.9
		c1.8,0,3.6-0.2,5.1-0.3c0.6-0.1,1.1-0.2,1.7-0.3c1.2-0.2,2.3-0.4,3.5-0.7c3-0.9,5.5-1.9,7.5-3l2.6-1.5c0.8-0.5,1.5-1,2.3-1.4
		c0.7-0.4,1.5-0.9,2.2-1.4c1.2-0.8,2.2-1.8,3-2.7l4-4.5c1.1-1.3,2.1-2.5,2.9-3.8c0.6-0.9,1.1-1.8,1.7-2.8c0.4-0.7,0.7-1.3,1.1-2
		c1.4-2.5,2.3-4.8,3-7.2c0.3-1.1,0.6-2.2,0.9-3.2c0.3-1.1,0.6-2.2,0.9-3.3c0.5-1.9,0.8-3.7,0.8-5.4l0-0.7c0.2-0.9,0.3-1.9,0.3-2.6
		v-3.7c0-2.8-0.2-5.5-0.5-8.1c-0.1-0.5-0.2-0.9-0.3-1.4c-0.2-1.1-0.4-2.1-0.7-3l0-0.1c-0.2-1.1-0.6-2.2-1-3.3l-1.1-3.4l-1.4-3.5
		l-2-3.4v-0.3c0,0,0,0,0,0l-0.2-0.1l-0.2-0.3c-0.3-0.4-0.5-0.7-0.7-1.1c-0.2-0.3-0.4-0.6-0.6-0.9c-0.4-0.6-0.8-1.2-1.2-1.7
		c-0.4-0.5-0.7-1.1-1.2-1.7c-0.6-0.9-1.4-1.7-2.3-2.6l-3.7-4.1c-0.9-1.1-2-1.8-3.1-2.6c-1.3-0.9-3-1.9-4.5-2.7
		c-0.5-0.3-1.1-0.7-1.6-1l-0.4-0.2c-0.3-0.2-0.5-0.3-0.7-0.4h-0.1l-0.3-0.1c-2.2-1-4-1.8-5.9-2.4l-0.2-0.1c-0.1,0-0.1,0-0.2,0
		c-0.2,0-0.4-0.1-0.7-0.3l-0.5-0.2L298.8,611.4z"/>
</g>
<g>
	<path fill="#FFFFFF" stroke="#FFFFFF" stroke-width="3" stroke-miterlimit="10" d="M749,721.4h-26.6l-33.3-56.1l-24.3,56.1H616
		l51.5-118.9l53.1-122.9h30.7l0.4,0.9l54.9,127.8l48.8,112.9h-43.6c-1.1,0-4.1,0-4.1,0l-0.9,0l-0.4-0.9c0,0-0.3-0.7-0.5-1l0,0
		l-23.4-54.2L749,721.4z M724.1,718.4h23.2l35.6-59.9l25.5,59.2c0.1,0.1,0.1,0.3,0.2,0.4c1,0,2.5,0,3.2,0h39l-47-108.7l-54.5-126.9
		h-26.7l-55,127.3l-47,108.5h42.3l25.8-59.7L724.1,718.4z M735.6,662.9l-28.4-48.1l28.6-65.8l28.2,66l-0.4,0.7L735.6,662.9z
		 M710.6,614.7l25,42.4l25-42.2l-24.9-58.2L710.6,614.7z"/>
</g>
<g>
	<path fill="#FFFFFF" stroke="#FFFFFF" stroke-width="3" stroke-miterlimit="10" d="M590.1,707.2H447.9v-85.5l65.9-39.9h-65.9v-87.8
		h139.5v16.4H464.1v55.1h84.4v14l-84.4,51.1V691h126V707.2z M450.9,704.2h136.2V694h-126v-65.1l4.9-2.9l79.5-48.1v-9.3h-84.4v-61.1
		h123.3v-10.4H450.9v81.8h73.6l-73.6,44.6V704.2z"/>
</g>
<g>
	<path fill="#FFFFFF" stroke="#FFFFFF" stroke-width="3" stroke-miterlimit="10" d="M911.8,721.4h-44.7v-159l-62.7-38.1h-14.3v-44.6
		l197.7-0.1v44.8h-97.5l6.4,3.9l15.1,9.3V721.4z M870.1,718.4h38.7V539.3l-13.6-8.4l-15.6-9.5H985l-0.1-38.7H793.2v38.6h12.1
		l64.8,39.4V718.4z M833.8,707.2H816l-31.6-73.1l-43.5,73.1h-10.6l-43.3-73.1l-31.6,73.1h-17.8l42.8-99.1L729.9,494h12l51.6,120.2
		L833.8,707.2z M818,704.2h11.2l-38.5-88.9L739.9,497h-8l-51.3,118.6l-38.3,88.7h11.2l33.2-76.7l45.5,76.7h7.1l45.6-76.7L818,704.2z
		 M735.6,690.6l-44.2-74.8l0.3-0.7l44.1-102L779.8,616L735.6,690.6z M694.7,615.7l40.9,69.1l40.9-68.9l-40.7-95.1L694.7,615.7z"/>
</g>
<g>
	<path fill="#FFFFFF" stroke="#FFFFFF" stroke-width="3" stroke-miterlimit="10" d="M1086.2,723.2h-0.6l-0.3-0.3
		c-16.9-0.4-32.5-4.3-46.3-11.7c-13.2-6.9-25-16.1-35.1-27.4c-5.5-6.4-9.8-12.4-13.2-18.3c-4.2-7.3-7.4-14-9.6-20.5
		c-5.3-14.2-7.9-29.2-7.9-44.4c0-15.1,2.8-30.3,8.2-45.3v-0.2l0.1-0.3c4.8-12.5,11.3-23.8,19.3-33.5l3.8-4.7
		c5.2-6.4,11-11.9,17.1-16.4c5.7-4.2,11.9-7.9,19.1-11.3c14.2-6.8,29.5-10.3,45.5-10.3c16.7,0,32.4,3.8,46.7,11.2
		c14.2,7.3,26.2,16.9,35.7,28.4c9.1,10.9,16.6,23.9,22.3,38.5l0.1,0.3v0.2c5.2,14.4,7.8,29,7.8,43.7c0,16-2.8,31.5-8.4,45.9
		c-5.4,14.2-13.3,27.1-23.5,38.5c-10,11.4-22,20.5-35.5,27.2c-7,3.3-14,5.9-21.5,7.8C1102.4,722.2,1094.2,723.2,1086.2,723.2z
		 M984.2,555.8v0.2l-0.1,0.2c-5.4,14.8-8.1,29.7-8.1,44.5c0,14.8,2.6,29.4,7.8,43.4c2.2,6.3,5.3,12.8,9.4,20
		c3.3,5.7,7.5,11.5,12.9,17.8c9.8,11,21.4,20,34.3,26.7c13.6,7.2,28.9,11,45.6,11.3l0.6,0l0.3,0.3c7.5,0,15.3-1,22.4-2.8
		c7.3-1.9,14.1-4.3,20.9-7.6c13.2-6.5,24.8-15.4,34.6-26.5c9.9-11.1,17.6-23.7,22.9-37.6c5.5-14.1,8.2-29.2,8.2-44.9
		c0-14.3-2.6-28.8-7.8-42.9l-0.1-0.2v-0.2c-5.5-14.2-12.8-26.7-21.7-37.4c-9.3-11.2-20.9-20.5-34.7-27.7
		c-13.9-7.2-29.2-10.8-45.4-10.8c-15.6,0-30.4,3.4-44.2,10c-7,3.3-13.1,6.9-18.6,11c-6,4.4-11.5,9.7-16.6,15.9l-3.8,4.7
		C995.2,532.8,989,543.7,984.2,555.8z M897.6,707.2h-16.2V554.4l-73-44.2h-4.1V494H974l0.2,16.4H839.4l50,30.3l8.2,5.1V707.2z
		 M884.4,704.2h10.2V547.4l-6.8-4.2l-59.1-35.8h142.6l0-10.4h-164v10.2h1.9l75.2,45.5V704.2z M1096.6,680.3l-55.7-142.6l0.8-0.7
		c0.5-0.4,1.1-0.9,1.6-1.3c0.5-0.4,1-0.8,1.5-1.2l0.1-0.1c4.1-2.9,8.4-5.6,12.8-7.8l0.2-0.2l0.2-0.1c8.5-4.3,18-6.5,28.2-6.5
		c9.9,0,19,2.1,27.2,6.2c8.6,4.4,16.3,10.3,23,17.7c6.6,7.6,11.8,16.4,15.5,26.2c1.8,4.8,3.2,9.8,4.1,15c0.9,5.4,1.4,10.7,1.4,15.6
		c0,10.6-1.8,20.6-5.3,29.6c-1.9,5.2-4.1,10.1-6.6,14.5c-2.4,4.2-5.1,8.2-8.2,11.8l-0.2,0.2c-3.4,3.9-6.8,7.3-10.2,10
		c-3.7,3-7.9,5.7-12.6,8c-3.7,2-8,3.6-13.1,5l-0.2,0c-0.5,0.1-1,0.2-1.5,0.3c-0.6,0.1-1.1,0.3-1.8,0.4L1096.6,680.3z M1044.4,538.7
		l54,138.3c0.1,0,0.3-0.1,0.4-0.1c0.5-0.1,1.1-0.3,1.7-0.3c4.9-1.3,9-2.8,12.4-4.7c4.6-2.3,8.6-4.9,12.1-7.7
		c3.3-2.6,6.6-5.9,9.8-9.7l0.2-0.2c2.9-3.4,5.5-7.2,7.8-11.2c2.4-4.3,4.6-9.1,6.4-14.1c3.4-8.7,5.1-18.3,5.1-28.5
		c0-4.8-0.4-9.9-1.3-15.1c-0.8-4.9-2.2-9.8-3.9-14.4c-3.6-9.4-8.6-17.9-14.9-25.3c-6.4-7.1-13.9-12.8-22.1-17
		c-7.8-3.9-16.5-5.8-25.9-5.8c-9.7,0-18.7,2-26.6,6.1l-0.2,0.2l-0.2,0.1c-4.3,2.2-8.6,4.8-12.6,7.7c-0.5,0.4-1,0.8-1.6,1.2
		C1044.9,538.3,1044.7,538.5,1044.4,538.7z M1052.6,671.8l-4.2-3.1c-4.6-3.3-8.6-7.1-12.1-11.3c-6.6-7.8-11.8-16.6-15.4-26.3
		c-1.8-4.6-3.3-9.6-4.4-15.3c-0.9-4.7-1.5-10-1.7-15.6c-0.2-4.9,0.2-9.5,1-14.2l1-5.1L1052.6,671.8z M1018,592.3
		c-0.2,2.6-0.3,5.2-0.2,7.9c0.2,5.5,0.7,10.5,1.6,15.1c1.1,5.5,2.5,10.3,4.3,14.8c3.6,9.4,8.6,17.9,14.9,25.5c2.2,2.6,4.6,5,7.2,7.3
		L1018,592.3z"/>
</g>
<g>
	<path fill="#FFFFFF" stroke="#FFFFFF" stroke-width="3" stroke-miterlimit="10" d="M1086.2,708.7L1086.2,708.7
		c-14.7-0.3-28.3-3.7-40.6-10c-11.7-6-22.2-14.2-31-24.2c-4.3-4.9-8.2-10.3-11.7-16.1c-3.2-5.3-6.1-11.5-8.6-18.3
		c-4.7-12.4-7.1-25.7-7.1-39.4c0-13.6,2.5-27.3,7.4-40.7c4.4-11.3,10.1-21.2,16.9-29.6l3.8-4.7c4-5.1,8.8-9.8,14.4-13.9
		c5.5-3.9,11.1-7.3,16.8-10c12.6-6,25.9-9,39.4-9c14.4,0,27.9,3.3,40.2,9.7c12.2,6.2,22.7,14.5,31.2,24.7
		c8.4,10.1,15.1,21.7,19.9,34.6c4.7,12.6,7.1,25.8,7.1,39.1c0,14.3-2.5,28-7.4,40.8c-4.8,12.8-11.8,24.4-21,34.3
		c-8.5,9.8-19,17.9-31.1,23.9c-5.4,2.6-11.6,4.9-18.6,6.8l-0.1,0C1099.2,708,1092.5,708.7,1086.2,708.7z M1086,495.8
		c-13.1,0-25.9,2.9-38.1,8.7c-5.5,2.7-11,5.9-16.3,9.7c-5.4,4-10.1,8.5-13.9,13.4l-3.9,4.7c-6.7,8.2-12.2,17.9-16.4,28.8
		c-4.8,13.1-7.2,26.4-7.2,39.7c0,13.3,2.3,26.2,6.9,38.4c2.5,6.7,5.3,12.6,8.4,17.8c3.4,5.6,7.2,10.9,11.4,15.6
		c8.6,9.7,18.7,17.6,30.1,23.5c11.9,6.1,25.1,9.4,39.2,9.7c6.1,0,12.6-0.7,19.3-2c6.8-1.8,12.9-4,18-6.6c11.8-5.8,22-13.6,30.2-23.2
		c8.9-9.7,15.8-21,20.4-33.4c4.8-12.4,7.2-25.8,7.2-39.7c0-12.9-2.3-25.7-6.9-38c-4.7-12.6-11.3-24-19.4-33.8
		c-8.2-9.9-18.4-18-30.2-24C1113,498.9,1099.9,495.8,1086,495.8z M1088.4,695.4h-1l-62.8-160.3l1.4-1.7c2.8-3.7,6.4-7.1,10.4-10.1
		c4-3.1,8.8-6.1,15.1-9.3c10.2-5.4,21.9-8.2,34.7-8.2c11.7,0,23,2.6,33.7,7.7c10.4,5.4,19.5,12.4,27.2,20.9
		c7.6,8.8,13.7,19.1,18.1,30.7c2.2,5.4,3.8,11.2,4.9,17.6c1,6,1.5,11.9,1.5,17.9c0,12.1-2.1,23.8-6.1,34.6
		c-2.5,6.5-4.9,11.6-7.4,16.2c-2.8,5.3-6.1,10-9.9,14.3c-3.5,4.3-7.6,8.4-12.2,12c-4.2,3.4-9.1,6.5-14.9,9.5
		c-4.9,2.6-10.4,4.7-16.4,6.1c-4.6,1.2-9.5,1.9-14.7,2L1088.4,695.4z M1089.4,692.4h0.6c4.9-0.2,9.6-0.8,14-2
		c5.6-1.4,11-3.4,15.7-5.9c5.7-2.9,10.4-5.9,14.4-9.2c4.4-3.5,8.4-7.5,11.8-11.6c3.7-4.2,6.8-8.7,9.5-13.8c2.5-4.5,4.8-9.5,7.3-15.9
		c3.9-10.4,5.9-21.7,5.9-33.5c0-5.9-0.5-11.6-1.5-17.4c-1.1-6.2-2.7-11.8-4.8-17.1c-4.3-11.2-10.2-21.2-17.6-29.8
		c-7.4-8.2-16.2-15-26.3-20.2c-10.2-4.9-21.1-7.3-32.4-7.3c-12.4,0-23.6,2.6-33.3,7.8c-6.1,3.2-10.8,6-14.6,9
		c-3.9,2.9-7.2,6.1-9.9,9.6l-0.3,0.4L1089.4,692.4z M1077.2,695.4l-7-1.4c-1.6-0.3-2.9-0.7-4.3-1c-4.4-1.1-8.9-2.8-13.8-5.3
		c-10.4-5.4-19.4-12.5-26.7-21.1c-7.4-8.6-13.5-18.8-17.9-30.3c-2.2-5.9-3.9-11.9-5.1-17.8c-1.1-6.3-1.7-12.3-1.9-17.9
		c-0.2-5.7,0.3-11.6,1.4-17.5c0.9-5.2,2.5-10.9,4.7-16.9c1.6-4.2,3.5-8.5,5.9-13.1c0.2-0.6,0.6-1.3,1-1.9l4.2-6.8L1077.2,695.4z
		 M1017.1,551l-1.1,1.8c-0.3,0.4-0.6,1-0.7,1.4l-0.1,0.2c-2.4,4.5-4.2,8.7-5.8,12.8c-2.1,5.9-3.7,11.4-4.6,16.4
		c-1,5.7-1.5,11.3-1.3,16.9c0.2,5.5,0.8,11.4,1.8,17.5c1.1,5.7,2.8,11.5,4.9,17.3c4.3,11.2,10.2,21.1,17.4,29.4
		c7,8.3,15.7,15.1,25.8,20.3c4.7,2.4,9,4,13.2,5.1c1.3,0.3,2.6,0.7,4.1,1l1.6,0.3L1017.1,551z"/>
</g>
</svg>
