<!-- Generated by IcoMoon.io -->
<svg version="1.1" xmlns="http://www.w3.org/2000/svg" width="153" height="32" viewBox="0 0 153 32">
<title>creato-logo_unbuilded</title>
<path fill="#fff" d="M14.59 31.285c-0.153 0-0.319 0-0.485-0.013-0.166 0-0.332-0.013-0.498-0.013-0.204-0.013-0.383-0.026-0.562-0.051-0.14-0.013-0.281-0.026-0.408-0.038h-0.026l-0.102-0.026c-0.102-0.026-0.191-0.038-0.281-0.051-0.102-0.013-0.191-0.038-0.294-0.051-0.204-0.038-0.408-0.089-0.625-0.14l-0.128-0.038c-0.077-0.026-0.153-0.038-0.217-0.064-0.14-0.038-0.294-0.077-0.434-0.14-0.243-0.077-0.511-0.179-0.817-0.306-0.37-0.14-0.728-0.306-1.149-0.523-0.23-0.102-0.485-0.255-0.715-0.383l-0.013-0.013c-0.128-0.089-0.268-0.179-0.447-0.255l-0.051-0.026c-0.268-0.166-0.498-0.332-0.779-0.536-0.306-0.217-0.587-0.434-0.83-0.651l-0.026-0.026-0.779-0.74c-0.294-0.281-0.587-0.562-0.842-0.842-0.306-0.319-0.587-0.689-0.868-1.111-0.102-0.153-0.204-0.306-0.306-0.459s-0.204-0.306-0.306-0.447l-0.013-0.013-0.472-0.766c-0.268-0.434-0.485-0.842-0.651-1.264-0.128-0.294-0.255-0.625-0.383-0.957-0.702-1.813-1.059-3.727-1.059-5.655 0-1.966 0.345-3.906 1.008-5.744 0.319-0.868 0.715-1.723 1.2-2.604 0.485-0.855 1.021-1.621 1.647-2.349 1.174-1.468 2.655-2.668 4.429-3.587l0.026-0.026 0.026-0.013c0.664-0.332 1.34-0.574 1.851-0.753 0.715-0.23 1.455-0.396 2.132-0.472l0.677-0.089c0.191-0.026 0.472-0.038 0.728-0.038h0.421c1.583 0 3 0.179 4.225 0.523 1.264 0.37 2.387 0.855 3.344 1.43s1.851 1.353 2.642 2.298c0.498 0.562 0.919 1.174 1.276 1.838l1.851 3.434-5.335 1.902-1.596-2.693c-0.14-0.243-0.306-0.511-0.523-0.702l-0.013-0.013c-0.204-0.217-0.421-0.421-0.638-0.613-0.064-0.064-0.14-0.128-0.204-0.179-0.089-0.089-0.191-0.166-0.281-0.191l-0.026-0.013c-0.077-0.038-0.153-0.089-0.23-0.128-0.115-0.064-0.243-0.14-0.357-0.204-0.191-0.102-0.37-0.191-0.562-0.268-0.102-0.051-0.204-0.089-0.306-0.128-0.077-0.026-0.153-0.064-0.243-0.102l-0.051-0.064c-0.051-0.026-0.102-0.038-0.153-0.064l-0.038-0.013c-0.051-0.013-0.115-0.026-0.179-0.038s-0.128-0.026-0.204-0.038h-0.038c-0.677-0.128-1.276-0.204-1.838-0.23l-6.867 16.147c0.026 0.026 0.051 0.051 0.064 0.089 0.153 0.204 0.281 0.357 0.37 0.459 0.038 0.038 0.077 0.077 0.102 0.115l0.038 0.038c0.179 0.191 0.319 0.332 0.485 0.485l0.013 0.013c0.166 0.166 0.332 0.332 0.523 0.498 0.14 0.115 0.306 0.243 0.46 0.357l0.051 0.026 0.064 0.038c0.077 0.051 0.217 0.14 0.383 0.255l0.102 0.064 0.842 0.485 0.357 0.166c0.562 0.255 1.187 0.434 1.915 0.511h0.038c0.306 0.038 0.651 0.064 0.996 0.064 0.306 0 0.587-0.026 0.855-0.077 0.306-0.038 0.638-0.115 1.021-0.23 0.204-0.077 0.408-0.14 0.664-0.204 0.026-0.013 0.051-0.013 0.064-0.026l0.166-0.089 0.166-0.064c0.281-0.102 0.702-0.268 1.187-0.562l0.013-0.013 0.089-0.038c0.268-0.14 0.536-0.294 0.83-0.498 0.23-0.153 0.459-0.319 0.677-0.536l0.37-0.332 0.166-0.166v-0.026l0.179-0.179c0.128-0.14 0.243-0.281 0.319-0.408l0.013-0.013c0.064-0.102 0.128-0.23 0.166-0.37l0.766-2.183 5.54 1.442-0.906 2.54c-0.255 0.728-0.6 1.404-1.008 1.966-0.166 0.255-0.345 0.498-0.523 0.715-0.153 0.191-0.319 0.383-0.498 0.574-0.051 0.064-0.115 0.115-0.166 0.179-0.345 0.345-0.638 0.613-0.932 0.855-0.332 0.268-0.677 0.523-1.047 0.791-0.077 0.051-0.128 0.089-0.191 0.128-0.115 0.077-0.23 0.153-0.357 0.217-0.077 0.051-0.153 0.102-0.243 0.14-0.077 0.051-0.153 0.089-0.243 0.153-0.255 0.179-0.523 0.306-0.779 0.434-0.217 0.115-0.434 0.217-0.625 0.306-0.791 0.357-1.519 0.613-2.221 0.779-1.34 0.357-2.489 0.511-3.548 0.511zM13.645 30.89c0.153 0 0.319 0 0.485 0.013 0.153 0 0.306 0.013 0.472 0.013 1.021 0 2.144-0.153 3.421-0.485 0.689-0.166 1.391-0.408 2.157-0.753 0.179-0.077 0.396-0.191 0.6-0.294 0.255-0.128 0.511-0.255 0.753-0.421 0.089-0.051 0.166-0.102 0.255-0.153 0.077-0.051 0.153-0.089 0.243-0.153 0.128-0.064 0.23-0.14 0.332-0.217 0.064-0.051 0.128-0.089 0.204-0.128 0.37-0.255 0.702-0.511 1.021-0.779 0.281-0.23 0.574-0.485 0.906-0.817 0.051-0.051 0.102-0.115 0.166-0.179 0.179-0.191 0.345-0.357 0.472-0.549 0.166-0.217 0.345-0.447 0.511-0.689 0.383-0.536 0.715-1.174 0.957-1.876l0.766-2.144-4.799-1.251-0.638 1.838c-0.051 0.166-0.115 0.332-0.204 0.459-0.089 0.166-0.23 0.319-0.357 0.472l-0.115 0.115c-0.026 0.038-0.051 0.077-0.077 0.089l-0.191 0.191-0.37 0.332c-0.23 0.23-0.485 0.408-0.728 0.574-0.306 0.217-0.587 0.383-0.868 0.523l-0.077 0.038c-0.498 0.306-0.957 0.485-1.238 0.587l-0.153 0.064-0.102 0.051c-0.038 0.026-0.077 0.038-0.102 0.051 0 0-0.013 0-0.026 0l-0.038 0.013c-0.268 0.077-0.459 0.14-0.664 0.204-0.408 0.128-0.779 0.204-1.085 0.243-0.281 0.064-0.587 0.089-0.919 0.089-0.37 0-0.715-0.026-1.034-0.064h-0.026c-0.766-0.089-1.442-0.268-2.042-0.549l-0.383-0.179-0.957-0.562c-0.191-0.115-0.319-0.204-0.396-0.268l-0.102-0.064c-0.166-0.128-0.345-0.255-0.498-0.396-0.204-0.179-0.37-0.345-0.536-0.523-0.166-0.14-0.319-0.306-0.498-0.498l-0.051-0.051c-0.026-0.026-0.051-0.064-0.089-0.102-0.089-0.102-0.23-0.268-0.396-0.498-0.026-0.038-0.038-0.051-0.064-0.077s-0.051-0.064-0.077-0.102l-0.064-0.089 7.020-16.555h0.128c0.613 0.026 1.276 0.102 2.017 0.23h0.026c0.089 0.013 0.179 0.038 0.255 0.051 0.051 0.013 0.102 0.026 0.166 0.038l0.026 0.013 0.038 0.013c0.051 0.013 0.128 0.038 0.204 0.077l0.064 0.026c0.077 0.038 0.153 0.064 0.23 0.089 0.115 0.038 0.23 0.089 0.332 0.14 0.179 0.077 0.383 0.166 0.587 0.281 0.128 0.064 0.255 0.14 0.383 0.217 0.064 0.038 0.14 0.077 0.204 0.128 0.128 0.051 0.281 0.153 0.396 0.268 0.064 0.051 0.128 0.115 0.191 0.179 0.217 0.191 0.447 0.396 0.664 0.638 0.243 0.23 0.434 0.523 0.587 0.791l1.43 2.412 4.621-1.634-1.647-3.063c-0.345-0.638-0.753-1.238-1.225-1.774-0.766-0.919-1.634-1.659-2.553-2.221-0.932-0.562-2.030-1.021-3.255-1.391-1.174-0.332-2.553-0.498-4.11-0.498h-0.421c-0.243 0-0.511 0.026-0.689 0.038l-0.677 0.089c-0.651 0.077-1.366 0.243-2.055 0.46-0.498 0.166-1.149 0.408-1.774 0.715l-0.026 0.026-0.026 0.013c-1.723 0.868-3.178 2.042-4.34 3.497-0.613 0.715-1.136 1.468-1.596 2.298-0.472 0.868-0.868 1.698-1.174 2.553-0.676 1.8-1.008 3.702-1.008 5.616 0 1.889 0.345 3.753 1.034 5.527 0.128 0.332 0.255 0.651 0.383 0.957 0.166 0.408 0.37 0.791 0.625 1.213l0.472 0.766c0.102 0.153 0.204 0.306 0.306 0.459s0.204 0.306 0.306 0.447c0.268 0.408 0.549 0.753 0.83 1.072 0.255 0.268 0.523 0.549 0.817 0.817l0.817 0.766c0.217 0.204 0.485 0.408 0.779 0.613 0.281 0.204 0.498 0.37 0.753 0.523l0.038 0.013c0.191 0.102 0.345 0.191 0.485 0.294 0.217 0.128 0.46 0.268 0.677 0.37 0.408 0.217 0.753 0.37 1.111 0.511 0.306 0.128 0.562 0.217 0.804 0.294h0.013c0.128 0.051 0.268 0.089 0.408 0.128 0.077 0.026 0.14 0.038 0.217 0.064l0.128 0.026c0.204 0.051 0.396 0.102 0.6 0.14 0.102 0.026 0.191 0.038 0.281 0.051 0.102 0.013 0.204 0.038 0.294 0.051l0.089 0.013c0.128 0.013 0.268 0.026 0.408 0.038 0.179 0.013 0.357 0.038 0.536 0.051 0.026-0.013 0.026-0.013 0.038-0.013zM5.91 12.917v-0.932c0-0.026 0-0.064 0.051-0.204 0.204-0.6 0.46-1.187 0.779-1.761l0.345 0.166-1.174 2.732z"></path>
<path fill="#fff" d="M14.59 29.473c-0.268 0-0.587 0-0.868-0.026-0.306-0.026-0.574-0.038-0.83-0.089h-0.051c-0.089-0.026-0.191-0.038-0.281-0.051-0.102-0.013-0.191-0.038-0.294-0.051l-0.089-0.026c-0.179-0.038-0.357-0.077-0.523-0.14-0.089-0.026-0.179-0.051-0.281-0.077s-0.204-0.051-0.306-0.089-0.408-0.14-0.613-0.23h-0.026l-0.038-0.013c-0.306-0.115-0.664-0.255-0.983-0.434l-0.038-0.026c-0.179-0.077-0.357-0.179-0.549-0.294-0.089-0.051-0.166-0.115-0.255-0.166-0.077-0.051-0.153-0.102-0.243-0.153l-0.128-0.089c-0.204-0.14-0.408-0.268-0.587-0.421-0.204-0.14-0.447-0.345-0.689-0.536l-0.779-0.715c-0.255-0.243-0.523-0.498-0.753-0.753-0.243-0.255-0.472-0.549-0.715-0.893-0.089-0.14-0.179-0.268-0.255-0.383-0.115-0.179-0.23-0.332-0.319-0.498l-0.447-0.753c-0.191-0.319-0.37-0.651-0.523-0.97-0.153-0.357-0.281-0.677-0.37-0.957-0.613-1.621-0.932-3.293-0.932-4.991 0-1.761 0.306-3.497 0.906-5.131 0.306-0.817 0.664-1.608 1.072-2.349 0.408-0.728 0.894-1.43 1.442-2.093 1.047-1.289 2.349-2.323 3.893-3.076 0.511-0.243 1.047-0.459 1.647-0.664 0.562-0.191 1.162-0.332 1.787-0.396l0.677-0.089c0.153-0.026 0.345-0.026 0.511-0.026h0.421c1.43 0 2.68 0.153 3.727 0.46 1.047 0.281 2.017 0.702 2.898 1.238 0.842 0.523 1.57 1.162 2.221 1.94 0.408 0.472 0.753 0.97 1.059 1.519l0.855 1.557-1.94 0.677-0.83-1.391c-0.217-0.383-0.472-0.74-0.779-1.072-0.306-0.306-0.625-0.625-0.97-0.919-0.179-0.153-0.37-0.294-0.562-0.408-0.115-0.064-0.217-0.128-0.332-0.191s-0.23-0.128-0.332-0.191c-0.204-0.115-0.421-0.217-0.651-0.306l0.013 0.013c-0.204-0.102-0.421-0.179-0.664-0.268l-0.089-0.038c-0.128-0.051-0.243-0.089-0.345-0.102h-0.026c-0.166-0.038-0.332-0.077-0.485-0.102h-0.013c-0.868-0.179-1.774-0.268-2.693-0.268-0.191 0-0.37 0-0.549 0.026l-0.14 0.013-7.748 18.112 0.026 0.038c0.064 0.115 0.128 0.204 0.204 0.306 0.051 0.077 0.102 0.14 0.14 0.204 0.089 0.14 0.191 0.281 0.281 0.383l0.013 0.013c0.217 0.306 0.447 0.574 0.638 0.766l0.026 0.026c0.102 0.102 0.191 0.191 0.281 0.294 0.089 0.089 0.179 0.191 0.268 0.281 0.089 0.077 0.191 0.179 0.294 0.268 0.089 0.089 0.191 0.179 0.294 0.268 0.179 0.166 0.396 0.319 0.677 0.511l0.038 0.038c0.166 0.128 0.383 0.268 0.651 0.421l0.919 0.511 0.421 0.204c0.779 0.357 1.621 0.587 2.489 0.664 0.434 0.051 0.83 0.089 1.238 0.089 0.319 0 0.702-0.038 1.162-0.102 0.37-0.064 0.804-0.153 1.276-0.294 0.217-0.064 0.421-0.128 0.613-0.191 0.153-0.038 0.306-0.102 0.421-0.166l0.038-0.026 0.038-0.013c0.485-0.179 0.996-0.421 1.506-0.715l0.038-0.026h0.026c0.319-0.179 0.651-0.37 0.945-0.562 0.306-0.204 0.6-0.434 0.868-0.689l0.408-0.37 0.23-0.23c0.064-0.064 0.115-0.115 0.179-0.191l0.038-0.038c0.191-0.204 0.37-0.459 0.523-0.689 0.153-0.243 0.268-0.485 0.345-0.715l0.204-0.6 2.017 0.523-0.243 0.689c-0.23 0.625-0.498 1.136-0.791 1.544-0.14 0.204-0.294 0.421-0.447 0.625-0.153 0.191-0.345 0.408-0.549 0.613-0.255 0.255-0.511 0.498-0.804 0.74-0.281 0.243-0.587 0.459-0.881 0.664-0.14 0.102-0.306 0.204-0.472 0.306-0.115 0.077-0.243 0.153-0.357 0.217-0.038 0.026-0.077 0.038-0.115 0.064-0.217 0.128-0.434 0.255-0.638 0.345-0.217 0.102-0.408 0.191-0.6 0.281-0.664 0.306-1.302 0.523-1.889 0.651-1.238 0.268-2.259 0.421-3.204 0.421zM12.917 28.988h0.038c0.243 0.038 0.511 0.064 0.817 0.089 0.268 0.026 0.562 0.026 0.842 0.026 0.906 0 1.915-0.153 3.14-0.383 0.549-0.128 1.162-0.332 1.813-0.625 0.191-0.077 0.383-0.166 0.587-0.268 0.191-0.089 0.396-0.217 0.6-0.332 0.038-0.026 0.089-0.051 0.128-0.077 0.115-0.064 0.23-0.128 0.332-0.191l0.013-0.013c0.153-0.089 0.319-0.191 0.447-0.294 0.294-0.204 0.587-0.421 0.855-0.651 0.281-0.23 0.523-0.472 0.779-0.715 0.191-0.191 0.383-0.396 0.511-0.574 0.14-0.191 0.294-0.408 0.447-0.613 0.281-0.383 0.523-0.868 0.74-1.442l0.102-0.294-1.264-0.332-0.089 0.255c-0.077 0.268-0.204 0.536-0.383 0.804-0.166 0.255-0.37 0.523-0.574 0.753l-0.013 0.013c-0.064 0.089-0.14 0.153-0.204 0.217l-0.23 0.23-0.408 0.37c-0.281 0.255-0.587 0.498-0.919 0.715s-0.677 0.408-1.008 0.6l-0.038 0.026h-0.026c-0.511 0.294-1.021 0.523-1.506 0.715l-0.077 0.038h-0.026c-0.128 0.064-0.294 0.115-0.434 0.166-0.179 0.064-0.396 0.128-0.6 0.191h-0.013c-0.485 0.14-0.932 0.243-1.327 0.306-0.485 0.077-0.893 0.115-1.225 0.115-0.421 0-0.842-0.038-1.276-0.089-0.906-0.089-1.787-0.319-2.617-0.702l-0.434-0.217-0.919-0.511c-0.294-0.179-0.523-0.319-0.702-0.459l-0.026-0.026c-0.294-0.204-0.511-0.37-0.715-0.536-0.102-0.089-0.204-0.191-0.306-0.281s-0.191-0.191-0.294-0.268c-0.102-0.102-0.191-0.204-0.294-0.294-0.089-0.089-0.179-0.191-0.268-0.281l-0.026-0.026c-0.204-0.204-0.447-0.485-0.676-0.804-0.115-0.128-0.204-0.268-0.306-0.421-0.038-0.064-0.089-0.128-0.128-0.191-0.089-0.102-0.153-0.217-0.217-0.332l-0.14-0.204 7.876-18.572 0.37-0.026c0.191-0.026 0.396-0.026 0.587-0.026 0.945 0 1.864 0.089 2.757 0.281 0.179 0.026 0.345 0.064 0.511 0.102 0.14 0.026 0.281 0.077 0.421 0.128l0.077 0.026c0.23 0.089 0.472 0.166 0.689 0.281 0.243 0.102 0.472 0.204 0.689 0.332 0.115 0.064 0.217 0.128 0.332 0.191s0.23 0.128 0.332 0.191c0.204 0.115 0.434 0.281 0.625 0.447 0.345 0.306 0.664 0.625 0.983 0.945 0.345 0.37 0.625 0.74 0.842 1.149l0.664 1.111 1.213-0.421-0.638-1.162c-0.294-0.523-0.625-1.008-1.021-1.455-0.625-0.753-1.327-1.353-2.132-1.864-0.842-0.511-1.787-0.919-2.808-1.187-1.008-0.294-2.221-0.447-3.625-0.447h-0.421c-0.166 0-0.332 0-0.46 0.026l-0.689 0.089c-0.6 0.064-1.174 0.191-1.71 0.37-0.574 0.204-1.098 0.408-1.596 0.651-1.468 0.728-2.732 1.723-3.765 2.974-0.549 0.651-1.021 1.34-1.404 2.042-0.408 0.728-0.753 1.493-1.047 2.298-0.587 1.596-0.881 3.268-0.881 4.991 0 1.634 0.306 3.268 0.906 4.863 0.089 0.281 0.217 0.587 0.357 0.932 0.14 0.306 0.306 0.625 0.498 0.932l0.447 0.74c0.089 0.153 0.204 0.306 0.319 0.485 0.089 0.128 0.179 0.255 0.255 0.383 0.23 0.319 0.447 0.6 0.676 0.842 0.23 0.255 0.485 0.511 0.74 0.74l0.766 0.702c0.217 0.179 0.46 0.37 0.664 0.511 0.179 0.14 0.37 0.268 0.574 0.408l0.128 0.089c0.077 0.051 0.166 0.102 0.243 0.166 0.077 0.051 0.153 0.102 0.243 0.153 0.179 0.115 0.37 0.217 0.536 0.281l0.038 0.013 0.026 0.026c0.255 0.14 0.523 0.255 0.881 0.383h0.026l0.038 0.013c0.204 0.089 0.421 0.166 0.625 0.23 0.102 0.026 0.191 0.051 0.294 0.089 0.102 0.026 0.204 0.051 0.306 0.089 0.153 0.051 0.319 0.089 0.485 0.128l0.089 0.026c0.089 0.026 0.179 0.038 0.281 0.051 0.115 0.038 0.204 0.064 0.306 0.077zM4.57 20.729l-0.421-1.213c-0.408-1.187-0.613-2.489-0.613-3.868 0-0.715 0.064-1.468 0.179-2.246 0.102-0.715 0.294-1.455 0.562-2.183 0.472-1.417 1.174-2.732 2.119-3.906 0.957-1.136 2.081-2.055 3.357-2.732 0.345-0.179 0.677-0.332 1.008-0.46l1.123-0.447-7.314 17.053zM11.194 4.365l-0.281 0.102c-0.319 0.115-0.625 0.255-0.957 0.434-1.225 0.651-2.323 1.544-3.242 2.642-0.906 1.123-1.596 2.387-2.055 3.778-0.268 0.715-0.447 1.43-0.549 2.119-0.115 0.766-0.166 1.493-0.166 2.183 0 1.327 0.191 2.578 0.587 3.74l0.089 0.281 6.574-15.279z"></path>
<path fill="#fff" d="M53.916 31.285h-6.88v-0.179l-6.42-10.033h-2.195l-4.34 10.173h-4.863v-30.89h13.211c0.23 0 0.421 0.026 0.613 0.038l0.613 0.064c0.523 0.064 0.983 0.179 1.43 0.357 0.294 0.115 0.638 0.268 1.059 0.472l0.038 0.026c0.587 0.319 1.111 0.651 1.544 0.983 0.523 0.383 1.008 0.83 1.481 1.391l0.013 0.013 0.038 0.064 0.447 0.574c0.179 0.243 0.332 0.485 0.485 0.715 0.23 0.357 0.421 0.715 0.587 1.085 0.064 0.128 0.128 0.281 0.191 0.421v0.013c0.026 0.064 0.038 0.115 0.064 0.179 0.026 0.051 0.038 0.115 0.064 0.179 0.115 0.268 0.204 0.523 0.281 0.728 0.077 0.243 0.153 0.523 0.204 0.817 0.038 0.204 0.089 0.434 0.102 0.625l0.038 0.306c0.064 0.243 0.089 0.523 0.089 0.842v0.447c0 0.255 0 0.536-0.026 0.83-0.026 0.434-0.077 0.804-0.153 1.123l-0.179 1.136-0.217 0.613-0.153 0.408c-0.077 0.255-0.166 0.511-0.306 0.753-0.013 0.038-0.038 0.077-0.051 0.102-0.013 0.013-0.026 0.038-0.026 0.051l-0.064 0.153-0.026 0.026c-0.064 0.128-0.153 0.268-0.23 0.396l-0.115 0.217c-0.089 0.166-0.204 0.319-0.306 0.472-0.153 0.243-0.332 0.472-0.574 0.74l-0.613 0.677-0.549 0.511c-0.268 0.243-0.549 0.447-0.83 0.638l-0.702 0.434 7.225 11.309zM47.355 30.902h5.859l-7.046-11.041 0.396-0.204 0.651-0.396c0.255-0.179 0.536-0.37 0.779-0.6l0.549-0.511 0.587-0.651c0.23-0.255 0.396-0.472 0.536-0.702l0.013-0.013c0.102-0.153 0.204-0.294 0.294-0.434l0.013-0.038 0.115-0.217c0.077-0.115 0.153-0.255 0.217-0.383l0.013-0.026 0.013-0.013 0.026-0.064c0.013-0.038 0.038-0.077 0.051-0.115 0.013-0.013 0.026-0.038 0.026-0.051l0.013-0.026c0.115-0.217 0.204-0.46 0.281-0.715l0.153-0.408 0.204-0.6 0.166-1.111c0.077-0.306 0.115-0.664 0.14-1.072 0.026-0.268 0.026-0.536 0.026-0.804v-0.447c0-0.294-0.026-0.549-0.077-0.766v-0.026l-0.038-0.319c-0.026-0.191-0.064-0.396-0.102-0.6-0.051-0.281-0.115-0.536-0.191-0.766-0.102-0.294-0.179-0.511-0.268-0.702l-0.013-0.013c-0.026-0.064-0.038-0.115-0.064-0.179s-0.038-0.115-0.064-0.179c-0.064-0.14-0.128-0.294-0.179-0.408-0.153-0.357-0.345-0.715-0.562-1.047-0.14-0.23-0.294-0.46-0.459-0.689l-0.485-0.638c-0.447-0.523-0.906-0.957-1.404-1.327-0.421-0.319-0.919-0.638-1.493-0.945l-0.038-0.013c-0.421-0.204-0.74-0.357-1.021-0.46-0.421-0.166-0.855-0.268-1.34-0.332l-0.613-0.064c-0.191-0.026-0.37-0.038-0.574-0.038h-12.841v30.124h4.238l4.34-10.173h2.655l6.523 10.199zM34.566 16.657v-10.952h4.672l-4.672 10.952zM34.949 6.101v8.68l3.702-8.68h-3.702zM42.607 15.777h-2.374l3.97-9.369 0.179 0.089c0.051 0.026 0.102 0.051 0.14 0.089 0.038 0.026 0.077 0.051 0.115 0.064l0.026 0.013 0.038 0.038 0.536 0.574c0.038 0.038 0.064 0.077 0.102 0.115 0.013 0.026 0.026 0.038 0.051 0.051l0.026 0.038c0.026 0.051 0.064 0.102 0.102 0.153s0.077 0.115 0.115 0.166l0.013 0.013c0.026 0.051 0.064 0.115 0.102 0.166l0.038 0.064 0.243 0.447 0.128 0.294 0.102 0.281c0.051 0.102 0.077 0.191 0.102 0.281 0.013 0.038 0.026 0.077 0.038 0.115 0.051 0.153 0.077 0.294 0.089 0.434 0.038 0.268 0.064 0.536 0.064 0.817v0.485l-0.038 0.191v0.128c0 0.166-0.026 0.319-0.077 0.46-0.026 0.089-0.051 0.191-0.089 0.294-0.038 0.14-0.089 0.294-0.128 0.434-0.077 0.268-0.166 0.485-0.243 0.638l-0.013 0.026c-0.128 0.191-0.23 0.37-0.332 0.562l-0.013 0.026-0.013 0.013c-0.013 0.013-0.026 0.026-0.038 0.038-0.038 0.051-0.077 0.115-0.153 0.191l-0.6 0.651c-0.179 0.128-0.357 0.243-0.523 0.345l-0.306 0.179c-0.204 0.102-0.408 0.179-0.562 0.23l-0.038 0.013c-0.077 0.013-0.166 0.026-0.243 0.038-0.089 0.013-0.179 0.038-0.268 0.038-0.077 0.013-0.166 0.013-0.255 0.026l-0.013 0.064zM40.82 15.394h1.417v-0.026h0.191c0.14 0 0.281 0 0.396-0.013 0.089-0.013 0.166-0.026 0.255-0.038 0.077-0.013 0.166-0.026 0.243-0.038 0.204-0.064 0.357-0.128 0.485-0.191l0.294-0.166c0.153-0.102 0.319-0.204 0.485-0.319l0.038-0.038 0.523-0.587c0.064-0.064 0.102-0.115 0.128-0.153 0.013-0.026 0.038-0.051 0.051-0.064 0.102-0.179 0.204-0.37 0.332-0.562 0.064-0.14 0.153-0.319 0.217-0.549 0.038-0.153 0.089-0.306 0.128-0.447 0.026-0.102 0.064-0.204 0.089-0.294 0.038-0.128 0.051-0.23 0.051-0.357v-0.191l0.038-0.191v-0.434c0-0.255-0.026-0.511-0.064-0.753-0.013-0.128-0.038-0.255-0.077-0.37-0.013-0.051-0.026-0.089-0.038-0.14-0.026-0.077-0.038-0.153-0.077-0.217l-0.013-0.013-0.102-0.281-0.128-0.281-0.255-0.447c-0.038-0.051-0.089-0.128-0.128-0.204-0.026-0.051-0.064-0.089-0.102-0.14s-0.077-0.102-0.102-0.153c-0.013-0.026-0.038-0.038-0.051-0.064-0.026-0.026-0.051-0.064-0.077-0.089l-0.536-0.574c-0.013-0.013-0.038-0.013-0.051-0.026l-3.561 8.412z"></path>
<path fill="#fff" d="M50.534 29.524h-2.502v-0.217l-6.42-10.020h-4.404l-4.34 10.173h-1.825v-27.277h11.398c0.115 0 0.243 0 0.37 0.026l0.651 0.089c0.306 0.038 0.638 0.128 0.983 0.243 0.332 0.115 0.625 0.255 0.894 0.396 0.498 0.268 0.957 0.562 1.34 0.842 0.396 0.294 0.791 0.664 1.174 1.098l0.051 0.051v0.026c0.128 0.166 0.255 0.332 0.37 0.485 0.064 0.102 0.14 0.191 0.204 0.294 0.077 0.102 0.14 0.191 0.204 0.294 0.217 0.332 0.37 0.651 0.485 0.893 0.026 0.051 0.038 0.089 0.064 0.128 0.038 0.064 0.064 0.14 0.102 0.23l0.14 0.345v0.013c0.089 0.204 0.153 0.408 0.204 0.587 0.064 0.23 0.115 0.447 0.153 0.638 0.038 0.166 0.064 0.332 0.089 0.485l0.038 0.421c0.038 0.153 0.064 0.332 0.064 0.511v0.447c0 0.255 0 0.498-0.026 0.753 0 0.243-0.038 0.523-0.115 0.842l-0.217 1.021-0.332 0.945c-0.038 0.153-0.102 0.319-0.179 0.485l-0.013 0.013c-0.051 0.089-0.089 0.191-0.14 0.294l-0.013 0.038-0.026 0.026c-0.051 0.115-0.115 0.204-0.179 0.281l-0.013 0.013c0 0-0.013 0.013-0.026 0.051l-0.013 0.038-0.038 0.051c-0.051 0.089-0.102 0.166-0.153 0.243s-0.089 0.14-0.128 0.217c-0.102 0.166-0.23 0.332-0.396 0.485l-0.562 0.625-0.485 0.447c-0.179 0.153-0.383 0.306-0.6 0.459l-0.613 0.37h-0.026c-0.089 0.051-0.179 0.089-0.268 0.128-0.038 0.026-0.089 0.038-0.128 0.064-0.064 0.026-0.102 0.051-0.153 0.064-0.102 0.038-0.191 0.089-0.319 0.128-0.102 0.038-0.204 0.077-0.294 0.102-0.102 0.038-0.204 0.077-0.306 0.102l-0.191 0.064-0.166 0.038 6.625 10.416zM48.389 29.141h1.455l-6.51-10.186 0.74-0.204 0.102-0.038c0.089-0.026 0.191-0.064 0.294-0.102s0.204-0.077 0.306-0.102c0.102-0.038 0.191-0.077 0.281-0.115 0.051-0.026 0.102-0.038 0.14-0.064 0.038-0.013 0.077-0.038 0.128-0.064 0.089-0.038 0.191-0.089 0.281-0.14l0.038-0.026h0.013l0.511-0.306c0.191-0.14 0.383-0.281 0.549-0.434l0.485-0.434 0.549-0.613c0.14-0.14 0.255-0.281 0.345-0.421 0.038-0.077 0.089-0.153 0.14-0.23s0.089-0.14 0.128-0.217l0.038-0.077c0.026-0.064 0.051-0.115 0.077-0.14 0.051-0.077 0.102-0.14 0.14-0.23l0.013-0.038 0.026-0.026c0.038-0.102 0.077-0.204 0.14-0.306 0.064-0.14 0.115-0.255 0.153-0.383v-0.026l0.345-0.957 0.204-0.983c0.064-0.294 0.102-0.549 0.102-0.766v-0.013c0.026-0.243 0.026-0.485 0.026-0.728v-0.447c0-0.153-0.026-0.306-0.051-0.434l-0.013-0.026v-0.038l-0.038-0.396c-0.026-0.14-0.038-0.281-0.077-0.447-0.038-0.217-0.089-0.408-0.14-0.613-0.051-0.179-0.115-0.37-0.204-0.574l-0.013-0.038v-0.026l-0.115-0.281c-0.026-0.077-0.051-0.14-0.089-0.204-0.026-0.051-0.051-0.089-0.064-0.14-0.102-0.23-0.255-0.536-0.447-0.842-0.064-0.089-0.128-0.191-0.191-0.281-0.077-0.102-0.14-0.191-0.204-0.294-0.115-0.166-0.243-0.332-0.396-0.523l-0.038-0.051v-0.013c-0.357-0.396-0.715-0.715-1.072-0.983-0.37-0.281-0.817-0.549-1.302-0.817-0.255-0.14-0.536-0.255-0.842-0.37s-0.613-0.191-0.894-0.23l-0.676-0.089c-0.089-0.013-0.204-0.013-0.306-0.013h-11.016v26.511h1.2l4.34-10.173h4.863l6.548 10.199zM32.766 25.503v-21.61h9.229l-5.897 13.862-0.319 0.728-3.012 7.020zM33.149 4.276v19.363l2.272-5.31 0.319-0.728 5.667-13.326h-8.258zM42.416 17.564h-4.927l5.769-13.619 0.472 0.166c0.026 0 0.038 0.013 0.064 0.026 0.243 0.077 0.459 0.179 0.74 0.306h0.026l0.038 0.026c0.051 0.026 0.102 0.051 0.166 0.102l0.051 0.038c0.051 0.038 0.115 0.077 0.166 0.102 0.217 0.115 0.434 0.255 0.613 0.37 0.166 0.115 0.319 0.23 0.459 0.396l0.459 0.511c0.128 0.128 0.243 0.243 0.332 0.383 0.051 0.077 0.102 0.14 0.153 0.204s0.089 0.14 0.153 0.204c0.038 0.038 0.064 0.089 0.089 0.14 0.013 0.026 0.038 0.064 0.051 0.089 0.089 0.064 0.115 0.153 0.128 0.204l0.013 0.026 0.217 0.383 0.191 0.472 0.153 0.447c0.051 0.153 0.102 0.294 0.14 0.447 0.051 0.14 0.077 0.281 0.102 0.434 0.013 0.064 0.026 0.115 0.038 0.179v0.013c0.038 0.345 0.064 0.715 0.064 1.085v0.472c0 0.115-0.026 0.255-0.038 0.383v0.051c0 0.255-0.038 0.523-0.115 0.791-0.038 0.14-0.077 0.281-0.115 0.408-0.038 0.14-0.077 0.281-0.115 0.421-0.089 0.319-0.23 0.638-0.421 0.996-0.051 0.089-0.102 0.166-0.14 0.255-0.077 0.128-0.14 0.255-0.23 0.383-0.102 0.179-0.243 0.357-0.396 0.536l-0.511 0.574c-0.128 0.14-0.281 0.281-0.459 0.408-0.102 0.064-0.204 0.128-0.294 0.191-0.089 0.051-0.191 0.115-0.281 0.179l-0.013 0.013-0.345 0.191c-0.281 0.166-0.625 0.294-1.047 0.421-0.179 0.051-0.332 0.077-0.485 0.102-0.064 0.013-0.14 0.026-0.204 0.038h-0.013c-0.204 0.038-0.447 0.051-0.702 0.051zM38.076 17.181h4.34c0.23 0 0.459-0.026 0.651-0.038 0.077-0.013 0.14-0.026 0.217-0.038 0.153-0.026 0.294-0.051 0.447-0.089 0.383-0.115 0.702-0.243 0.957-0.383l0.332-0.191c0.102-0.064 0.191-0.128 0.294-0.179 0.089-0.051 0.191-0.115 0.281-0.179 0.153-0.102 0.281-0.23 0.383-0.345l0.511-0.574c0.14-0.166 0.268-0.319 0.37-0.485 0.077-0.115 0.14-0.23 0.217-0.357 0.051-0.089 0.089-0.166 0.14-0.255 0.179-0.319 0.294-0.613 0.383-0.919 0.038-0.14 0.077-0.281 0.115-0.408 0.038-0.14 0.077-0.281 0.115-0.421 0.064-0.243 0.102-0.472 0.102-0.689v-0.089c0.026-0.115 0.038-0.243 0.038-0.332v-0.472c0-0.357-0.026-0.702-0.064-1.034-0.013-0.064-0.026-0.115-0.038-0.179-0.026-0.14-0.051-0.268-0.089-0.383v-0.013c-0.026-0.14-0.077-0.281-0.128-0.421l-0.14-0.434-0.179-0.447-0.255-0.434v-0.038l-0.026-0.013-0.026-0.038c-0.038-0.051-0.064-0.089-0.089-0.14-0.026-0.038-0.051-0.077-0.077-0.115-0.051-0.077-0.102-0.153-0.153-0.217s-0.089-0.14-0.153-0.217c-0.077-0.115-0.179-0.217-0.294-0.332l-0.472-0.523c-0.115-0.14-0.255-0.23-0.396-0.332-0.166-0.115-0.383-0.243-0.574-0.345-0.064-0.038-0.14-0.089-0.204-0.128l-0.051-0.026c-0.038-0.026-0.064-0.038-0.089-0.051h-0.013l-0.038-0.013c-0.281-0.128-0.511-0.23-0.753-0.306l-0.026-0.013c-0.013 0-0.013 0-0.026 0-0.026 0-0.051-0.013-0.089-0.038l-0.064-0.026-5.387 12.7z"></path>
<path fill="#fff" d="M77.147 31.247h-21.814v-13.76l3.74-2.259h-3.74v-14.858h21.469v5.718h-15.764v3.408h10.799v4.633l-10.799 6.535v4.863h16.109v5.718zM55.716 30.864h21.035v-4.953h-16.108v-5.45l10.799-6.535v-4.034h-10.799v-4.187h15.764v-4.953h-20.691v14.092h4.723l-4.723 2.859v13.16z"></path>
<path fill="#fff" d="M75.335 29.434h-18.189v-10.939l8.424-5.106h-8.424v-11.233h17.844v2.093h-15.764v7.046h10.799v1.787l-10.799 6.535v7.722h16.109v2.093zM57.529 29.051h17.423v-1.302h-16.121v-8.322l0.625-0.37 10.16-6.152v-1.187h-10.799v-7.812h15.764v-1.327h-17.053v10.467h9.407l-9.407 5.706v10.301z"></path>
<path fill="#fff" d="M103.352 31.987l-3.408-7.927-4.289 7.186h-3.395l-4.263-7.174-3.102 7.174h-6.242l6.586-15.202 6.791-15.713h3.931l0.051 0.115 7.020 16.338 6.242 14.436h-5.91v0.766zM92.464 30.864h2.961l4.557-7.659 3.28 7.633h5.399l-6.012-13.9-6.969-16.223h-3.408l-7.033 16.274-6.012 13.875h5.412l3.293-7.633 4.531 7.633zM93.932 23.767l-3.638-6.152 3.663-8.412 3.612 8.437-0.051 0.089-3.587 6.037zM90.741 17.602l3.191 5.425 3.191-5.399-3.178-7.442-3.204 7.416z"></path>
<path fill="#fff" d="M106.492 29.434h-2.272l-4.046-9.343-5.565 9.343h-1.353l-5.54-9.343-4.046 9.343h-2.272l5.476-12.675 6.331-14.59h1.532l6.599 15.368 5.157 11.896zM104.475 29.051h1.43l-4.927-11.373-6.497-15.126h-1.021l-6.561 15.164-4.901 11.347h1.43l4.251-9.803 5.82 9.803h0.906l5.833-9.803 4.238 9.79zM93.932 27.316l-5.655-9.56 0.038-0.089 5.642-13.045 5.629 13.16-5.655 9.535zM88.712 17.73l5.233 8.833 5.233-8.807-5.208-12.164-5.259 12.139z"></path>
<path fill="#fff" d="M116.474 31.247h-5.718v-20.333l-8.016-4.876h-1.825v-5.706h25.49l-0.204 5.718h-12.471l0.817 0.498 1.927 1.187v23.512zM111.138 30.864h4.953v-22.899l-1.736-1.072-1.991-1.213h13.479l0.179-4.953h-24.712v4.94h1.544l8.284 5.042v20.155z"></path>
<path fill="#fff" d="M114.649 29.434h-2.068v-19.542l-9.331-5.655h-0.523v-2.068h21.789l-0.077 2.093h-17.232l6.395 3.88 1.047 0.651v20.64zM112.964 29.051h1.302v-20.053l-0.868-0.536-7.556-4.582h18.24l0.051-1.327h-21.023v1.302h0.243l9.611 5.82v19.376z"></path>
<path fill="#fff" d="M138.773 31.477h-0.077l-0.038-0.038c-2.157-0.051-4.161-0.549-5.923-1.493-1.685-0.881-3.191-2.055-4.493-3.51-0.702-0.817-1.251-1.583-1.685-2.336-0.536-0.932-0.945-1.787-1.225-2.617-0.677-1.813-1.008-3.74-1.008-5.68 0-1.927 0.357-3.88 1.047-5.795v-0.026l0.013-0.038c0.613-1.596 1.442-3.038 2.463-4.289l0.485-0.6c0.664-0.817 1.404-1.519 2.183-2.093 0.728-0.536 1.519-1.008 2.438-1.442 1.813-0.868 3.778-1.315 5.821-1.315 2.132 0 4.148 0.485 5.974 1.43 1.813 0.932 3.344 2.157 4.57 3.638 1.162 1.391 2.119 3.051 2.846 4.927l0.013 0.038v0.026c0.664 1.838 0.996 3.714 0.996 5.591 0 2.042-0.357 4.034-1.072 5.872-0.689 1.813-1.698 3.459-3 4.927-1.276 1.455-2.808 2.617-4.544 3.485-0.893 0.421-1.787 0.753-2.744 0.996-0.97 0.217-2.017 0.345-3.038 0.345zM125.728 10.071v0.026l-0.013 0.026c-0.689 1.889-1.034 3.804-1.034 5.693s0.332 3.765 0.996 5.552c0.281 0.804 0.677 1.634 1.2 2.553 0.421 0.728 0.957 1.468 1.647 2.272 1.251 1.404 2.732 2.553 4.391 3.408 1.736 0.919 3.702 1.404 5.833 1.442h0.077l0.038 0.038c0.957 0 1.953-0.128 2.859-0.357 0.932-0.243 1.8-0.549 2.668-0.97 1.685-0.83 3.166-1.966 4.429-3.383s2.246-3.025 2.923-4.812c0.702-1.8 1.047-3.74 1.047-5.744 0-1.825-0.332-3.689-0.996-5.489l-0.013-0.026v-0.026c-0.702-1.813-1.634-3.408-2.77-4.787-1.187-1.43-2.668-2.617-4.442-3.548-1.774-0.919-3.74-1.379-5.808-1.379-1.991 0-3.893 0.434-5.655 1.276-0.893 0.421-1.672 0.881-2.374 1.404-0.766 0.562-1.468 1.238-2.119 2.030l-0.485 0.6c-0.996 1.264-1.787 2.655-2.4 4.199zM140.101 25.988l-7.122-18.24 0.102-0.089c0.064-0.051 0.14-0.115 0.204-0.166s0.14-0.102 0.191-0.153l0.013-0.013c0.523-0.37 1.072-0.715 1.634-0.996l0.026-0.026 0.026-0.013c1.085-0.549 2.298-0.83 3.612-0.83 1.264 0 2.425 0.268 3.485 0.791 1.098 0.562 2.081 1.315 2.936 2.259 0.842 0.97 1.506 2.093 1.978 3.344 0.23 0.613 0.408 1.251 0.523 1.915 0.115 0.689 0.179 1.366 0.179 1.991 0 1.353-0.23 2.629-0.677 3.791-0.243 0.664-0.523 1.289-0.842 1.851-0.306 0.536-0.651 1.047-1.047 1.506l-0.026 0.026c-0.434 0.498-0.868 0.932-1.302 1.276-0.472 0.383-1.008 0.728-1.608 1.021-0.472 0.255-1.021 0.459-1.672 0.638h-0.026c-0.064 0.013-0.128 0.026-0.191 0.038-0.077 0.013-0.14 0.038-0.23 0.051h-0.166zM133.425 7.888l6.905 17.691c0.013 0 0.038-0.013 0.051-0.013 0.064-0.013 0.14-0.038 0.217-0.038 0.625-0.166 1.149-0.357 1.583-0.6 0.587-0.294 1.098-0.625 1.544-0.983 0.421-0.332 0.842-0.753 1.251-1.238l0.026-0.026c0.37-0.434 0.702-0.919 0.996-1.43 0.306-0.549 0.587-1.162 0.817-1.8 0.434-1.111 0.651-2.336 0.651-3.651 0-0.613-0.051-1.264-0.166-1.927-0.102-0.625-0.281-1.251-0.498-1.838-0.459-1.2-1.098-2.285-1.902-3.229-0.817-0.906-1.774-1.634-2.821-2.17-0.996-0.498-2.106-0.74-3.306-0.74-1.238 0-2.387 0.255-3.395 0.779l-0.026 0.026-0.026 0.013c-0.549 0.281-1.098 0.613-1.608 0.983-0.064 0.051-0.128 0.102-0.204 0.153-0.026-0.013-0.051 0.013-0.089 0.038zM134.471 24.903l-0.536-0.396c-0.587-0.421-1.098-0.906-1.544-1.442-0.842-0.996-1.506-2.119-1.966-3.357-0.23-0.587-0.421-1.225-0.562-1.953-0.128-0.613-0.191-1.264-0.217-1.991-0.026-0.625 0.026-1.213 0.128-1.813l0.128-0.651 4.57 11.603zM130.055 14.743c-0.026 0.332-0.038 0.664-0.026 1.008 0.026 0.702 0.089 1.34 0.204 1.927 0.14 0.702 0.319 1.315 0.549 1.889 0.459 1.2 1.098 2.285 1.902 3.255 0.281 0.332 0.587 0.638 0.919 0.932l-3.548-9.012z"></path>
<path fill="#fff" d="M138.773 29.626v0c-1.876-0.038-3.625-0.472-5.195-1.276-1.493-0.766-2.834-1.813-3.97-3.089-0.549-0.625-1.047-1.315-1.493-2.055-0.408-0.677-0.779-1.468-1.098-2.336-0.6-1.583-0.906-3.28-0.906-5.042 0-1.736 0.319-3.497 0.945-5.208 0.562-1.442 1.289-2.706 2.157-3.791l0.485-0.6c0.511-0.651 1.123-1.251 1.838-1.774 0.702-0.498 1.417-0.932 2.144-1.276 1.608-0.766 3.306-1.149 5.042-1.149 1.838 0 3.574 0.421 5.144 1.238 1.557 0.791 2.898 1.851 3.995 3.153 1.072 1.289 1.927 2.77 2.54 4.429 0.6 1.608 0.906 3.293 0.906 5.004 0 1.825-0.319 3.587-0.945 5.221-0.613 1.634-1.506 3.114-2.68 4.391-1.085 1.251-2.425 2.285-3.982 3.051-0.689 0.332-1.481 0.625-2.374 0.868h-0.013c-0.881 0.153-1.736 0.243-2.54 0.243zM138.748 2.4c-1.672 0-3.306 0.37-4.876 1.111-0.702 0.345-1.404 0.753-2.081 1.238-0.689 0.511-1.289 1.085-1.774 1.71l-0.498 0.6c-0.855 1.047-1.557 2.285-2.093 3.689-0.613 1.672-0.919 3.37-0.919 5.080 0 1.698 0.294 3.344 0.881 4.914 0.319 0.855 0.676 1.608 1.072 2.272 0.434 0.715 0.919 1.391 1.455 1.991 1.098 1.238 2.387 2.247 3.855 3 1.519 0.779 3.204 1.2 5.016 1.238 0.779 0 1.608-0.089 2.464-0.255 0.868-0.23 1.647-0.511 2.298-0.842 1.506-0.74 2.808-1.736 3.868-2.961 1.136-1.238 2.017-2.68 2.604-4.276 0.613-1.583 0.919-3.293 0.919-5.080 0-1.647-0.294-3.28-0.881-4.863-0.6-1.608-1.442-3.063-2.476-4.327-1.047-1.264-2.349-2.298-3.868-3.063-1.519-0.779-3.191-1.174-4.965-1.174zM139.054 27.928h-0.128l-8.029-20.499 0.179-0.217c0.357-0.472 0.817-0.906 1.327-1.289 0.511-0.396 1.123-0.779 1.927-1.187 1.302-0.689 2.795-1.047 4.442-1.047 1.493 0 2.936 0.332 4.314 0.983 1.327 0.689 2.489 1.583 3.472 2.668 0.97 1.123 1.749 2.438 2.31 3.931 0.281 0.689 0.485 1.43 0.625 2.247 0.128 0.766 0.191 1.519 0.191 2.285 0 1.544-0.268 3.038-0.779 4.429-0.319 0.83-0.625 1.481-0.945 2.068-0.357 0.677-0.779 1.276-1.264 1.825-0.447 0.549-0.97 1.072-1.557 1.532-0.536 0.434-1.162 0.83-1.902 1.213-0.625 0.332-1.327 0.6-2.093 0.779-0.587 0.153-1.213 0.243-1.876 0.255l-0.217 0.026zM139.181 27.545h0.077c0.625-0.026 1.225-0.102 1.787-0.255 0.715-0.179 1.404-0.434 2.004-0.753 0.728-0.37 1.327-0.753 1.838-1.174 0.562-0.447 1.072-0.957 1.506-1.481 0.472-0.536 0.868-1.111 1.213-1.761 0.319-0.574 0.613-1.213 0.932-2.030 0.498-1.327 0.753-2.77 0.753-4.289 0-0.753-0.064-1.481-0.191-2.221-0.14-0.791-0.345-1.506-0.613-2.183-0.549-1.43-1.302-2.706-2.246-3.816-0.945-1.047-2.068-1.915-3.357-2.578-1.302-0.625-2.693-0.932-4.148-0.932-1.583 0-3.012 0.332-4.263 0.996-0.779 0.408-1.379 0.766-1.864 1.149-0.498 0.37-0.919 0.779-1.264 1.225l-0.038 0.051 7.876 20.053zM137.624 27.928l-0.893-0.179c-0.204-0.038-0.37-0.089-0.549-0.128-0.562-0.14-1.136-0.357-1.761-0.677-1.327-0.689-2.476-1.596-3.408-2.693-0.945-1.098-1.723-2.4-2.285-3.88-0.281-0.753-0.498-1.519-0.651-2.272-0.14-0.804-0.217-1.57-0.243-2.285-0.026-0.728 0.038-1.481 0.179-2.234 0.115-0.664 0.319-1.391 0.6-2.157 0.204-0.536 0.447-1.085 0.753-1.672 0.026-0.077 0.077-0.166 0.128-0.243l0.536-0.868 7.595 19.287zM129.94 9.458l-0.14 0.23c-0.038 0.051-0.077 0.128-0.089 0.179l-0.013 0.026c-0.306 0.574-0.536 1.111-0.74 1.634-0.268 0.753-0.472 1.455-0.587 2.093-0.128 0.728-0.191 1.442-0.166 2.157 0.026 0.702 0.102 1.455 0.23 2.234 0.14 0.728 0.357 1.468 0.625 2.208 0.549 1.43 1.302 2.693 2.221 3.765 0.893 1.059 2.004 1.927 3.293 2.591 0.6 0.306 1.149 0.511 1.685 0.651 0.166 0.038 0.332 0.089 0.523 0.128l0.204 0.038-7.046-17.934z"></path>
</svg>
