<?xml version="1.0" encoding="utf-8"?>
<!-- Generator: Adobe Illustrator 18.0.0, SVG Export Plug-In . SVG Version: 6.00 Build 0)  -->
<!DOCTYPE svg PUBLIC "-//W3C//DTD SVG 1.1//EN" "http://www.w3.org/Graphics/SVG/1.1/DTD/svg11.dtd">
<svg version="1.1" id="Слой_1" xmlns="http://www.w3.org/2000/svg" xmlns:xlink="http://www.w3.org/1999/xlink" x="0px" y="0px"
	 width="1197.4px" height="246.3px" viewBox="1 476.9 1197.4 246.3" enable-background="new 1 476.9 1197.4 246.3"
	 xml:space="preserve">
<path fill="none" stroke="#000000" stroke-width="3" stroke-miterlimit="10" d="M115.1,720.1c-13.4-0.2-26.7-2.8-39-7.8
	c-20.9-8.3-38.7-23.4-51.2-41.9c-12.3-18-20-39.2-21.9-60.9c-2.5-28.4,5-57.6,20.9-81.3c10.7-16,25.2-29.7,42.4-38.5
	c19.7-10.2,42.6-13.4,64.5-9.7c21.8,3.7,42.3,14.2,57.9,29.8c11.5,11.5,20.1,25.6,25,41.1c-12.5,4.4-24.9,8.9-37.4,13.3
	c-0.4,0.1-0.7,0.3-1.1,0.4c-0.1-0.3-0.3-0.6-0.4-0.9c-0.3-0.6-0.5-1.2-0.8-1.8c-0.6-1.3-1.2-2.5-1.8-3.8c-1.2-2.4-2.6-4.7-4.1-7
	c-2.9-4.6-6.3-8.8-10-12.7c-7.9-8.1-17.7-14.4-28.8-16.9c-3.1-0.7-6.3-1-9.5-1.1c-2.1,0-4,0.1-5.5,1.8c-2.6,2.9-3.2,7.3-4.7,10.7
	c-10.4,24.4-20.8,48.9-31.2,73.3C73.2,618.5,68,630.8,62.8,643c-0.6,1.5-1.3,2.9-1.9,4.4c-0.2,0.4-0.3,0.7-0.5,1.1
	c0.2,0.3,0.3,0.5,0.5,0.7c0.4,0.6,0.8,1.1,1.3,1.7c1.5,2,3.2,3.9,4.9,5.7c3.5,3.6,7.4,6.8,11.6,9.5c13.4,8.7,29.7,12.8,45.6,11.6
	c23.9-1.8,49.1-22.2,53.4-45.6c13.7,3.5,26.4,6.8,39.9,10.3c-6.2,36.9-39.4,66.8-77.3,74.9C132.2,719.1,123.7,720.2,115.1,720.1
	C101.8,719.9,123.7,720.2,115.1,720.1C101.8,719.9,123.7,720.2,115.1,720.1C101.8,719.9,123.7,720.2,115.1,720.1z M55.1,556
	c-2.3,4.3-4.3,8.8-6,13.7c0,0-0.3,0.8-0.3,1L55.1,556z"/>
<path fill="none" stroke="#000000" stroke-width="3" stroke-miterlimit="10" d="M115.1,706c-2.2,0-4.5,0-6.7-0.2
	c-2.3-0.2-4.5-0.3-6.5-0.7h-0.2c-3.3-0.7-6.6-1.4-9.9-2.3c-1.6-0.4-3.1-0.9-4.7-1.3c-0.8-0.3-1.7-0.6-2.5-0.9
	c-0.5-0.2-1.4-0.7-1.9-0.7c-2.7-1-5.2-2-7.5-3.3l-0.2-0.2c-6.9-3.4-13.1-8-19-12.8c-9.2-7.6-16.8-16.6-23-26.9
	c-0.8-1.3-1.6-2.7-2.4-4c-1.5-2.5-2.8-5-4-7.5c-1-2.3-2-4.8-2.8-7.3c-7.4-19.4-8.8-40.9-4.8-61.2c4-20.4,13.5-39.9,27.6-55.2
	c7.5-8.2,16.5-14.8,26.4-19.7c5.5-2.6,11.3-4.7,17.2-6.2c5.9-1.5,12.2-2.8,18.3-2.8h3.3c11,0,20.7,1.2,28.7,3.5
	c8.5,2.3,16,5.7,22.4,9.5c6.2,3.8,11.8,8.7,17,14.9c3.2,3.7,5.8,7.5,8.2,11.7l5.8,10.7l-12.3,4.3l-5.8-9.8c-1.8-3.3-4-6.2-6.3-8.7
	c-2.5-2.5-5-5-7.7-7.3c-1.5-1.3-3.2-2.5-4.7-3.3c-1.7-1-3.5-2-5.2-3c-1.8-1-3.7-1.8-5.3-2.5c-1.7-0.8-3.5-1.5-5.3-2.2
	c-1.3-0.5-2.5-1-3.7-1.2c-1.3-0.3-2.7-0.7-4-0.8c-6.3-1.3-12.6-2.1-19-2.2c-1.5,0-3.1,0-4.6,0.1c-0.8,0-1.5,0.1-2.3,0.1
	c-0.2,0-1.9,0-1.9,0.1c0,0.1-0.1,0.1-0.1,0.2c-0.6,1.5-1.3,3-1.9,4.5c-3.2,7.6-6.4,15.1-9.6,22.7c-4.8,11.3-9.6,22.5-14.4,33.8
	c-5.1,12.1-10.3,24.2-15.4,36.3c-4.3,10-8.6,20.1-12.8,30.1c-2.2,5.1-4.4,10.3-6.6,15.4c-0.1,0.2-0.2,0.4-0.2,0.6l0.7,1
	c0.5,0.8,1,1.7,1.7,2.5c6.8,9.8,14.9,18.4,24.7,25.1c10,6.9,21.9,11.5,34,13.1c9.9,1.4,20.3,0.8,29.9-2.1
	c15.2-4.5,29.5-12.2,40.9-23.5c4.7-4.7,7.8-10.5,10-16.9l12.8,3.3c-1.8,5.5-4,10.8-7.3,15.5c-1.2,1.7-2.3,3.3-3.5,4.8
	c-16.4,21-43.1,31.2-69.1,32.7C118,706,116.6,706,115.1,706z M85.8,510.6c-2.7,1-5.2,2.2-7.7,3.5c-10,5.3-18.7,12.5-25.9,21
	c-7.2,8.8-12.7,18.9-16.4,30c-8.2,22.6-6.7,47.2,1,69.8c1.8-4.1,3.6-8.3,5.3-12.4c4.3-9.9,8.6-19.9,12.8-29.8
	c5.2-12.1,10.4-24.2,15.6-36.2c4.5-10.5,9.1-21.1,13.6-31.6c2.3-5.3,4.6-10.7,6.9-16c0.1-0.1,0.1-0.3,0.2-0.4L85.8,510.6z"/>
<path fill="none" stroke="#000000" stroke-width="3" stroke-miterlimit="10" d="M370.6,720.2l-51.2-79.9h-19l-33.9,79.6H231V481.3
	h101.8c1.7,0,3.2,0.2,4.7,0.3l4.8,0.5c3.8,0.5,7.3,1.3,10.8,2.7c2.7,1,5.5,2.3,8.2,3.7l0.3,0.2c4.3,2.3,8.3,4.8,11.8,7.5
	c4.2,3,7.8,6.5,11.3,10.7l0.3,0.5c1.2,1.5,2.3,3,3.5,4.5c1.3,1.8,2.5,3.7,3.7,5.5c1.8,2.8,3.3,5.7,4.5,8.3c0.5,1,1,2.2,1.5,3.3
	c0.3,1,0.7,1.8,1,2.8c0.8,1.8,1.5,3.7,2.2,5.7c0.7,2,1.2,4.2,1.5,6.2c0.3,1.7,0.7,3.3,0.8,4.8l0.3,2.5c0.5,2,0.7,4.2,0.7,6.3v3.5
	c0,2,0,4.2-0.2,6.3c-0.2,2.8-0.5,5.8-1.2,8.7l-1.3,8.7l-1.7,4.8l-1.2,3.2c-0.7,2-1.3,4-2.3,5.8c-0.2,0.5-0.5,0.8-0.7,1.3l-0.3,0.8
	l-0.2,0.2c-0.5,1-1.2,2.2-1.8,3.2l0,0l-0.8,1.5l-0.2,0.3c-0.7,1.2-1.5,2.3-2.3,3.5c-1.3,2.2-2.8,4-4.3,5.7l-4.7,5.2l-4.3,4
	c-2,1.8-4.2,3.3-6.3,4.8l-5.2,3.2c0,0-1.3,0.7-1.7,0.8l55.7,87.3H370.6L370.6,720.2z M272.8,599.9l32.7-76.8h-32.7V599.9z
	 M332.7,598.7c14,0,24.4-10.9,28.7-23.5c2.6-7.7,2.9-15.3,1-23.2c-0.7-2.8-1.7-5.4-2.9-8c-1.2-2.5-2.7-4.8-4.4-7.1
	c-0.8-1.1-1.7-2.2-2.6-3.3c-1.2-1.4-2.3-2.9-3.8-3.9c-0.4-0.3-0.8-0.5-1.3-0.7c0,0-29.5,69.8-29.5,69.8S332.7,598.7,332.7,598.7z"/>
<path fill="none" stroke="#000000" stroke-width="3" stroke-miterlimit="10" d="M378.1,705.7c-1.3-2.2-2.6-4.3-4-6.5
	c-1.4-2.2-2.8-4.3-4.2-6.4c-1.2-1.8-2.3-3.5-3.4-5.3c-5.9-9.2-11.8-18.4-17.7-27.6c-5.3-8.2-10.6-16.5-15.9-24.7
	c-1.9-3-3.8-5.9-5.7-8.9c0,0-36.2,0-36.2,0l-33.9,79.6h-11.8V495.6h87.6c0.8,0,1.8,0,2.7,0.2l5.2,0.7c7.3,1.2,14.3,4.2,20.5,8.2
	c3.2,2.1,6.2,4.4,8.9,7c2.8,2.7,5.1,5.7,7.4,8.8c5.5,7.5,9.5,16,11.5,25.2c1,4.5,1.7,9.2,1.8,13.9c0,2.3,0,4.7-0.2,7
	c-0.3,5.5-1.3,11-3,16.4c-0.6,2-1.1,4-1.9,6.1c-0.8,2.1-1.8,4.1-2.8,6.1c-2.1,4-4.5,7.7-7.3,11.2c-3,3.7-6.5,6.9-10.4,9.7
	c-5.6,3.9-11.8,6.9-18.3,9c-0.5,0.2-1,0.3-1.5,0.5l-3.2,0.8c0,0,51.2,80.3,51.2,80.3c-5-0.1-10-0.1-15-0.2
	C378.3,706.2,378.2,706,378.1,705.7z M258.7,669.2l20.7-48.2l2.5-5.7L327.1,509h-68.4V669.2z M296.5,612.9c10.1,0,20.1,0,30.2,0
	c4.8,0,9.4,0.1,14.1-0.9c5.1-1.1,10.1-3.1,14.5-6c14.1-8.9,22.4-25.9,22.7-42.3c0.1-8.2-1.4-16.5-4.7-24.1c-2.2-5-5-9.7-8.5-14
	c-1.3-1.6-2.8-3.2-4.3-4.6c-3.1-2.9-6.5-5.3-10.2-7.3c-2.3-1.2-4.7-2.2-7.2-3.1c-0.3-0.2-0.7-0.2-0.8-0.3l-2-0.7
	C340.3,509.8,296.5,612.9,296.5,612.9z"/>
<polygon fill="none" stroke="#000000" stroke-width="3" stroke-miterlimit="10" points="435.2,719.9 435.2,614.6 468.3,594.6 
	435.2,594.6 435.2,481.4 600.1,481.4 600.1,523.2 476.8,523.2 476.8,552.9 561.2,552.9 561.2,586.7 476.8,637.8 476.8,678.2 
	602.8,678.2 602.8,719.9 "/>
<polygon fill="none" stroke="#000000" stroke-width="3" stroke-miterlimit="10" points="449.4,705.7 449.4,622.6 519.1,580.4 
	449.4,580.4 449.4,495.6 585.9,495.6 585.9,509 462.6,509 462.6,567 547,567 547,578.7 466.8,627.3 462.6,629.8 462.6,692.5 
	588.6,692.5 588.6,705.7 "/>
<path fill="none" stroke="#000000" stroke-width="3" stroke-miterlimit="10" d="M807.7,719.7l-25-57.9l-34.5,58.1h-24.9L688.9,662
	l-25,57.9h-45.6l47.9-110.6l2.7-6.2l52.7-122h28.7l54.9,127.8l47.9,110.8H807.7L807.7,719.7z M735.6,660l26.7-45.1l-26.5-62.1
	l-26.9,61.9L735.6,660z"/>
<path fill="none" stroke="#000000" stroke-width="3" stroke-miterlimit="10" d="M817,705.7c-0.1-0.3-0.3-0.6-0.4-0.9
	c-0.2-0.4-0.3-0.7-0.5-1.1c-0.2-0.5-0.4-1-0.7-1.5c-0.3-0.6-0.5-1.2-0.8-1.9c-0.3-0.7-0.6-1.5-0.9-2.2c-0.4-0.8-0.7-1.7-1.1-2.5
	c-0.4-0.9-0.8-1.8-1.2-2.8c-0.4-1-0.9-2-1.3-3c-0.5-1.1-0.9-2.1-1.4-3.2c-0.5-1.1-1-2.2-1.5-3.4c-0.5-1.2-1-2.3-1.5-3.5
	c-0.5-1.2-1-2.4-1.6-3.6c-0.5-1.2-1.1-2.4-1.6-3.7c-0.5-1.2-1.1-2.5-1.6-3.7c-0.5-1.2-1.1-2.5-1.6-3.7c-0.5-1.2-1.1-2.5-1.6-3.7
	c-0.5-1.2-1-2.4-1.6-3.6c-0.5-1.2-1-2.4-1.5-3.5c-0.5-1.1-1-2.3-1.5-3.4c-0.5-1.1-0.9-2.2-1.4-3.2c-0.4-1-0.9-2-1.3-3.1
	c-0.4-0.9-0.8-1.9-1.2-2.8c-0.4-0.9-0.7-1.7-1.1-2.6c-0.3-0.8-0.7-1.5-1-2.3c-0.3-0.7-0.6-1.3-0.9-2c-0.2-0.5-0.5-1.1-0.7-1.6
	c-0.2-0.4-0.4-0.8-0.5-1.2c-0.1-0.3-0.2-0.6-0.4-0.8c-0.1-0.1-0.1-0.3-0.2-0.4l-44.6,74.9h-8.8l-44.4-74.9l-32.4,74.9H640l39.2-90.8
	l2.7-6.2l49.1-113.3h10l51.2,119.3c0,0,39.4,90.9,39.4,90.9c-0.5,0-1,0-1.4,0c-1.1,0-2.3,0-3.4,0c-1.4,0-2.8,0-4.2,0
	c-1.2,0-2.4,0-3.6,0C818.2,705.7,817.6,705.7,817,705.7z M693,615.8l42.6,71.9l42.6-71.8l-42.4-99L693,615.8z"/>
<polygon fill="none" stroke="#000000" stroke-width="3" stroke-miterlimit="10" points="868.6,719.9 868.6,561.5 804.8,522.8 
	791.7,522.8 791.7,481.3 987.9,481.3 986.4,523 884.9,523 896,529.7 910.3,538.5 910.3,719.9 "/>
<polygon fill="none" stroke="#000000" stroke-width="3" stroke-miterlimit="10" points="882.9,705.7 882.9,553.5 808.8,508.6 
	805.8,508.6 805.8,495.5 973.2,495.5 972.7,508.8 834,508.8 888.6,541.8 896.1,546.5 896.1,705.7 "/>
<path fill="none" stroke="#000000" stroke-width="3" stroke-miterlimit="10" d="M1085.7,721.7c-8,0-16-1-23.4-2.8
	c-7.2-1.8-14.2-4.3-21.2-7.7c-13.5-6.7-25.2-15.7-35-26.9c-10-11.2-17.9-24-23.2-38c-8.8-22.8-10.2-47.8-5.2-71.6
	c1.1-5.3,2.5-10.5,4.2-15.6c1.6-5,3.9-9.8,6.2-14.4c4.5-9,10-17.6,16.4-25.4c9.5-11.5,21.4-20.9,35.2-28
	c18.6-9.7,40.2-12.8,60.9-9.8c20.9,3.1,41.5,12.3,57,26.9c3.1,2.9,6.1,6.1,8.8,9.5l3.8,4.7c7.7,9.3,14.2,20.5,19,33v0.2
	c6.3,17.3,8.8,35.9,7.4,54.2c-1.4,17.9-6.5,35.6-15.1,51.4c-8.7,16-20.9,29.9-35.8,40.4c-8.1,5.7-16.9,10.5-26.3,13.8
	c-10.7,3.8-22.1,5.7-33.4,5.9L1085.7,721.7z M1129.2,538.2c-1-0.8-2.2-1.7-3.2-2.5c-4-2.8-8.3-5.5-12.8-7.8l-0.2-0.2
	c-9.1-4.6-19.2-6.8-29.4-6.3c-9.9,0.5-19.6,3.5-28.2,8.2c-7.1,3.9-13.5,9.1-19,15.1c-13.3,15.4-20.4,35.4-20.3,55.7
	c0.1,19.5,6.6,40,19.4,54.9l0.2,0.2c3.2,3.7,6.5,7,10,9.8c3.5,2.8,7.7,5.5,12.3,7.8c4,2.2,8.3,3.7,12.8,4.8c1.2,0.2,2.2,0.5,3.3,0.7
	L1129.2,538.2z M1122.6,667.5c4.3-3.2,8.3-6.8,11.8-11c6.3-7.5,11.5-16.2,15.2-25.9c5.5-13.8,7.7-29.5,5-44.2
	c-2.4,6-4.8,12-7.1,18.1c-4.7,11.9-9.4,23.8-14.1,35.7c-3.4,8.6-6.8,17.1-10.1,25.7C1123,666.4,1122.8,667,1122.6,667.5z"/>
<path fill="none" stroke="#000000" stroke-width="3" stroke-miterlimit="10" d="M1085.5,707.2c-7,0-13.7-0.8-19.7-2
	c-6.2-1.7-12.5-3.8-18.4-6.7c-11.8-5.8-22.2-13.7-30.7-23.5c-9-9.8-16-21.4-20.7-33.9c-7.2-18.7-9-39.3-5.5-59
	c3.4-19.7,11.9-38.5,24.8-53.7c12.9-15.3,30-26.5,49.6-31.1c18.9-4.4,38.8-2.5,56.7,5c12.9,5.4,24.9,13.4,33.5,24.4l3.8,4.7
	c6.7,8.2,12.3,18,16.7,29.2c6.3,17.1,8.3,35.7,6.1,53.7c-2.2,17.7-8.5,35-18.6,49.8c-10.5,15.3-25.1,27.8-42,35.4
	C1109.9,704.4,1097.8,706.9,1085.5,707.2L1085.5,707.2z M1052.5,514.8c-10,5.2-19,12-26.7,20.5c-7.5,8.7-13.5,18.9-17.9,30.2
	c-2.3,5.8-3.8,11.7-4.8,17.4c-4.1,23.8,0.8,48,12.5,69c2.5,4.6,5.5,8.9,9,12.8c3.7,4.5,7.8,8.5,12,11.8c4.3,3.5,9.2,6.5,14.7,9.3
	c5,2.7,10.5,4.7,16,6c4.5,1.2,9.3,1.8,14.4,2h1.7l62.1-158.5l-0.8-1c-2.8-3.7-6.3-7-10.2-9.8c-4.5-3.5-9.7-6.5-14.9-9.2
	c-20.1-10.7-50.3-11.8-69.9,1c1.6-1.1,4-2.2,5.8-2.9c-0.1,0-5.8,2.9-5.8,2.9c0.1,0.1,5.9-2.8,5.8-2.9
	C1055.4,513.5,1052.6,514.7,1052.5,514.8C1042.5,520,1062.7,510,1052.5,514.8z M1154.3,547.7l-57.4,145.7l4.3-0.8
	c1.5-0.3,2.8-0.7,4.2-1c4.7-1.2,9.2-3,13.5-5.2c10-5.2,18.9-12,26.2-20.7c7.5-8.7,13.3-18.7,17.7-29.9c2.2-5.8,3.8-11.7,5-17.5
	c1.9-11.2,2.1-22.8,0.2-34c-0.9-5.6-2.3-11.2-4.2-16.6c-0.9-2.7-2-5.4-3.2-8.1c-0.6-1.3-1.2-2.7-1.9-4c-0.6-1.2-1.1-2.5-1.8-3.6
	L1154.3,547.7z"/>
</svg>
