<?xml version="1.0" standalone="no"?>
<!DOCTYPE svg PUBLIC "-//W3C//DTD SVG 20010904//EN"
 "http://www.w3.org/TR/2001/REC-SVG-20010904/DTD/svg10.dtd">
<svg version="1.0" xmlns="http://www.w3.org/2000/svg"
 width="254.000000pt" height="254.000000pt" viewBox="0 0 254.000000 254.000000"
 preserveAspectRatio="xMidYMid meet">
<metadata>
Created by potrace 1.11, written by Peter Selinger 2001-2013
</metadata>
<g transform="translate(0.000000,254.000000) scale(0.100000,-0.100000)"
fill="#000000" stroke="none">
<path d="M601 1997 c-151 -19 -262 -76 -381 -196 -142 -143 -210 -301 -216
-501 -1 -63 2 -140 7 -170 50 -266 234 -488 473 -571 72 -26 95 -29 207 -29
101 0 141 4 195 21 200 62 348 194 411 367 36 99 41 93 -107 131 -72 19 -132
32 -133 30 -2 -2 -12 -26 -22 -54 -23 -62 -110 -152 -178 -183 -139 -65 -334
-27 -437 84 l-39 43 39 93 c21 51 93 219 159 373 l120 280 41 -2 c98 -5 214
-92 270 -203 28 -56 31 -58 57 -50 38 11 226 80 230 84 2 1 -4 20 -12 42 -114
286 -385 449 -684 411z m279 -57 c144 -51 277 -167 344 -301 20 -40 34 -74 32
-76 -2 -2 -47 -19 -99 -38 l-96 -33 -27 46 c-74 126 -175 196 -302 209 l-52 5
-26 -58 c-28 -62 -181 -421 -219 -514 -12 -30 -39 -92 -58 -138 l-36 -83 52
-53 c116 -117 302 -161 450 -106 98 37 203 138 223 213 8 32 14 32 124 3 83
-22 85 -23 84 -52 -4 -82 -116 -232 -228 -305 -187 -122 -432 -137 -626 -39
-228 115 -374 349 -385 615 -14 321 182 618 463 706 37 11 72 22 77 24 6 2 62
2 125 0 88 -2 130 -8 180 -25z"/>
<path d="M572 1908 c-207 -32 -396 -220 -462 -461 -53 -192 -21 -392 89 -559
116 -177 298 -281 487 -280 224 2 406 99 497 265 40 74 37 81 -44 100 -24 6
-29 2 -51 -41 -32 -61 -120 -133 -217 -174 -172 -73 -359 -36 -502 99 -25 24
-54 58 -63 76 l-17 32 106 250 c58 138 115 269 126 292 10 24 19 45 19 48 0 3
9 24 19 48 11 23 34 76 51 117 18 41 34 77 36 79 8 9 116 -1 170 -15 102 -26
189 -94 243 -190 l22 -40 50 15 c27 9 49 21 49 27 0 21 -72 130 -117 176 -52
53 -131 98 -215 122 -67 19 -201 26 -276 14z m216 -33 c91 -12 202 -70 265
-139 42 -45 88 -122 79 -130 -15 -15 -43 -3 -57 25 -42 81 -158 167 -255 188
-41 9 -142 16 -181 12 -18 -1 -16 5 -205 -441 -80 -190 -155 -365 -165 -389
l-19 -44 24 -37 c91 -138 257 -231 416 -232 161 -1 363 106 426 225 15 27 38
35 49 17 8 -13 -20 -65 -62 -117 -46 -56 -127 -108 -216 -140 -94 -34 -270
-39 -356 -10 -201 68 -373 280 -407 504 -35 228 67 487 244 616 118 87 242
114 420 92z"/>
<path d="M492 1800 c-156 -72 -261 -202 -307 -380 -22 -86 -23 -226 0 -310 31
-117 31 -117 90 22 28 68 59 139 68 158 9 19 50 116 93 215 42 99 87 203 99
230 29 66 38 95 28 95 -4 -1 -36 -14 -71 -30z m15 -44 c-33 -86 -281 -655
-285 -652 -10 11 -22 88 -23 153 -2 198 94 386 247 482 53 34 69 38 61 17z"/>
<path d="M297 1488 c-9 -24 -17 -52 -18 -63 -5 -57 4 -54 32 9 28 65 31 96 11
96 -5 0 -16 -19 -25 -42z"/>
<path d="M1370 1258 l0 -729 122 3 121 3 53 125 c29 69 62 145 73 170 11 25
31 72 45 105 l24 60 49 3 48 3 101 -158 c56 -87 123 -193 150 -235 l49 -78
167 0 168 0 -82 128 c-44 70 -119 187 -167 261 l-85 134 24 15 c50 31 127 121
157 183 95 196 61 432 -84 590 -54 58 -156 120 -223 135 -19 4 -187 8 -372 9
l-338 1 0 -728z m730 678 c199 -74 323 -268 306 -481 -12 -162 -82 -288 -204
-364 l-42 -27 155 -243 c86 -134 157 -249 158 -255 1 -7 -38 -11 -120 -12
l-122 -2 -68 107 c-38 58 -107 166 -153 239 l-85 132 -69 -2 -69 -3 -98 -229
c-54 -126 -102 -232 -108 -235 -5 -4 -47 -6 -93 -6 l-83 1 -3 690 c-1 379 0
694 2 699 2 7 118 10 327 9 274 -1 331 -4 369 -18z"/>
<path d="M1459 1898 c-1 -2 -3 -292 -4 -645 l-1 -643 28 -1 c15 -1 37 -2 49
-2 18 -1 30 18 76 128 29 72 60 144 67 160 8 17 28 64 45 105 18 41 36 77 42
81 11 6 187 5 193 -2 2 -2 71 -109 154 -238 l150 -235 66 -1 c46 -1 63 2 57 9
-7 9 -274 429 -294 463 -5 7 12 20 47 36 106 49 182 144 210 267 47 202 -45
405 -222 488 l-57 27 -302 3 c-167 2 -304 2 -304 0z m654 -62 c275 -135 284
-556 13 -691 -27 -14 -58 -25 -67 -25 -10 0 -20 -4 -24 -9 -3 -5 60 -112 140
-237 135 -209 157 -256 114 -239 -8 3 -82 112 -166 243 l-152 237 -115 0 c-63
0 -118 -3 -122 -8 -4 -4 -51 -110 -104 -235 -85 -199 -100 -227 -121 -230
l-24 -3 0 608 c0 370 3 611 9 615 5 3 134 6 285 5 l276 -2 58 -29z"/>
<path d="M1539 1818 c-6 -9 -4 -1037 1 -1031 12 13 440 1014 440 1027 0 6
-438 9 -441 4z m391 -36 c0 -6 -263 -628 -324 -767 -20 -44 -36 -75 -37 -70
-5 45 -3 814 3 826 6 14 30 17 183 17 96 -1 175 -3 175 -6z"/>
<path d="M1624 1731 c-2 -2 -4 -126 -4 -275 l1 -271 70 165 c39 91 77 180 86
199 38 84 73 175 68 179 -6 7 -215 9 -221 3z m176 -41 c0 -6 -4 -18 -10 -28
-5 -9 -37 -82 -71 -162 -33 -80 -63 -147 -65 -149 -2 -2 -4 75 -4 172 l0 177
75 0 c44 0 75 -4 75 -10z"/>
<path d="M1995 1738 c-16 -40 -39 -98 -53 -128 -13 -30 -30 -68 -37 -85 -7
-16 -42 -100 -79 -186 -36 -85 -66 -160 -66 -166 0 -6 51 -9 148 -8 132 2 154
4 196 25 62 30 113 82 145 150 21 46 26 69 26 145 0 76 -4 98 -26 145 -35 74
-71 115 -133 150 -79 46 -88 42 -121 -42z m122 3 c112 -81 157 -217 115 -348
-25 -80 -71 -137 -135 -170 -46 -23 -64 -26 -173 -27 l-123 -2 15 35 c138 336
231 541 245 541 9 0 34 -13 56 -29z"/>
<path d="M1978 1478 l-95 -223 74 -3 c60 -2 84 1 118 18 102 49 149 207 97
323 -20 43 -74 107 -90 107 -5 0 -52 -100 -104 -222z m162 107 c26 -54 28
-125 4 -185 -31 -80 -78 -115 -161 -119 l-52 -2 23 58 c47 115 78 189 107 252
33 72 43 71 79 -4z"/>
</g>
</svg>
